<?xml version="1.0" encoding="UTF-8" standalone="no"?>
<!-- Generator: Adobe Illustrator 24.0.1, SVG Export Plug-In . SVG Version: 6.00 Build 0)  -->

<svg
   version="1.1"
   id="Layer_1"
   inkscape:version="1.2 (dc2aedaf03, 2022-05-15)"
   sodipodi:docname="logo_dark_font.svg"
   x="0px"
   y="0px"
   viewBox="0 0 151.4 60.1"
   style="enable-background:new 0 0 151.4 60.1;"
   xml:space="preserve"
   xmlns:inkscape="http://www.inkscape.org/namespaces/inkscape"
   xmlns:sodipodi="http://sodipodi.sourceforge.net/DTD/sodipodi-0.dtd"
   xmlns="http://www.w3.org/2000/svg"
   xmlns:svg="http://www.w3.org/2000/svg"><defs
   id="defs31" />
<style
   type="text/css"
   id="style2">
	.st0{fill:#06304C;}
	.st1{fill-rule:evenodd;clip-rule:evenodd;fill:#235470;}
	.st2{fill-rule:evenodd;clip-rule:evenodd;fill:#3F7B90;}
	.st3{fill-rule:evenodd;clip-rule:evenodd;fill:#F3B232;}
	.st4{fill-rule:evenodd;clip-rule:evenodd;fill:#F4DD47;}
</style>
<sodipodi:namedview
   bordercolor="#666666"
   borderopacity="1.0"
   fit-margin-bottom="0.5"
   fit-margin-left="0.5"
   fit-margin-right="0.5"
   fit-margin-top="0.5"
   id="namedview161"
   inkscape:current-layer="Layer_1"
   inkscape:cx="30.298389"
   inkscape:cy="42.093945"
   inkscape:pagecheckerboard="0"
   inkscape:pageopacity="0.0"
   inkscape:pageshadow="2"
   inkscape:window-height="971"
   inkscape:window-maximized="0"
   inkscape:window-width="1904"
   inkscape:window-x="8"
   inkscape:window-y="64"
   inkscape:zoom="8.6473244"
   pagecolor="#ffffff"
   showgrid="false"
   inkscape:showpageshadow="2"
   inkscape:deskcolor="#d1d1d1">
	</sodipodi:namedview>
<g
   id="g156">
	<path
   id="path146_1_"
   class="st4"
   d="m 4.3921875,52.468752 8.8000005,-2.1 2.1,9.1 H 5.9921875 Z" />
	<path
   id="path154"
   class="st4"
   d="M 29.167203,51.717121 C 23.972663,52.94054 18.469565,52.265332 14.060146,50.18518 l 13.984988,-3.363053 v 0 z" />
</g><g
   id="g30"
   transform="translate(-9.312326,-79.98)">
	<g
   id="g20">
		<path
   id="path4"
   class="st0"
   d="M84.2,102.5h-7v8c0,0.5-0.4,0.9-0.9,0.9s-0.9-0.4-0.9-0.9V92.3c0-0.5,0.4-0.9,0.9-0.9h7.9    c3.9,0,6.1,2.4,6.1,5.5C90.3,100.1,88.1,102.5,84.2,102.5z M84.5,93h-7.4v7.9h7.4c2.5,0,3.9-1.7,3.9-3.9C88.4,94.8,87,93,84.5,93z    " />
		<path
   id="path6"
   class="st0"
   d="M93.7,93.3c0.6,0,1.1,0.5,1.1,1.1s-0.5,1.1-1.1,1.1s-1.1-0.5-1.1-1.1S93.1,93.3,93.7,93.3z     M93.7,111.4c-0.5,0-0.9-0.4-0.9-0.9V99c0-0.5,0.4-0.9,0.9-0.9s0.9,0.4,0.9,0.9v11.6C94.6,111,94.2,111.4,93.7,111.4z" />
		<path
   id="path8"
   class="st0"
   d="M102.7,108.7l4.4-10.1c0.1-0.4,0.4-0.5,0.8-0.5c0.5,0,0.8,0.4,0.8,0.8c0,0.1-0.1,0.3-0.1,0.4    l-5.2,11.6c-0.1,0.3-0.3,0.5-0.7,0.5c-0.4,0-0.6-0.2-0.7-0.5l-5.2-11.6c-0.1-0.1-0.1-0.3-0.1-0.4c0-0.4,0.3-0.8,0.8-0.8    c0.4,0,0.6,0.2,0.8,0.5L102.7,108.7z" />
		<path
   id="path10"
   class="st0"
   d="M111.7,93.3c0.6,0,1.1,0.5,1.1,1.1s-0.5,1.1-1.1,1.1s-1.1-0.5-1.1-1.1S111.1,93.3,111.7,93.3z     M111.7,111.4c-0.5,0-0.9-0.4-0.9-0.9V99c0-0.5,0.4-0.9,0.9-0.9s0.9,0.4,0.9,0.9v11.6C112.6,111,112.2,111.4,111.7,111.4z" />
		<path
   id="path12"
   class="st0"
   d="M127.6,108.8c-1.1,1.7-2.9,2.7-5.3,2.7c-3.6,0-6.5-2.8-6.5-6.8c0-3.9,2.9-6.8,6.5-6.8    c2.4,0,4.2,1,5.3,2.7V92c0-0.5,0.4-0.9,0.9-0.9c0.5,0,0.9,0.4,0.9,0.9v18.5c0,0.5-0.4,0.9-0.9,0.9s-0.9-0.4-0.9-0.9    C127.6,110.5,127.6,108.8,127.6,108.8z M122.5,110c3.1,0,5-2.4,5-5.3s-2-5.3-5-5.3s-5,2.2-5,5.3C117.5,107.8,119.6,110,122.5,110z    " />
		<path
   id="path14"
   class="st0"
   d="M139.3,111.5c-4,0-6.8-3-6.8-6.8s2.8-6.8,6.8-6.8s6.8,3,6.8,6.8S143.3,111.5,139.3,111.5z     M139.3,99.5c-2.8,0-5,2.2-5,5.3c0,3,2.2,5.3,5,5.3s5-2.2,5-5.3C144.3,101.7,142.1,99.5,139.3,99.5z" />
		<path
   id="path16"
   class="st0"
   d="M155.3,99.6c-2.6,0-4.3,2.4-4.3,5.8v5.1c0,0.5-0.4,0.9-0.9,0.9s-0.9-0.4-0.9-0.9V99    c0-0.5,0.4-0.9,0.9-0.9s0.9,0.4,0.9,0.9v2.1c0.6-1.7,2.2-3,4.3-3c0.5,0,0.9,0.3,0.9,0.8S155.8,99.6,155.3,99.6z" />
		<path
   id="path18"
   class="st0"
   d="M159.1,93.3c0.6,0,1.1,0.5,1.1,1.1s-0.5,1.1-1.1,1.1S158,95,158,94.4S158.5,93.3,159.1,93.3z     M159.1,111.4c-0.5,0-0.9-0.4-0.9-0.9V99c0-0.5,0.4-0.9,0.9-0.9s0.9,0.4,0.9,0.9v11.6C160,111,159.6,111.4,159.1,111.4z" />
	</g>
	<g
   id="g28">
		<path
   id="path22"
   class="st0"
   d="M130.6,131.5c-1.8,0-2.7-0.8-2.7-3.2v-10.8c0.3-0.1,0.6-0.2,0.9-0.2c0.3,0,0.4,0.1,0.4,0.3v10.5    c0,1.6,0.5,2.2,1.5,2.2h5.1c0.3,0,0.4,0.1,0.4,0.5v0.7H130.6z" />
		<path
   id="path24"
   class="st0"
   d="M147.8,130.6c0,0.1,0.1,0.3,0.1,0.5c0,0.3-0.4,0.6-1,0.6c-0.8,0-1.4-0.7-1.5-1.8    c-0.8,1.2-2.1,1.9-3.8,1.9c-2.2,0-3.7-1.4-3.7-3.4c0-2.2,1.7-3.5,4.2-3.5c1.1,0,2.3,0.3,3.3,0.7v-1.1c0-1.9-1.3-2.8-3.4-2.8    c-1.1,0-2.2,0.2-3,0.7c-0.1-0.1-0.2-0.4-0.2-0.6c0-0.5,1.5-1.2,3.5-1.2c2.6,0,4.4,1.4,4.4,4.1v4.7c0,0.8,0.3,1.1,0.8,1.1    L147.8,130.6L147.8,130.6z M145.4,128.4v-1.7c-0.8-0.4-2.1-0.6-3.2-0.6c-1.9,0-3,0.9-3,2.3c0,1.5,1.2,2.3,2.5,2.3    C143.1,130.6,144.5,129.9,145.4,128.4z" />
		<path
   id="path26"
   class="st0"
   d="M160.1,125.7c0,3.3-2.2,6-5.3,6c-2.8,0-4.5-1.9-4.5-4.9v-10c0.3-0.1,0.6-0.1,0.9-0.1    c0.3,0,0.4,0.1,0.4,0.3v5.4c1-1.2,2.4-1.9,4-1.9C158.1,120.6,160.1,122.5,160.1,125.7L160.1,125.7z M151.6,123.9v3    c0,2.5,1.5,3.7,3.3,3.7c2.2,0,4-2.1,4-4.8s-1.5-4.1-3.4-4.1C154,121.7,152.5,122.5,151.6,123.9L151.6,123.9z" />
	</g>
</g>
<path
   id="path134"
   class="st1"
   d="M32.8,6.4l-1.7,0.4l0.4,1.7l1.7-0.4L32.8,6.4z M25.6,15.4l3-0.7l-0.7-2.8l1.6-0.4l-0.5-2.2  l-2.2,0.5l0.5,2.1l-2.3,0.6L25.6,15.4z M23,11.6l-3.4,0.8l0.8,3.4l3.4-0.8L23,11.6z M31.9,14.1l3.9-0.9l-0.9-3.9L31,10.2L31.9,14.1z   M37.9,12.1l4.8-1.1l-1.1-4.7l-4.8,1.1L37.9,12.1z M45.6,0.5l-3,0.7l0.7,3l3-0.7L45.6,0.5z M50.8,3.8l-2.9,0.7l0.7,2.9l2.9-0.7  L50.8,3.8z M23.6,9.2l3.3-0.8l-0.8-3.3l-3.3,0.8L23.6,9.2z" />
<path
   id="path138"
   class="st2"
   d="M41.9,13L39,13.7l0.7,2.9l2.9-0.7L41.9,13z M46,11.6L44.3,12l0.4,1.7l1.7-0.4L46,11.6z M46.1,19.2  l-2.9,0.7l0.7,2.9l2.9-0.7L46.1,19.2z M30.9,15.2l-1.7,0.4l0.4,1.7l1.7-0.4L30.9,15.2z M37.4,15.2L34,16l0.8,3.5l3.5-0.8L37.4,15.2z   M46.4,8.2l-1.7,0.4l0.4,1.7l1.7-0.4L46.4,8.2z M43.7,16.6L42.2,17l0.3,1.4l1.5-0.3L43.7,16.6z M53.9,12.6l-3.3,0.8l0.8,3.3l3.3-0.8  L53.9,12.6z M61.6,11.9l-4,0.9l1,3.9l3.9-0.9L61.6,11.9z" />
<path
   id="path140"
   class="st2"
   d="M42.9,26.8l-1.3-5.4l-4,1L37,19.9l-3,0.7l-0.8-3.5l-4.4,1.1l-0.6-2.7l-4.2,1L23.9,16L1.7,21.4  c-1.4,4.1-1.6,8.5-0.6,13c0.1,0.5,0.3,1.1,0.4,1.6l11.3-4.1c0-0.1-0.1-0.2-0.1-0.3c-1.5-6.2,2.3-12.5,8.5-14s12.5,2.3,14,8.6  c0.3,1.2,0.4,2.5,0.3,3.7l3.6-0.9l-0.3-1.2L42.9,26.8z" />
<g
   id="g150">
	<path
   id="path144"
   class="st3"
   d="M53.3,31.2l1.7-0.4l-0.4-1.7l-1.7,0.4L53.3,31.2z M42.3,45.2l1.7-0.4l-0.4-1.7l-1.7,0.4   L42.3,45.2z M52.1,24.8l1.7-0.4l-0.4-1.7l-1.7,0.4L52.1,24.8z M46.2,33.2l4.8-1.2l-1.2-4.8L45,28.4L46.2,33.2z M40.5,32.2l1.7-0.4   l-0.4-1.7l-1.7,0.4L40.5,32.2z M52.6,35.1l2-0.5l-0.5-2l-2,0.5L52.6,35.1z M52,39.2l1.7-0.4l-0.4-1.7l-1.7,0.4L52,39.2z M48.9,44.9   l2.8-0.7L51,41.4l-2.8,0.7L48.9,44.9z M56,25.5l4-0.9l-1-4l-4,0.9L56,25.5z M38.9,49.7l2.8-0.7L41,46.3L38.2,47L38.9,49.7z    M33.4,45.5l4.8-1.2l-1.2-4.8l-4.8,1.2L33.4,45.5z M30.6,51.4l3.7-0.9l-0.9-3.7l-3.7,0.9L30.6,51.4z M35.2,49l1.6-0.4L36.4,47   l-1.6,0.4L35.2,49z M43.3,39.3l2.9-0.7l-0.7-2.9l-2.9,0.7L43.3,39.3z M45.3,27l2.9-0.7l-0.7-2.9l-2.9,0.7L45.3,27z M40.1,42.6   l2.3-0.6l-0.5-2.3l-2.3,0.6L40.1,42.6z M37.5,38.7l3.7-0.9l-0.9-3.7L36.6,35L37.5,38.7z M33.7,34.4l2.9-0.7l-0.7-2.9L33,31.5   L33.7,34.4z M49,36.7l1.6-0.4l-0.4-1.6l-1.6,0.4L49,36.7z M50.3,21.1l-1.7,0.4l0.4,1.7l1.7-0.4L50.3,21.1z" />
	<g
   id="g148">
		<path
   id="path146"
   class="st3"
   d="M13,49.7c0.4,0.2,0.7,0.4,1.1,0.5L32,45.9l-1.4-6l5.4-1.3l-0.7-3l-2.2,0.5    c-1.6,1.9-3.7,3.4-6.3,4c-4.2,1-8.4-0.4-11.2-3.3l-9.5,7.3c0,0,0,0,0,0L3,46.5l1.4,6l8.8-2.1L13,49.7z" />
	</g>
</g>

<path
   id="path140_2_"
   class="st1"
   d="M1.7,21.4l1.8-0.4l15.6-3.8l0,0l-1.3-5.3l4.8-1.1l-1.2-5.2c-0.1,0-0.2,0-0.3,0  c-0.8,0.1-1.7,0.3-2.5,0.5C10.4,7.9,4.2,13.9,1.7,21.4L1.7,21.4z" />
</svg>
