<?xml version="1.0" encoding="UTF-8" standalone="no"?>
<!-- Generator: Adobe Illustrator 24.0.1, SVG Export Plug-In . SVG Version: 6.00 Build 0)  -->

<svg
   version="1.1"
   id="Layer_1"
   inkscape:version="1.2 (dc2aedaf03, 2022-05-15)"
   sodipodi:docname="logo_iso.svg"
   x="0px"
   y="0px"
   viewBox="0 0 64.015718 64.015718"
   xml:space="preserve"
   width="63"
   height="63"
   inkscape:export-filename="../icon.png"
   inkscape:export-xdpi="780.19049"
   inkscape:export-ydpi="780.19049"
   xmlns:inkscape="http://www.inkscape.org/namespaces/inkscape"
   xmlns:sodipodi="http://sodipodi.sourceforge.net/DTD/sodipodi-0.dtd"
   xmlns="http://www.w3.org/2000/svg"
   xmlns:svg="http://www.w3.org/2000/svg"><defs
   id="defs31" />
<style
   type="text/css"
   id="style2">
	.st0{fill:#06304C;}
	.st1{fill-rule:evenodd;clip-rule:evenodd;fill:#235470;}
	.st2{fill-rule:evenodd;clip-rule:evenodd;fill:#3F7B90;}
	.st3{fill-rule:evenodd;clip-rule:evenodd;fill:#F3B232;}
	.st4{fill-rule:evenodd;clip-rule:evenodd;fill:#F4DD47;}
</style>
<sodipodi:namedview
   bordercolor="#666666"
   borderopacity="1.0"
   fit-margin-bottom="0.5"
   fit-margin-left="0.5"
   fit-margin-right="0.5"
   fit-margin-top="0.5"
   id="namedview161"
   inkscape:current-layer="Layer_1"
   inkscape:cx="23.591112"
   inkscape:cy="30.067104"
   inkscape:pagecheckerboard="0"
   inkscape:pageopacity="0.0"
   inkscape:pageshadow="2"
   inkscape:window-height="971"
   inkscape:window-maximized="0"
   inkscape:window-width="1904"
   inkscape:window-x="8"
   inkscape:window-y="64"
   inkscape:zoom="8.6473244"
   pagecolor="#ffffff"
   showgrid="false"
   inkscape:showpageshadow="2"
   inkscape:deskcolor="#d1d1d1">
	</sodipodi:namedview>






<g
   id="g9126"
   transform="translate(0.995359,2.523483)"><g
     id="g8384"><g
       id="g156"
       transform="translate(-0.475,-0.5)">
	<path
   id="path146_1_"
   class="st4"
   d="m 4.3921875,52.468752 8.8000005,-2.1 2.1,9.1 H 5.9921875 Z" />
	<path
   id="path154"
   class="st4"
   d="M 29.167203,51.717121 C 23.972663,52.94054 18.469565,52.265332 14.060146,50.18518 l 13.984988,-3.363053 v 0 z" />
</g><g
       id="g30"
       transform="translate(-9.787326,-80.48)">
	
	<g
   id="g28">
		
		
		
	</g>
</g><path
       id="path134"
       class="st1"
       d="m 32.325,5.9 -1.7,0.4 0.4,1.7 1.7,-0.4 z m -7.2,9 3,-0.7 -0.7,-2.8 1.6,-0.4 -0.5,-2.2 -2.2,0.5 0.5,2.1 -2.3,0.6 z m -2.6,-3.8 -3.4,0.8 0.8,3.4 3.4,-0.8 z m 8.9,2.5 3.9,-0.9 -0.9,-3.9 -3.9,0.9 z m 6,-2 4.8,-1.1 -1.1,-4.7 -4.8,1.1 z m 7.7,-11.6 -3,0.7 0.7,3 3,-0.7 z m 5.2,3.3 -2.9,0.7 0.7,2.9 2.9,-0.7 z m -27.2,5.4 3.3,-0.8 -0.8,-3.3 -3.3,0.8 z" /><path
       id="path138"
       class="st2"
       d="m 41.425,12.5 -2.9,0.7 0.7,2.9 2.9,-0.7 z m 4.1,-1.4 -1.7,0.4 0.4,1.7 1.7,-0.4 z m 0.1,7.6 -2.9,0.7 0.7,2.9 2.9,-0.7 z m -15.2,-4 -1.7,0.4 0.4,1.7 1.7,-0.4 z m 6.5,0 -3.4,0.8 0.8,3.5 3.5,-0.8 z m 9,-7 -1.7,0.4 0.4,1.7 1.7,-0.4 z m -2.7,8.4 -1.5,0.4 0.3,1.4 1.5,-0.3 z m 10.2,-4 -3.3,0.8 0.8,3.3 3.3,-0.8 z m 7.7,-0.7 -4,0.9 1,3.9 3.9,-0.9 z" /><path
       id="path140"
       class="st2"
       d="m 42.425,26.3 -1.3,-5.4 -4,1 -0.6,-2.5 -3,0.7 -0.8,-3.5 -4.4,1.1 -0.6,-2.7 -4.2,1 -0.1,-0.5 -22.2,5.4 c -1.4,4.1 -1.6,8.5 -0.6,13 0.1,0.5 0.3,1.1 0.4,1.6 l 11.3,-4.1 c 0,-0.1 -0.1,-0.2 -0.1,-0.3 -1.5,-6.2 2.3,-12.5 8.5,-14 6.2,-1.5 12.5,2.3 14,8.6 0.3,1.2 0.4,2.5 0.3,3.7 l 3.6,-0.9 -0.3,-1.2 z" /><g
       id="g150"
       transform="translate(-0.475,-0.5)">
	<path
   id="path144"
   class="st3"
   d="m 53.3,31.2 1.7,-0.4 -0.4,-1.7 -1.7,0.4 z m -11,14 1.7,-0.4 -0.4,-1.7 -1.7,0.4 z m 9.8,-20.4 1.7,-0.4 -0.4,-1.7 -1.7,0.4 z M 46.2,33.2 51,32 49.8,27.2 45,28.4 Z m -5.7,-1 1.7,-0.4 -0.4,-1.7 -1.7,0.4 z m 12.1,2.9 2,-0.5 -0.5,-2 -2,0.5 z m -0.6,4.1 1.7,-0.4 -0.4,-1.7 -1.7,0.4 z m -3.1,5.7 2.8,-0.7 -0.7,-2.8 -2.8,0.7 z m 7.1,-19.4 4,-0.9 -1,-4 -4,0.9 z M 38.9,49.7 41.7,49 41,46.3 38.2,47 Z m -5.5,-4.2 4.8,-1.2 -1.2,-4.8 -4.8,1.2 z m -2.8,5.9 3.7,-0.9 -0.9,-3.7 -3.7,0.9 z M 35.2,49 36.8,48.6 36.4,47 34.8,47.4 Z m 8.1,-9.7 2.9,-0.7 -0.7,-2.9 -2.9,0.7 z m 2,-12.3 2.9,-0.7 -0.7,-2.9 -2.9,0.7 z m -5.2,15.6 2.3,-0.6 -0.5,-2.3 -2.3,0.6 z m -2.6,-3.9 3.7,-0.9 -0.9,-3.7 -3.7,0.9 z m -3.8,-4.3 2.9,-0.7 -0.7,-2.9 -2.9,0.7 z m 15.3,2.3 1.6,-0.4 -0.4,-1.6 -1.6,0.4 z m 1.3,-15.6 -1.7,0.4 0.4,1.7 1.7,-0.4 z" />
	<g
   id="g148">
		<path
   id="path146"
   class="st3"
   d="m 13,49.7 c 0.4,0.2 0.7,0.4 1.1,0.5 l 17.9,-4.3 -1.4,-6 5.4,-1.3 -0.7,-3 -2.2,0.5 c -1.6,1.9 -3.7,3.4 -6.3,4 -4.2,1 -8.4,-0.4 -11.2,-3.3 l -9.5,7.3 c 0,0 0,0 0,0 l -3.1,2.4 1.4,6 8.8,-2.1 z" />
	</g>
</g><path
       id="path140_2_"
       class="st1"
       d="m 1.225,20.9 1.8,-0.4 15.6,-3.8 v 0 l -1.3,-5.3 4.8,-1.1 -1.2,-5.2 c -0.1,0 -0.2,0 -0.3,0 -0.8,0.1 -1.7,0.3 -2.5,0.5 -8.2,1.8 -14.4,7.8 -16.9,15.3 z" /></g></g>
</svg>
