<?xml version="1.0" encoding="UTF-8" standalone="no"?>
<!-- Generator: Adobe Illustrator 24.0.1, SVG Export Plug-In . SVG Version: 6.00 Build 0)  -->

<svg
   version="1.1"
   id="Layer_1"
   x="0px"
   y="0px"
   viewBox="0 0 63 62.999999"
   xml:space="preserve"
   sodipodi:docname="logo_iso.svg"
   inkscape:version="1.1.2 (0a00cf5339, 2022-02-04)"
   width="63"
   height="63"
   inkscape:export-filename="/home/miltondp/projects/pivlab/pivlab.org/images/icon.png"
   inkscape:export-xdpi="780.19"
   inkscape:export-ydpi="780.19"
   xmlns:inkscape="http://www.inkscape.org/namespaces/inkscape"
   xmlns:sodipodi="http://sodipodi.sourceforge.net/DTD/sodipodi-0.dtd"
   xmlns="http://www.w3.org/2000/svg"
   xmlns:svg="http://www.w3.org/2000/svg"><defs
   id="defs163" /><sodipodi:namedview
   id="namedview161"
   pagecolor="#ffffff"
   bordercolor="#666666"
   borderopacity="1.0"
   inkscape:pageshadow="2"
   inkscape:pageopacity="0.0"
   inkscape:pagecheckerboard="0"
   showgrid="false"
   fit-margin-left="0.5"
   fit-margin-top="0.5"
   fit-margin-bottom="0.5"
   fit-margin-right="0.5"
   inkscape:zoom="5.6568543"
   inkscape:cx="80.433396"
   inkscape:cy="73.715881"
   inkscape:window-width="1908"
   inkscape:window-height="1491"
   inkscape:window-x="8"
   inkscape:window-y="64"
   inkscape:window-maximized="0"
   inkscape:current-layer="Layer_1" />
<style
   type="text/css"
   id="style2">
	.st0{fill:#06304C;}
	.st1{fill-rule:evenodd;clip-rule:evenodd;fill:#235470;}
	.st2{fill-rule:evenodd;clip-rule:evenodd;fill:#3F7B90;}
	.st3{fill-rule:evenodd;clip-rule:evenodd;fill:#F3B232;}
	.st4{fill-rule:evenodd;clip-rule:evenodd;fill:#F4DD47;}
	.st5{font-family:'Bariol-Light';}
	.st6{font-size:20.698px;}
	.st7{font-family:'Bariol-Regular';}
</style>
<g
   id="g30"
   transform="translate(-9.312326,-79.98)">
	
	
</g>




<g
   id="g158"
   transform="translate(-3.3261629,-78.506094)">
	<g
   id="g136">
		<path
   class="st1"
   d="m 5.03,101.36 17.4,-4.19 -1.28,-5.3 4.75,-1.14 -1.24,-5.23 c -0.1,-0.01 -0.21,-0.02 -0.31,-0.02 -0.83,0.11 -1.66,0.26 -2.49,0.46 -8.18,1.97 -14.33,7.99 -16.83,15.42"
   id="path132" />
		<path
   class="st1"
   d="m 36.12,86.42 -1.69,0.41 0.41,1.69 1.69,-0.41 z m -7.23,9 2.96,-0.71 -0.68,-2.82 1.57,-0.38 -0.53,-2.2 -2.2,0.53 0.5,2.06 -2.33,0.56 z m -2.62,-3.86 -3.38,0.82 0.82,3.38 3.38,-0.82 z m 8.96,2.5 3.9,-0.94 -0.94,-3.9 -3.9,0.94 z m 5.94,-2.01 4.75,-1.14 -1.14,-4.74 -4.75,1.14 z m 7.75,-11.57 -2.98,0.72 0.72,2.98 2.98,-0.72 z m 5.21,3.28 -2.89,0.69 0.69,2.89 2.89,-0.69 z m -27.25,5.42 3.34,-0.8 -0.8,-3.34 -3.34,0.8 z"
   id="path134" />
	</g>
	<g
   id="g142">
		<path
   class="st2"
   d="m 45.23,92.95 -2.91,0.7 0.7,2.91 2.91,-0.7 z m 4.11,-1.39 -1.69,0.41 0.41,1.69 1.69,-0.41 z m 0.05,7.59 -2.91,0.7 0.7,2.91 2.91,-0.7 z m -15.15,-3.96 -1.69,0.41 0.41,1.69 1.69,-0.41 z m 6.52,-0.03 -3.47,0.83 0.83,3.47 3.47,-0.83 z m 8.98,-6.97 -1.69,0.41 0.41,1.69 1.69,-0.41 z m -2.73,8.44 -1.45,0.35 0.35,1.45 1.45,-0.35 z m 10.23,-4.08 -3.26,0.78 0.78,3.26 3.26,-0.78 z m 7.65,-0.64 -3.95,0.95 0.95,3.95 3.95,-0.95 z"
   id="path138" />
		<path
   class="st2"
   d="m 46.2,106.74 -1.3,-5.43 -4,0.96 -0.58,-2.4 -2.99,0.72 -0.84,-3.49 -4.36,1.05 -0.64,-2.68 -4.21,1.01 -0.11,-0.46 -22.14,5.33 c -1.36,4.05 -1.63,8.51 -0.56,12.97 0.13,0.54 0.28,1.07 0.44,1.59 l 11.28,-4.06 c -0.03,-0.11 -0.06,-0.22 -0.09,-0.33 -1.49,-6.22 2.33,-12.47 8.55,-13.96 6.22,-1.49 12.47,2.33 13.96,8.55 0.3,1.24 0.38,2.47 0.28,3.67 l 3.61,-0.86 -0.3,-1.23 z"
   id="path140" />
	</g>
	<g
   id="g150">
		<path
   class="st3"
   d="m 56.63,111.23 1.65,-0.4 -0.4,-1.65 -1.65,0.4 z m -11,13.96 1.65,-0.4 -0.4,-1.65 -1.65,0.4 z m 9.81,-20.42 1.65,-0.4 -0.4,-1.65 -1.65,0.4 z m -5.94,8.42 4.8,-1.15 -1.15,-4.81 -4.8,1.15 z m -5.66,-0.97 1.65,-0.4 -0.4,-1.65 -1.65,0.4 z m 12.06,2.88 2.02,-0.49 -0.49,-2.02 -2.02,0.49 z m -0.57,4.08 1.65,-0.4 -0.4,-1.65 -1.65,0.4 z m -3.11,5.66 2.77,-0.67 -0.67,-2.77 -2.77,0.67 z m 7.1,-19.32 3.97,-0.95 -0.96,-3.97 -3.97,0.95 z m -17.11,24.2 2.77,-0.67 -0.67,-2.77 -2.77,0.67 z m -5.46,-4.27 4.8,-1.15 -1.15,-4.81 -4.8,1.15 z m -2.85,5.97 3.71,-0.89 -0.89,-3.71 -3.71,0.89 z m 4.57,-2.44 1.58,-0.38 -0.38,-1.58 -1.58,0.38 z m 8.17,-9.72 2.87,-0.69 -0.69,-2.87 -2.87,0.69 z m 1.96,-12.32 2.87,-0.69 -0.69,-2.87 -2.87,0.69 z m -5.2,15.65 2.3,-0.55 -0.55,-2.3 -2.3,0.55 z m -2.63,-3.86 3.71,-0.89 -0.89,-3.71 -3.71,0.89 z m -3.77,-4.34 2.87,-0.69 -0.69,-2.87 -2.87,0.69 z m 15.29,2.27 1.58,-0.38 -0.38,-1.58 -1.58,0.38 z m 1.33,-15.57 -1.72,0.41 0.41,1.72 1.72,-0.41 z"
   id="path144" />
		<g
   id="g148">
			<path
   class="st3"
   d="m 16.32,129.63 c 0.36,0.19 0.74,0.36 1.12,0.53 l 17.92,-4.3 -1.43,-5.96 5.42,-1.3 -0.73,-3.03 -2.25,0.54 c -1.55,1.92 -3.72,3.36 -6.3,3.98 -4.2,1.01 -8.41,-0.41 -11.16,-3.35 l -9.52,7.33 c 0.01,0.01 0.01,0.01 0.02,0.02 l -3.13,2.43 1.41,6.01 8.8,-2.12 z"
   id="path146" />
		</g>
	</g>
	<g
   id="g156">
		<polygon
   class="st4"
   points="16.49,130.41 18.64,139.54 9.31,139.44 7.69,132.53 "
   id="polygon152"
   transform="translate(-0.00390625,-0.0078125)" />
		<path
   class="st4"
   d="m 32.583436,131.78827 c -5.2,1.18 -10.66,0.47 -15.15,-1.63 l 13.97,-3.35 v 0 z"
   id="path154" />
	</g>
</g>
</svg>
