<?xml version="1.0" encoding="UTF-8" standalone="no"?>
<!-- Generator: Adobe Illustrator 24.0.1, SVG Export Plug-In . SVG Version: 6.00 Build 0)  -->

<svg
   version="1.1"
   id="Layer_1"
   x="0px"
   y="0px"
   viewBox="0 0 155 77.499998"
   xml:space="preserve"
   sodipodi:docname="share.svg"
   inkscape:version="1.2 (dc2aedaf03, 2022-05-15)"
   width="155"
   height="77.5"
   inkscape:export-filename="../share.pdf"
   inkscape:export-xdpi="619.34998"
   inkscape:export-ydpi="619.34998"
   xmlns:inkscape="http://www.inkscape.org/namespaces/inkscape"
   xmlns:sodipodi="http://sodipodi.sourceforge.net/DTD/sodipodi-0.dtd"
   xmlns="http://www.w3.org/2000/svg"
   xmlns:svg="http://www.w3.org/2000/svg"><defs
   id="defs163">
	
	
	
	

		
		
	</defs><sodipodi:namedview
   id="namedview161"
   pagecolor="#ffffff"
   bordercolor="#666666"
   borderopacity="1.0"
   inkscape:pageshadow="2"
   inkscape:pageopacity="0.0"
   inkscape:pagecheckerboard="0"
   showgrid="false"
   fit-margin-left="0.5"
   fit-margin-top="0.5"
   fit-margin-bottom="0.5"
   fit-margin-right="0.5"
   inkscape:zoom="5.6568545"
   inkscape:cx="73.008772"
   inkscape:cy="44.370949"
   inkscape:window-width="1904"
   inkscape:window-height="971"
   inkscape:window-x="8"
   inkscape:window-y="64"
   inkscape:window-maximized="0"
   inkscape:current-layer="Layer_1"
   inkscape:showpageshadow="2"
   inkscape:deskcolor="#d1d1d1" />
<style
   type="text/css"
   id="style2">
	.st0{fill:#06304C;}
	.st1{fill-rule:evenodd;clip-rule:evenodd;fill:#235470;}
	.st2{fill-rule:evenodd;clip-rule:evenodd;fill:#3F7B90;}
	.st3{fill-rule:evenodd;clip-rule:evenodd;fill:#F3B232;}
	.st4{fill-rule:evenodd;clip-rule:evenodd;fill:#F4DD47;}
	.st5{font-family:'Bariol-Light';}
	.st6{font-size:20.698px;}
	.st7{font-family:'Bariol-Regular';}
</style>






<g
   id="g603"
   transform="translate(-21.848498,-56.886188)"><g
     id="g156"
     transform="translate(23.667161,65.651812)">
	<path
   id="path146_1_"
   class="st4"
   d="m 4.3921875,52.468752 8.8000005,-2.1 2.1,9.1 H 5.9921875 Z"
   style="clip-rule:evenodd;fill:#f4dd47;fill-rule:evenodd" />
	<path
   id="path154"
   class="st4"
   d="M 29.167203,51.717121 C 23.972663,52.94054 18.469565,52.265332 14.060146,50.18518 l 13.984988,-3.363053 v 0 z"
   style="clip-rule:evenodd;fill:#f4dd47;fill-rule:evenodd" />
</g><g
     id="g30"
     transform="translate(14.354835,-14.328188)">
	<g
   id="g20">
		<path
   id="path4"
   class="st0"
   d="m 84.2,102.5 h -7 v 8 c 0,0.5 -0.4,0.9 -0.9,0.9 -0.5,0 -0.9,-0.4 -0.9,-0.9 V 92.3 c 0,-0.5 0.4,-0.9 0.9,-0.9 h 7.9 c 3.9,0 6.1,2.4 6.1,5.5 0,3.2 -2.2,5.6 -6.1,5.6 z M 84.5,93 h -7.4 v 7.9 h 7.4 c 2.5,0 3.9,-1.7 3.9,-3.9 0,-2.2 -1.4,-4 -3.9,-4 z"
   style="fill:#06304c" />
		<path
   id="path6"
   class="st0"
   d="m 93.7,93.3 c 0.6,0 1.1,0.5 1.1,1.1 0,0.6 -0.5,1.1 -1.1,1.1 -0.6,0 -1.1,-0.5 -1.1,-1.1 0,-0.6 0.5,-1.1 1.1,-1.1 z m 0,18.1 c -0.5,0 -0.9,-0.4 -0.9,-0.9 V 99 c 0,-0.5 0.4,-0.9 0.9,-0.9 0.5,0 0.9,0.4 0.9,0.9 v 11.6 c 0,0.4 -0.4,0.8 -0.9,0.8 z"
   style="fill:#06304c" />
		<path
   id="path8"
   class="st0"
   d="m 102.7,108.7 4.4,-10.1 c 0.1,-0.4 0.4,-0.5 0.8,-0.5 0.5,0 0.8,0.4 0.8,0.8 0,0.1 -0.1,0.3 -0.1,0.4 l -5.2,11.6 c -0.1,0.3 -0.3,0.5 -0.7,0.5 -0.4,0 -0.6,-0.2 -0.7,-0.5 L 96.8,99.3 c -0.1,-0.1 -0.1,-0.3 -0.1,-0.4 0,-0.4 0.3,-0.8 0.8,-0.8 0.4,0 0.6,0.2 0.8,0.5 z"
   style="fill:#06304c" />
		<path
   id="path10"
   class="st0"
   d="m 111.7,93.3 c 0.6,0 1.1,0.5 1.1,1.1 0,0.6 -0.5,1.1 -1.1,1.1 -0.6,0 -1.1,-0.5 -1.1,-1.1 0,-0.6 0.5,-1.1 1.1,-1.1 z m 0,18.1 c -0.5,0 -0.9,-0.4 -0.9,-0.9 V 99 c 0,-0.5 0.4,-0.9 0.9,-0.9 0.5,0 0.9,0.4 0.9,0.9 v 11.6 c 0,0.4 -0.4,0.8 -0.9,0.8 z"
   style="fill:#06304c" />
		<path
   id="path12"
   class="st0"
   d="m 127.6,108.8 c -1.1,1.7 -2.9,2.7 -5.3,2.7 -3.6,0 -6.5,-2.8 -6.5,-6.8 0,-3.9 2.9,-6.8 6.5,-6.8 2.4,0 4.2,1 5.3,2.7 V 92 c 0,-0.5 0.4,-0.9 0.9,-0.9 0.5,0 0.9,0.4 0.9,0.9 v 18.5 c 0,0.5 -0.4,0.9 -0.9,0.9 -0.5,0 -0.9,-0.4 -0.9,-0.9 0,0 0,-1.7 0,-1.7 z m -5.1,1.2 c 3.1,0 5,-2.4 5,-5.3 0,-2.9 -2,-5.3 -5,-5.3 -3,0 -5,2.2 -5,5.3 0,3.1 2.1,5.3 5,5.3 z"
   style="fill:#06304c" />
		<path
   id="path14"
   class="st0"
   d="m 139.3,111.5 c -4,0 -6.8,-3 -6.8,-6.8 0,-3.8 2.8,-6.8 6.8,-6.8 4,0 6.8,3 6.8,6.8 0,3.8 -2.8,6.8 -6.8,6.8 z m 0,-12 c -2.8,0 -5,2.2 -5,5.3 0,3 2.2,5.3 5,5.3 2.8,0 5,-2.2 5,-5.3 0,-3.1 -2.2,-5.3 -5,-5.3 z"
   style="fill:#06304c" />
		<path
   id="path16"
   class="st0"
   d="m 155.3,99.6 c -2.6,0 -4.3,2.4 -4.3,5.8 v 5.1 c 0,0.5 -0.4,0.9 -0.9,0.9 -0.5,0 -0.9,-0.4 -0.9,-0.9 V 99 c 0,-0.5 0.4,-0.9 0.9,-0.9 0.5,0 0.9,0.4 0.9,0.9 v 2.1 c 0.6,-1.7 2.2,-3 4.3,-3 0.5,0 0.9,0.3 0.9,0.8 0,0.5 -0.4,0.7 -0.9,0.7 z"
   style="fill:#06304c" />
		<path
   id="path18"
   class="st0"
   d="m 159.1,93.3 c 0.6,0 1.1,0.5 1.1,1.1 0,0.6 -0.5,1.1 -1.1,1.1 -0.6,0 -1.1,-0.5 -1.1,-1.1 0,-0.6 0.5,-1.1 1.1,-1.1 z m 0,18.1 c -0.5,0 -0.9,-0.4 -0.9,-0.9 V 99 c 0,-0.5 0.4,-0.9 0.9,-0.9 0.5,0 0.9,0.4 0.9,0.9 v 11.6 c 0,0.4 -0.4,0.8 -0.9,0.8 z"
   style="fill:#06304c" />
	</g>
	<g
   id="g28">
		<path
   id="path22"
   class="st0"
   d="m 130.6,131.5 c -1.8,0 -2.7,-0.8 -2.7,-3.2 v -10.8 c 0.3,-0.1 0.6,-0.2 0.9,-0.2 0.3,0 0.4,0.1 0.4,0.3 v 10.5 c 0,1.6 0.5,2.2 1.5,2.2 h 5.1 c 0.3,0 0.4,0.1 0.4,0.5 v 0.7 z"
   style="fill:#06304c" />
		<path
   id="path24"
   class="st0"
   d="m 147.8,130.6 c 0,0.1 0.1,0.3 0.1,0.5 0,0.3 -0.4,0.6 -1,0.6 -0.8,0 -1.4,-0.7 -1.5,-1.8 -0.8,1.2 -2.1,1.9 -3.8,1.9 -2.2,0 -3.7,-1.4 -3.7,-3.4 0,-2.2 1.7,-3.5 4.2,-3.5 1.1,0 2.3,0.3 3.3,0.7 v -1.1 c 0,-1.9 -1.3,-2.8 -3.4,-2.8 -1.1,0 -2.2,0.2 -3,0.7 -0.1,-0.1 -0.2,-0.4 -0.2,-0.6 0,-0.5 1.5,-1.2 3.5,-1.2 2.6,0 4.4,1.4 4.4,4.1 v 4.7 c 0,0.8 0.3,1.1 0.8,1.1 z m -2.4,-2.2 v -1.7 c -0.8,-0.4 -2.1,-0.6 -3.2,-0.6 -1.9,0 -3,0.9 -3,2.3 0,1.5 1.2,2.3 2.5,2.3 1.4,-0.1 2.8,-0.8 3.7,-2.3 z"
   style="fill:#06304c" />
		<path
   id="path26"
   class="st0"
   d="m 160.1,125.7 c 0,3.3 -2.2,6 -5.3,6 -2.8,0 -4.5,-1.9 -4.5,-4.9 v -10 c 0.3,-0.1 0.6,-0.1 0.9,-0.1 0.3,0 0.4,0.1 0.4,0.3 v 5.4 c 1,-1.2 2.4,-1.9 4,-1.9 2.5,0.1 4.5,2 4.5,5.2 z m -8.5,-1.8 v 3 c 0,2.5 1.5,3.7 3.3,3.7 2.2,0 4,-2.1 4,-4.8 0,-2.7 -1.5,-4.1 -3.4,-4.1 -1.5,0 -3,0.8 -3.9,2.2 z"
   style="fill:#06304c" />
	</g>
</g><path
     id="path134"
     class="st1"
     d="m 56.467161,72.051812 -1.7,0.4 0.4,1.7 1.7,-0.4 z m -7.2,9 3,-0.7 -0.7,-2.8 1.6,-0.4 -0.5,-2.2 -2.2,0.5 0.5,2.1 -2.3,0.6 z m -2.6,-3.8 -3.4,0.8 0.8,3.4 3.4,-0.8 z m 8.9,2.5 3.9,-0.9 -0.9,-3.9 -3.9,0.9 z m 6,-2 4.8,-1.1 -1.1,-4.7 -4.8,1.1 z m 7.7,-11.6 -3,0.7 0.7,3 3,-0.7 z m 5.2,3.3 -2.9,0.7 0.7,2.9 2.9,-0.7 z m -27.2,5.4 3.3,-0.8 -0.8,-3.3 -3.3,0.8 z"
     style="clip-rule:evenodd;fill:#235470;fill-rule:evenodd" /><path
     id="path138"
     class="st2"
     d="m 65.567161,78.651812 -2.9,0.7 0.7,2.9 2.9,-0.7 z m 4.1,-1.4 -1.7,0.4 0.4,1.7 1.7,-0.4 z m 0.1,7.6 -2.9,0.7 0.7,2.9 2.9,-0.7 z m -15.2,-4 -1.7,0.4 0.4,1.7 1.7,-0.4 z m 6.5,0 -3.4,0.8 0.8,3.5 3.5,-0.8 z m 9,-7 -1.7,0.4 0.4,1.7 1.7,-0.4 z m -2.7,8.4 -1.5,0.4 0.3,1.4 1.5,-0.3 z m 10.2,-4 -3.3,0.8 0.8,3.3 3.3,-0.8 z m 7.7,-0.7 -4,0.9 1,3.9 3.9,-0.9 z"
     style="clip-rule:evenodd;fill:#3f7b90;fill-rule:evenodd" /><path
     id="path140"
     class="st2"
     d="m 66.567161,92.451812 -1.3,-5.4 -4,1 -0.6,-2.5 -3,0.7 -0.8,-3.5 -4.4,1.1 -0.6,-2.7 -4.2,1 -0.1,-0.5 -22.2,5.4 c -1.4,4.1 -1.6,8.5 -0.6,12.999998 0.1,0.5 0.3,1.1 0.4,1.6 l 11.3,-4.099998 c 0,-0.1 -0.1,-0.2 -0.1,-0.3 -1.5,-6.2 2.3,-12.5 8.5,-14 6.2,-1.5 12.5,2.3 14,8.6 0.3,1.2 0.4,2.5 0.3,3.7 l 3.6,-0.9 -0.3,-1.2 z"
     style="clip-rule:evenodd;fill:#3f7b90;fill-rule:evenodd" /><g
     id="g150"
     transform="translate(23.667161,65.651812)">
	<path
   id="path144"
   class="st3"
   d="m 53.3,31.2 1.7,-0.4 -0.4,-1.7 -1.7,0.4 z m -11,14 1.7,-0.4 -0.4,-1.7 -1.7,0.4 z m 9.8,-20.4 1.7,-0.4 -0.4,-1.7 -1.7,0.4 z M 46.2,33.2 51,32 49.8,27.2 45,28.4 Z m -5.7,-1 1.7,-0.4 -0.4,-1.7 -1.7,0.4 z m 12.1,2.9 2,-0.5 -0.5,-2 -2,0.5 z m -0.6,4.1 1.7,-0.4 -0.4,-1.7 -1.7,0.4 z m -3.1,5.7 2.8,-0.7 -0.7,-2.8 -2.8,0.7 z m 7.1,-19.4 4,-0.9 -1,-4 -4,0.9 z M 38.9,49.7 41.7,49 41,46.3 38.2,47 Z m -5.5,-4.2 4.8,-1.2 -1.2,-4.8 -4.8,1.2 z m -2.8,5.9 3.7,-0.9 -0.9,-3.7 -3.7,0.9 z M 35.2,49 36.8,48.6 36.4,47 34.8,47.4 Z m 8.1,-9.7 2.9,-0.7 -0.7,-2.9 -2.9,0.7 z m 2,-12.3 2.9,-0.7 -0.7,-2.9 -2.9,0.7 z m -5.2,15.6 2.3,-0.6 -0.5,-2.3 -2.3,0.6 z m -2.6,-3.9 3.7,-0.9 -0.9,-3.7 -3.7,0.9 z m -3.8,-4.3 2.9,-0.7 -0.7,-2.9 -2.9,0.7 z m 15.3,2.3 1.6,-0.4 -0.4,-1.6 -1.6,0.4 z m 1.3,-15.6 -1.7,0.4 0.4,1.7 1.7,-0.4 z"
   style="clip-rule:evenodd;fill:#f3b232;fill-rule:evenodd" />
	<g
   id="g148">
		<path
   id="path146"
   class="st3"
   d="m 13,49.7 c 0.4,0.2 0.7,0.4 1.1,0.5 l 17.9,-4.3 -1.4,-6 5.4,-1.3 -0.7,-3 -2.2,0.5 c -1.6,1.9 -3.7,3.4 -6.3,4 -4.2,1 -8.4,-0.4 -11.2,-3.3 l -9.5,7.3 c 0,0 0,0 0,0 l -3.1,2.4 1.4,6 8.8,-2.1 z"
   style="clip-rule:evenodd;fill:#f3b232;fill-rule:evenodd" />
	</g>
</g><path
     id="path140_2_"
     class="st1"
     d="m 25.367161,87.051812 1.8,-0.4 15.6,-3.8 v 0 l -1.3,-5.3 4.8,-1.1 -1.2,-5.2 c -0.1,0 -0.2,0 -0.3,0 -0.8,0.1 -1.7,0.3 -2.5,0.5 -8.2,1.8 -14.4,7.8 -16.9,15.3 z"
     style="clip-rule:evenodd;fill:#235470;fill-rule:evenodd" /></g></svg>
