<svg
  xmlns="http://www.w3.org/2000/svg"
  viewBox="-64 -64 128 128"
  id="fish"
  class="pin"
>
  <g class="drop">
    <path
      fill="#2196f3"
      transform="scale(0.25) translate(-192,-256)"
      d="M172.268 501.67C26.97 291.031 0 269.413 0 192 0 85.961 85.961 0 192 0s192 85.961 192 192c0 77.413-26.97 99.031-172.268 309.67-9.535 13.774-29.93 13.773-39.464 0z"
    />
    <path
      fill="#ffffff"
      transform="translate(0,-20) scale(0.1) translate(-288,-256)"
      d="M327.1 96c-89.97 0-168.54 54.77-212.27 101.63L27.5 131.58c-12.13-9.18-30.24.6-27.14 14.66L24.54 256 .35 365.77c-3.1 14.06 15.01 23.83 27.14 14.66l87.33-66.05C158.55 361.23 237.13 416 327.1 416 464.56 416 576 288 576 256S464.56 96 327.1 96zm87.43 184c-13.25 0-24-10.75-24-24 0-13.26 10.75-24 24-24 13.26 0 24 10.74 24 24 0 13.25-10.75 24-24 24z"
    />
  </g>
</svg>
