<?xml version="1.0" encoding="UTF-8" standalone="no"?>
<svg
   xmlns:dc="http://purl.org/dc/elements/1.1/"
   xmlns:cc="http://creativecommons.org/ns#"
   xmlns:rdf="http://www.w3.org/1999/02/22-rdf-syntax-ns#"
   xmlns:svg="http://www.w3.org/2000/svg"
   xmlns="http://www.w3.org/2000/svg"
   id="svg3883"
   xml:space="preserve"
   style="enable-background:new 0 0 100 100;"
   viewBox="0 0 100 100"
   y="0px"
   x="0px"
   version="1.1"
   fill="white"
   width="100px"
   height="100px"><metadata
     id="metadata3889"><rdf:RDF><cc:Work
         rdf:about=""><dc:format>image/svg+xml</dc:format><dc:type
           rdf:resource="http://purl.org/dc/dcmitype/StillImage" /><dc:title></dc:title></cc:Work></rdf:RDF></metadata><defs
     id="defs3887" />

<path
     id="path3881"
     d="M94.9,36.6c-0.8-3.6-3.6-6-8-6.7c0.7-3.4,0.1-6.4-1.9-8.7C81,16.7,73,15.8,64.3,18.9c-2.2-7.8-8-13.9-13.9-14.4  c-3.7-0.4-6.8,1.6-8.9,5.6c-3.6-2.1-7.5-2.2-10.7-0.2c-4.9,3-7.5,10-6.8,18.2c-7.9-0.3-15.4,3.3-17.8,8.5C4.7,40,5.6,43.6,8.7,46.9  c-2.7,2.5-4,5.6-3.6,8.9c0.7,6.2,6.8,11.3,15.4,13.3c-2.8,7.6-1.6,15.9,2.8,19.8c2.8,2.5,6.5,2.7,10.4,0.7c1.4,3.1,3.7,5.2,6.7,5.9  c0.8,0.2,1.5,0.3,2.3,0.3c5.3,0,11.2-3.9,15.7-10.5c6.3,5,14.7,6.5,19.7,3.5c3.2-1.9,4.6-5.3,3.9-9.7c3.4-0.4,6.1-1.9,7.6-4.5  c3.1-5.1,1.4-13-4.3-20.3C92.1,49.8,96.2,42.4,94.9,36.6z M84.4,53.1c-0.6-0.8-1.2-1.6-1.6-2.3l5.1-0.5  C86.9,51.3,85.7,52.3,84.4,53.1z M89.5,48.6l-7.4,0.8c-0.4-0.8-0.6-1.6-0.7-2.5L91.9,45C91.2,46.3,90.4,47.5,89.5,48.6z M92.7,43.4  l-11.4,2c0-0.9,0.1-1.8,0.4-2.8l12-3.3C93.6,40.6,93.2,42,92.7,43.4z M93.4,36.9c0.1,0.3,0.1,0.5,0.1,0.8l-11.5,3.2  c0.4-1.1,0.9-2.2,1.5-3.5L92,34C92.7,34.8,93.2,35.8,93.4,36.9z M90.7,32.9l-6,2.4c0.1-0.1,0.1-0.2,0.2-0.3c0.7-1.2,1.2-2.5,1.6-3.7  C88.2,31.6,89.6,32.1,90.7,32.9z M85.4,29.7c-0.8-0.1-1.6-0.1-2.5-0.2c-0.5,0-1-0.1-1.5-0.1l4.1-3.9C85.7,26.8,85.7,28.2,85.4,29.7z   M83.8,22.2c0.5,0.5,0.8,1.1,1.1,1.8l-5.6,5.3c-1.1-0.1-2.3-0.3-3.4-0.5l6.6-7.7C83,21.3,83.4,21.7,83.8,22.2z M81.3,20.2l-7,8.2  c-1-0.2-2-0.6-3-0.9l6.6-8.5C79.2,19.2,80.3,19.6,81.3,20.2z M76.2,18.6l-6.3,8.1c-0.9-0.5-1.6-1-2.3-1.6l4.4-6.5  C73.5,18.5,74.9,18.5,76.2,18.6z M70,18.9L66.5,24c-0.8-1-1.4-2.2-1.9-3.7C66.5,19.7,68.3,19.2,70,18.9z M61.3,15.2  c0.7,1.3,1.2,2.7,1.6,4.2c-0.9,0.3-1.8,0.6-2.7,0.8L61.3,15.2z M60.2,13.3l-1.5,7.2c-0.9,0.1-1.8,0.1-2.6-0.1l1.5-10.5  C58.5,10.9,59.4,12,60.2,13.3z M52.5,6.5c1.2,0.5,2.5,1.2,3.6,2.2l-1.6,11.4c-0.8-0.3-1.7-0.7-2.6-1.2L52.5,6.5z M50.3,5.9  C50.5,6,50.8,6,51,6l-0.5,11.8c-0.9-0.7-1.9-1.5-2.9-2.5l-0.6-9C48,6,49.1,5.8,50.3,5.9z M45.6,7.3l0.4,6.4  c-0.1-0.1-0.1-0.2-0.2-0.2c-1-1.1-2-1.9-3-2.7C43.6,9.3,44.5,8.1,45.6,7.3z M40.9,11.4c-0.3,0.7-0.6,1.5-1,2.3  c-0.2,0.5-0.4,1-0.6,1.5l-2.5-5.2C38.2,10.1,39.6,10.6,40.9,11.4z M31.6,11.1c1.1-0.7,2.3-1.1,3.6-1.2l3.4,7c-0.5,1-1,2.1-1.5,3.1  L31.6,11.1C31.6,11.1,31.6,11.1,31.6,11.1z M30.4,12l5.8,9.5c-0.6,0.9-1.2,1.7-1.8,2.5l-6.3-9.2C28.7,13.7,29.5,12.8,30.4,12z   M27.3,16.3l6,8.9c-0.7,0.7-1.5,1.2-2.3,1.7L26,20.3C26.3,18.9,26.7,17.5,27.3,16.3z M25.6,22.3l4,5.2c-1.2,0.5-2.6,0.7-4,0.6  C25.4,26.1,25.4,24.2,25.6,22.3z M24.1,29.6c0,1-0.1,1.9-0.2,2.8l-4.3-2.5C21.1,29.6,22.6,29.5,24.1,29.6z M17.4,30.3l6.3,3.6  c-0.2,0.9-0.5,1.7-0.9,2.5l-9.4-4.6C14.6,31.1,16,30.6,17.4,30.3z M11.8,32.6l10.2,5c-0.5,0.7-1.1,1.4-1.9,2.1L8.7,35.5  C9.5,34.4,10.5,33.5,11.8,32.6z M7.6,37.2c0.1-0.1,0.1-0.3,0.2-0.4l11,4.1c-0.9,0.7-2,1.3-3.2,2l-8.5-2.1  C6.9,39.5,7.1,38.3,7.6,37.2z M7.5,42.4l6,1.5c-0.1,0-0.2,0.1-0.2,0.1c-1.3,0.6-2.4,1.3-3.4,2C8.7,44.8,7.9,43.6,7.5,42.4z M9.8,48  c0.4,0.4,0.9,0.7,1.3,1.1c0.6,0.5,1.2,1,1.9,1.6l-5.8,0.8C7.7,50.2,8.6,49,9.8,48z M6.5,55.7c-0.1-0.9-0.1-1.8,0.1-2.7l7.8-1  c0.8,0.8,1.7,1.5,2.5,2.4L6.7,56.8C6.6,56.4,6.6,56.1,6.5,55.7z M7.2,58.2l10.9-2.6c0.7,0.8,1.3,1.6,1.8,2.5L9.1,61.3  C8.3,60.3,7.6,59.3,7.2,58.2z M10.3,62.5l10.3-3c0.4,0.9,0.7,1.8,0.9,2.7L13.7,65l0,0C12.4,64.3,11.3,63.4,10.3,62.5z M15.5,65.9  l6.1-2.2c0,1.3-0.2,2.6-0.7,4C19.1,67.3,17.3,66.7,15.5,65.9z M21.9,69.6c0.9,0.3,1.8,0.7,2.6,1l-3.7,3.3C21,72.5,21.3,71,21.9,69.6  z M20.5,76.2l5.4-4.8c0.8,0.5,1.5,1,2.1,1.6l-7.3,7.5C20.5,79.1,20.4,77.6,20.5,76.2z M22.7,86.1c-0.7-1.1-1.3-2.4-1.7-3.9l7.9-8.1  c0.5,0.7,1,1.5,1.4,2.4L22.7,86.1z M27.1,89.4c-1.1-0.2-2-0.7-2.9-1.5c-0.2-0.2-0.4-0.3-0.5-0.5l7.3-9.2c0.3,1.1,0.6,2.3,0.9,3.7  L27.1,89.4z M28.8,89.5l3.4-5.4c0,0.1,0,0.2,0,0.3c0.2,1.4,0.4,2.7,0.8,3.9C31.6,89.1,30.1,89.5,28.8,89.5z M37.4,92.5  c-1-0.9-1.8-2.1-2.5-3.5c0.7-0.4,1.4-0.8,2.1-1.3c0.4-0.3,0.9-0.6,1.4-0.8L37.4,92.5z M42.3,94.4c-0.6,0-1.2-0.1-1.7-0.2  c-0.7-0.2-1.3-0.4-1.9-0.7l1.4-7.6c1-0.6,2-1.1,3-1.6L42.3,94.4z M47.3,93.3c-1.2,0.5-2.3,0.9-3.5,1l0.9-10.8c1-0.4,2-0.7,3-1  L47.3,93.3z M48.9,92.5l0.3-10.2c1-0.1,1.9-0.2,2.9,0l0.2,7.8C51.1,91,50,91.8,48.9,92.5z M53.7,88.6l-0.2-6.1  c1.2,0.3,2.4,0.9,3.6,1.9C56.1,86,54.9,87.4,53.7,88.6z M58,83.1c-7.3-5.6-16-0.3-21.7,3.3c-0.7,0.4-1.3,0.8-1.9,1.1  c-0.3-1-0.5-2.1-0.7-3.3c-1.2-10.5-4.5-13.6-11.3-16c3.3-9-4.9-15.8-10.4-20.2c-0.4-0.3-0.7-0.6-1.1-0.9c0.9-0.6,1.8-1.2,2.9-1.7  c9.6-4.4,11.6-8.5,11.8-15.7c9.3,0.4,13.1-9.1,15.7-15.4c0.3-0.7,0.6-1.4,0.8-2c0.8,0.6,1.7,1.4,2.5,2.3c6.7,7.3,11.3,8.9,18.6,6.4  C65.8,29.7,76,30.5,82.8,31c0.8,0.1,1.5,0.1,2.2,0.2c-0.3,1-0.8,2-1.4,3.1c-4.9,8.7-5,13.6-0.4,19.7c-7.5,5.2-5.1,15.1-3.5,21.7  c0.2,0.7,0.3,1.4,0.5,2.1c-1.1,0-2.2-0.1-3.4-0.4C67,75.4,62.3,76.8,58,83.1z M59.2,84.1c0.6-0.8,1.1-1.6,1.7-2.2l2.1,4.7  C61.6,85.8,60.3,85,59.2,84.1z M65,87.4l-3-6.8c0.7-0.6,1.4-1.1,2.2-1.5l5,9.4C67.8,88.4,66.4,88,65,87.4z M70.9,88.8l-5.4-10.2  c0.8-0.3,1.7-0.4,2.8-0.5l6.8,10.4C73.9,88.8,72.4,88.9,70.9,88.8z M77.3,87.5c-0.2,0.1-0.5,0.3-0.7,0.4L70.1,78  c1.1,0,2.4,0.1,3.8,0.3l5.8,6.9C79.1,86.2,78.3,86.9,77.3,87.5z M80.3,83.7l-4.2-5c0.1,0,0.2,0,0.3,0.1c1.4,0.3,2.7,0.4,4,0.4  C80.7,80.9,80.7,82.4,80.3,83.7z M81.7,77.7c-0.2-0.7-0.4-1.5-0.6-2.4c-0.1-0.5-0.3-1-0.4-1.6l5,2.7C84.6,77.1,83.2,77.5,81.7,77.7z   M88.3,73.9C88,74.5,87.5,75,87,75.5l-6.7-3.7c-0.2-1.1-0.4-2.2-0.6-3.4l9.3,3.9C88.9,72.8,88.6,73.4,88.3,73.9z M89.5,70.8  l-9.9-4.1c-0.1-1.1-0.1-2.1,0-3.1l10,3.6C89.7,68.5,89.7,69.7,89.5,70.8z M89.3,65.5l-9.6-3.4c0.2-1,0.4-1.9,0.8-2.7l7.4,2.2  C88.6,62.9,89,64.2,89.3,65.5z M81.3,58c0.7-1.1,1.6-2,2.8-2.9c1.2,1.5,2.2,3,3,4.6L81.3,58z" >
        <animateTransform attributeName="transform"
             type="scale"
             additive="sum" 
             from="0 0.2"
             to="1 1"
             begin="0s"
             dur="2s"
             fill="freeze"
        />
</path>

<path
     style="stroke-width:0.49495456"
     id="path3763"
     d="M 69.214689,30.457627 H 33.564972 C 31.596157,30.457627 30,32.188306 30,34.323051 V 62.66949 c 0,2.134746 1.596157,3.865424 3.564972,3.865424 h 11.883239 v 2.576949 h -4.753296 c -0.65643,0 -1.188324,0.576722 -1.188324,1.288475 v 5.153898 c 0,0.711754 0.531894,1.288475 1.188324,1.288475 h 21.389832 c 0.656429,0 1.188323,-0.576721 1.188323,-1.288475 v -5.153898 c 0,-0.711753 -0.531894,-1.288475 -1.188323,-1.288475 H 57.33145 v -2.576949 h 11.883239 c 1.968817,0 3.564972,-1.730678 3.564972,-3.865424 V 34.323051 c 0,-2.134745 -1.596155,-3.865424 -3.564972,-3.865424 z m -8.318267,41.231186 v 1.288474 H 41.883239 v -1.288474 z m -13.071563,-2.57695 v -2.576949 h 7.129943 v 2.576949 z M 69.214689,62.66949 H 33.564972 V 34.323051 h 35.649717 z" /><path
     style="stroke-width:0.49495456"
     id="path3765"
     d="M 66.838041,36.9 H 35.94162 V 60.092542 H 66.838041 Z M 38.318267,57.515593 V 39.476949 h 6.030982 c -0.05656,0.425196 -0.08936,0.855031 -0.08936,1.288475 0,2.753212 1.063788,5.253368 2.781629,6.907254 0.728205,-0.553529 1.539117,-0.979757 2.40897,-1.267344 -0.688751,-0.433442 -1.279112,-1.042118 -1.73923,-1.774487 h 5.79997 c 0.627911,-0.669491 1.091832,-1.568331 1.307632,-2.576949 h -8.071096 c -0.07035,-0.417466 -0.111227,-0.847816 -0.111227,-1.288474 0,-0.43602 0.04516,-0.866371 0.124536,-1.288475 h 9.257044 c 0.07985,0.422104 0.125012,0.852455 0.125012,1.288475 0,2.957306 -1.652246,5.500755 -4.017011,6.184677 l -2.084795,0.602491 c -3.403836,0.984395 -5.781434,4.551407 -5.781434,8.674526 0,0.433443 0.0328,0.863278 0.08936,1.288475 z m 26.143127,0 h -6.030982 c 0.05656,-0.425197 0.08936,-0.855032 0.08936,-1.288475 0,-2.753212 -1.063788,-5.253368 -2.781629,-6.907254 -0.728205,0.553528 -1.539117,0.979756 -2.40897,1.267344 0.688753,0.433442 1.279112,1.042118 1.739231,1.774486 H 49.26891 c -0.62791,0.669492 -1.091832,1.568331 -1.307632,2.57695 h 8.071096 c 0.06987,0.417465 0.110752,0.847816 0.110752,1.288474 0,0.43602 -0.04516,0.86637 -0.124537,1.288475 h -9.257518 c -0.07938,-0.422105 -0.124536,-0.852455 -0.124536,-1.288475 0,-2.957307 1.652245,-5.500756 4.01701,-6.184678 l 2.084797,-0.60249 c 3.403834,-0.984395 5.781432,-4.551408 5.781432,-8.674526 0,-0.433444 -0.0328,-0.863279 -0.08936,-1.288475 h 6.030982 z" /></svg>
