<?xml version="1.0" encoding="UTF-8" standalone="no"?>
<svg
   xmlns:dc="http://purl.org/dc/elements/1.1/"
   xmlns:cc="http://creativecommons.org/ns#"
   xmlns:rdf="http://www.w3.org/1999/02/22-rdf-syntax-ns#"
   xmlns:svg="http://www.w3.org/2000/svg"
   xmlns="http://www.w3.org/2000/svg"
   xmlns:sodipodi="http://sodipodi.sourceforge.net/DTD/sodipodi-0.dtd"
   xmlns:inkscape="http://www.inkscape.org/namespaces/inkscape"
   id="svg3883"
   xml:space="preserve"
   style="enable-background:new 0 0 100 100;"
   viewBox="0 0 100 100"
   y="0px"
   x="0px"
   version="1.1"
   fill="#0059B3"
   width="200px"
   height="200px"
   sodipodi:docname="animated_logo.svg"
   inkscape:version="0.92.3 (2405546, 2018-03-11)"><sodipodi:namedview
   pagecolor="#ffffff"
   bordercolor="#666666"
   borderopacity="1"
   objecttolerance="10"
   gridtolerance="10"
   guidetolerance="10"
   inkscape:pageopacity="0"
   inkscape:pageshadow="2"
   inkscape:window-width="1853"
   inkscape:window-height="1025"
   id="namedview62"
   showgrid="true"
   showguides="false"
   inkscape:zoom="4.22"
   inkscape:cx="65.995261"
   inkscape:cy="100"
   inkscape:window-x="1987"
   inkscape:window-y="27"
   inkscape:window-maximized="1"
   inkscape:current-layer="svg3883"><inkscape:grid
     type="xygrid"
     id="grid64" /></sodipodi:namedview><metadata
   id="metadata3889"><rdf:RDF><cc:Work
       rdf:about=""><dc:format>image/svg+xml</dc:format><dc:type
         rdf:resource="http://purl.org/dc/dcmitype/StillImage" /><dc:title /></cc:Work></rdf:RDF></metadata><defs
   id="defs3887" />
<path
   id="path3881"
   d="M 95.238408,36.306446 C 94.435396,32.688595 91.624852,30.276694 87.208284,29.573223 87.91092,26.156364 87.308661,23.141488 85.30113,20.830083 81.286068,16.307769 73.255944,15.403306 64.523184,18.518678 62.3149,10.68 56.49306,4.5497521 50.570844,4.0472727 46.856912,3.6452893 43.745239,5.6552066 41.637331,9.6750413 38.023775,7.5646281 34.10909,7.4641322 30.897041,9.4740496 25.97859,12.488926 23.368799,19.523636 24.071435,27.764298 16.141688,27.46281 8.6134469,31.080661 6.2044097,36.306446 c -1.5056482,3.41686 -0.6022593,7.034711 2.5094137,10.351075 -2.7101668,2.512396 -4.0150619,5.627768 -3.6135557,8.944132 0.7026358,6.230744 6.8256053,11.356033 15.4579883,13.36595 -2.810543,7.637686 -1.606025,15.978843 2.810543,19.898182 2.810544,2.512397 6.524476,2.713389 10.439161,0.703471 1.405272,3.115372 3.713933,5.225785 6.725229,5.929256 C 41.336202,95.699504 42.038837,95.8 42.84185,95.8 c 5.319957,0 11.242173,-3.919339 15.759118,-10.552066 6.323722,5.024793 14.755352,6.532231 19.77418,3.517355 3.212049,-1.909421 4.617321,-5.326281 3.914685,-9.748099 3.412803,-0.401983 6.12297,-1.909421 7.628618,-4.522314 3.111673,-5.125289 1.405272,-13.064463 -4.316192,-20.400661 6.825606,-4.522314 10.941044,-11.959008 9.636149,-17.787769 z M 84.69887,52.888264 C 84.096611,52.084298 83.494352,51.280331 83.092846,50.57686 l 5.119204,-0.50248 c -1.003766,1.004959 -2.208285,2.009918 -3.51318,2.813884 z M 89.818074,48.36595 82.39021,49.169917 C 81.988704,48.36595 81.78795,47.561983 81.687574,46.657521 l 10.539537,-1.909422 c -0.702635,1.306446 -1.505648,2.512397 -2.409037,3.617851 z m 3.21205,-5.225785 -11.442927,2.009918 c 0,-0.904463 0.100377,-1.808926 0.401507,-2.813885 l 12.045185,-3.316363 c -0.100376,1.306446 -0.501882,2.713388 -1.003765,4.12033 z m 0.702636,-6.532231 c 0.100376,0.301487 0.100376,0.502479 0.100376,0.803967 l -11.543303,3.215868 c 0.401506,-1.105455 0.903389,-2.210909 1.505648,-3.517356 l 8.532007,-3.416859 c 0.702636,0.803967 1.204519,1.808925 1.405272,2.91438 z M 91.022593,32.588099 85,35 c 0.100377,-0.100496 0.100377,-0.200992 0.200753,-0.301488 0.702636,-1.20595 1.204519,-2.512396 1.606025,-3.718347 1.706401,0.301488 3.111673,0.803967 4.215815,1.607934 z m -5.319957,-3.215868 c -0.803013,-0.100495 -1.606025,-0.100495 -2.509414,-0.200991 -0.501883,0 -1.003765,-0.100496 -1.505648,-0.100496 l 4.115438,-3.919339 c 0.200753,1.306446 0.200753,2.713388 -0.100376,4.220826 z m -1.606025,-7.53719 c 0.501883,0.50248 0.803012,1.105455 1.104142,1.808926 l -5.621087,5.326281 c -1.104142,-0.100496 -2.30866,-0.301488 -3.412802,-0.502479 l 6.624852,-7.738182 c 0.501883,0.200992 0.903389,0.602975 1.304895,1.105454 z m -2.509414,-2.009917 -7.026358,8.240661 C 73.557074,27.864793 72.553308,27.46281 71.549543,27.161322 l 6.624852,-8.542148 c 1.304895,0.200991 2.409037,0.602975 3.412802,1.20595 z M 76.467993,18.21719 70.144271,26.357355 C 69.240882,25.854876 68.538246,25.352397 67.83561,24.749421 l 4.416568,-6.532231 c 1.505649,-0.100496 2.91092,-0.100496 4.215815,0 z m -6.223346,0.301488 -3.513179,5.125289 c -0.803012,-1.004959 -1.405271,-2.210909 -1.907154,-3.718347 1.907154,-0.602975 3.713932,-1.105455 5.420333,-1.406942 z m -8.732759,-3.718347 c 0.702636,1.306446 1.204518,2.713388 1.606025,4.220826 -0.903389,0.301488 -1.806778,0.602975 -2.710167,0.803967 z m -1.104142,-1.909422 -1.505649,7.235703 c -0.903388,0.100495 -1.806777,0.100495 -2.60979,-0.100496 L 57.797955,9.4740496 c 0.903389,1.0049584 1.806778,2.1104134 2.609791,3.4168594 z M 52.678751,6.0571901 c 1.204519,0.5024793 2.509414,1.2059504 3.613556,2.2109091 L 54.686282,19.724628 C 53.88327,19.42314 52.979881,19.021157 52.076492,18.518678 Z M 50.470467,5.4542149 c 0.200754,0.1004958 0.501883,0.1004958 0.702636,0.1004958 L 50.671221,17.413223 c -0.903389,-0.703471 -1.907155,-1.507438 -2.91092,-2.512397 L 47.158041,5.8561983 C 48.161807,5.5547107 49.265949,5.353719 50.470467,5.4542149 Z M 45.75277,6.861157 46.154276,13.292893 C 46.053899,13.192397 46.053899,13.091901 45.953523,13.091901 44.949757,11.986446 43.945992,11.182479 42.942226,10.378512 43.745239,8.8710744 44.648628,7.665124 45.75277,6.861157 Z m -4.717698,4.120331 c -0.30113,0.703471 -0.602259,1.507438 -1.003766,2.311405 -0.200753,0.502479 -0.401506,1.004958 -0.602259,1.507438 L 36.919633,9.5745455 c 1.405272,0.1004958 2.810544,0.6029755 4.115439,1.4069425 z M 31.700053,10.68 c 1.104142,-0.7034711 2.308661,-1.1054545 3.613556,-1.2059504 l 3.412802,7.0347104 c -0.501882,1.004959 -1.003765,2.110414 -1.505648,3.115372 L 31.700053,10.68 c 0,0 0,0 0,0 z m -1.204519,0.904463 5.82184,9.547107 c -0.602259,0.904463 -1.204518,1.70843 -1.806778,2.512397 l -6.323722,-9.24562 c 0.602259,-1.105454 1.405271,-2.009917 2.30866,-2.813884 z m -3.111673,4.321322 6.022593,8.944132 c -0.702636,0.703471 -1.505648,1.205951 -2.30866,1.70843 L 26.078966,19.92562 c 0.30113,-1.406942 0.702636,-2.813884 1.304895,-4.019835 z m -1.706401,6.029752 4.015062,5.225785 c -1.204519,0.50248 -2.60979,0.703471 -4.015062,0.602976 -0.200753,-2.009918 -0.200753,-3.919339 0,-5.828761 z m -1.505648,7.336199 c 0,1.004958 -0.100377,1.909421 -0.200753,2.813884 l -4.316192,-2.512397 c 1.505648,-0.301487 3.011297,-0.401983 4.516945,-0.301487 z m -6.725229,0.703471 6.323723,3.617851 c -0.200753,0.904463 -0.501883,1.70843 -0.903389,2.512397 l -9.435396,-4.62281 c 1.204519,-0.703471 2.60979,-1.205951 4.015062,-1.507438 z m -5.621087,2.311405 10.238408,5.024793 c -0.501882,0.703471 -1.104142,1.406942 -1.907154,2.110413 L 8.7138234,35.200992 c 0.8030124,-1.105455 1.8067776,-2.009918 3.1116726,-2.91438 z m -4.2158146,4.622809 c 0.1003765,-0.100495 0.1003765,-0.301487 0.2007531,-0.401983 l 11.0414205,4.120331 c -0.903389,0.703471 -2.007531,1.306446 -3.21205,2.009917 L 7.1077986,40.527273 c -0.2007531,-1.306447 0,-2.512397 0.5018828,-3.617852 z m -0.1003766,5.225786 6.0225932,1.507438 c -0.100377,0 -0.200753,0.100495 -0.200753,0.100495 -1.304896,0.602976 -2.409038,1.306447 -3.412803,2.009918 C 8.7138234,44.547107 7.910811,43.341157 7.5093048,42.135207 Z m 2.3086606,5.627768 c 0.4015066,0.401984 0.9033886,0.703471 1.3048956,1.105455 0.602259,0.502479 1.204518,1.004958 1.907154,1.607934 L 7.2081752,51.280331 C 7.7100579,49.973884 8.6134469,48.767934 9.8179654,47.762975 Z M 6.5055393,55.501157 C 6.4051628,54.596694 6.4051628,53.692231 6.6059159,52.787769 L 14.435287,51.78281 c 0.803012,0.803967 1.706401,1.507438 2.509413,2.411901 L 6.7062924,56.606612 C 6.6059159,56.204628 6.6059159,55.90314 6.5055393,55.501157 Z m 0.7026359,2.512397 10.9410438,-2.612893 c 0.702636,0.803967 1.304895,1.607934 1.806778,2.512397 L 9.1153296,61.128926 C 8.3123172,60.123967 7.6096814,59.119008 7.2081752,58.013554 Z M 10.319848,62.334876 20.658633,59.32 c 0.401506,0.904463 0.702635,1.808926 0.903389,2.713388 l -7.829371,2.813885 v 0 c -1.304895,-0.703471 -2.409037,-1.607934 -3.412803,-2.512397 z m 5.219581,3.41686 6.122969,-2.21091 c 0,1.306447 -0.200753,2.612893 -0.702636,4.019835 -1.806778,-0.401983 -3.613555,-1.004959 -5.420333,-1.808925 z m 6.424099,3.718347 c 0.903389,0.301487 1.806778,0.703471 2.60979,1.004958 l -3.713932,3.316364 c 0.200753,-1.406942 0.501882,-2.91438 1.104142,-4.321322 z m -1.405272,6.632727 5.420334,-4.823802 c 0.803012,0.50248 1.505648,1.004959 2.107907,1.607934 l -7.327488,7.53719 C 20.558256,79.01719 20.45788,77.509752 20.558256,76.10281 Z m 2.208284,9.949091 C 22.063904,84.946446 21.461645,83.64 21.060139,82.132562 l 7.929747,-8.140165 c 0.501883,0.703471 1.003766,1.507438 1.405272,2.411901 z m 4.416568,3.316363 c -1.104142,-0.200991 -2.007531,-0.703471 -2.91092,-1.507438 -0.200753,-0.200991 -0.401506,-0.301487 -0.501882,-0.502479 l 7.327488,-9.24562 c 0.301129,1.105455 0.602259,2.311405 0.903389,3.718347 z m 1.706402,0.100496 3.412802,-5.426777 c 0,0.100496 0,0.200992 0,0.301488 0.200753,1.406942 0.401506,2.713389 0.803013,3.919339 -1.405272,0.803967 -2.91092,1.20595 -4.215815,1.20595 z m 8.632383,3.014876 c -1.003766,-0.904462 -1.806778,-2.110413 -2.509414,-3.517355 0.702636,-0.401983 1.405272,-0.803967 2.107908,-1.306446 0.401506,-0.301488 0.903388,-0.602975 1.405271,-0.803967 z m 4.918451,1.909422 c -0.60226,0 -1.204519,-0.100496 -1.706402,-0.200992 -0.702636,-0.200992 -1.304895,-0.401983 -1.907154,-0.703471 l 1.405272,-7.637686 c 1.003765,-0.602975 2.00753,-1.105454 3.011296,-1.607934 z m 5.018827,-1.105455 c -1.204519,0.50248 -2.308661,0.904463 -3.513179,1.004959 l 0.903389,-10.853554 c 1.003765,-0.401983 2.007531,-0.703471 3.011296,-1.004958 z m 1.606025,-0.803967 0.301129,-10.250578 c 1.003766,-0.100496 1.907155,-0.200992 2.91092,0 l 0.200753,7.838678 c -1.204518,0.904462 -2.30866,1.708429 -3.412802,2.4119 z M 53.88327,88.564298 53.682517,82.43405 c 1.204519,0.301487 2.409037,0.904462 3.613556,1.909421 -1.003766,1.607934 -2.208284,3.014876 -3.412803,4.220827 z m 4.316192,-5.527273 C 50.871974,77.409256 42.139214,82.735537 36.417751,86.353388 35.715115,86.755372 35.112856,87.157355 34.510596,87.458843 34.209467,86.453884 34.008714,85.34843 33.80796,84.142479 32.603442,73.590413 29.291016,70.475041 22.46541,68.06314 25.777837,59.018512 17.54696,52.184793 12.026249,47.762975 11.624743,47.461488 11.323614,47.16 10.922107,46.858512 c 0.903389,-0.602975 1.806778,-1.20595 2.91092,-1.708429 9.636149,-4.421819 11.64368,-8.542149 11.844433,-15.777852 9.335019,0.401984 13.149328,-9.145124 15.759118,-15.476363 0.30113,-0.703471 0.602259,-1.406942 0.803012,-2.009918 0.803013,0.602976 1.706402,1.406943 2.509414,2.311405 6.725229,7.336199 11.34255,8.944133 18.670038,6.431736 2.60979,8.74314 12.848198,9.547107 19.673804,10.049587 0.803012,0.100496 1.505648,0.100496 2.208284,0.200991 -0.30113,1.004959 -0.803013,2.009918 -1.405272,3.115372 -4.918451,8.743141 -5.018827,13.667438 -0.401506,19.797686 -7.528241,5.225785 -5.119204,15.174876 -3.513179,21.807604 0.200753,0.703471 0.301129,1.406942 0.501882,2.110413 -1.104142,0 -2.208284,-0.100496 -3.412802,-0.401984 -9.836902,-2.009917 -14.5546,-0.602975 -18.870791,5.728265 z m 1.204518,1.004958 c 0.60226,-0.803966 1.104142,-1.607933 1.706402,-2.210909 l 2.107907,4.723306 C 61.813017,85.750413 60.508122,84.946446 59.40398,84.041983 Z m 5.82184,3.316364 -3.011296,-6.833719 c 0.702635,-0.602975 1.405271,-1.105454 2.208284,-1.507438 l 5.018827,9.446612 c -1.405272,-0.100496 -2.810543,-0.50248 -4.215815,-1.105455 z m 5.922216,1.406942 -5.420333,-10.250578 c 0.803012,-0.301488 1.706401,-0.401984 2.810543,-0.50248 l 6.825605,10.451571 c -1.204518,0.301487 -2.710166,0.401983 -4.215815,0.301487 z m 6.424099,-1.306446 c -0.200753,0.100496 -0.501882,0.301488 -0.702635,0.401983 l -6.524476,-9.94909 c 1.104142,0 2.409037,0.100495 3.814309,0.301487 l 5.82184,6.934215 c -0.60226,1.004959 -1.405272,1.70843 -2.409038,2.311405 z M 80.583432,83.64 76.367617,78.615207 c 0.100376,0 0.200753,0 0.30113,0.100495 1.405271,0.301488 2.710166,0.401984 4.015061,0.401984 0.30113,1.70843 0.30113,3.215868 -0.100376,4.522314 z m 1.405272,-6.029752 C 81.78795,76.906777 81.587197,76.10281 81.386444,75.198347 81.286068,74.695868 81.085315,74.193388 80.984938,73.590413 l 5.018827,2.713389 c -1.104142,0.703471 -2.509413,1.105454 -4.015061,1.306446 z m 6.624852,-3.818843 c -0.30113,0.602975 -0.803013,1.105455 -1.304895,1.607934 l -6.725229,-3.718347 c -0.200753,-1.105455 -0.401506,-2.210909 -0.602259,-3.41686 l 9.335019,3.919339 c -0.100377,0.502479 -0.401507,1.105455 -0.702636,1.607934 z m 1.204518,-3.115372 -9.937278,-4.120331 c -0.100377,-1.105454 -0.100377,-2.110413 0,-3.115371 l 10.037655,3.617851 c 0.100376,1.306446 0.100376,2.512397 -0.100377,3.617851 z m -0.200753,-5.326281 -9.636148,-3.416859 c 0.200753,-1.004959 0.401506,-1.909422 0.803012,-2.713389 l 7.427865,2.210909 c 0.702635,1.306447 1.104142,2.612893 1.405271,3.919339 z m -8.030124,-7.53719 c 0.702636,-1.105455 1.606025,-2.009917 2.810544,-2.91438 1.204518,1.507438 2.208284,3.014876 3.011296,4.62281 z"
   inkscape:connector-curvature="0"
   style="stroke-width:1.00436187" >
        <animateTransform attributeName="transform"
            type="rotate"
            from="0 50 50"
            to="360 50 50"
            begin="0s"
            dur="10s"
            repeatCount="indefinite"       
 />

  </path>
</svg>
