<svg id="Layer_1" data-name="Layer 1" xmlns="http://www.w3.org/2000/svg" viewBox="0 0 84.52 62.28"><defs><style>.cls-1{font-size:12px;fill:#231f20;stroke:#020202;stroke-width:0.25px;font-family:Ubuntu;letter-spacing:0.06em;}.cls-1,.cls-4,.cls-5,.cls-8{stroke-miterlimit:10;}.cls-2{letter-spacing:0.02em;}.cls-3{letter-spacing:0.04em;}.cls-4{fill:#a1d8cd;}.cls-4,.cls-5,.cls-8{stroke:#0eaf9a;}.cls-5{fill:#95d1f2;}.cls-6,.cls-8{fill:#0eaf9a;}.cls-7{fill:#fdfefe;}</style></defs><text class="cls-1" transform="translate(0.13 59.89)">Clonal<tspan class="cls-2" x="38.83" y="0">T</tspan><tspan x="45.9" y="0">rac</tspan><tspan class="cls-3" x="64.68" y="0">k</tspan><tspan x="71.4" y="0">er</tspan></text><path class="cls-4" d="M52.72,64.41a2.74,2.74,0,0,1-1-3.72A5.59,5.59,0,0,0,53,59.14a5.7,5.7,0,0,0,.68-1.91A2.75,2.75,0,0,1,55.37,56a2.71,2.71,0,0,1,3.06,4,5.76,5.76,0,0,0-1.31,1.55,5.65,5.65,0,0,0-.68,1.91A3.1,3.1,0,0,1,52.72,64.41Z" transform="translate(-12.03 -17.36)"/><path class="cls-5" d="M55.62,59.23" transform="translate(-12.03 -17.36)"/><path class="cls-6" d="M53.05,59.92a18.11,18.11,0,0,1,4,1.61.63.63,0,0,0,.63-1.08,20.42,20.42,0,0,0-4.25-1.74.64.64,0,0,0-.77.44.65.65,0,0,0,.44.77Z" transform="translate(-12.03 -17.36)"/><path class="cls-4" d="M35.88,31a2.74,2.74,0,0,0,1-3.72,5.59,5.59,0,0,1-1.32-1.55,5.7,5.7,0,0,1-.68-1.91,2.75,2.75,0,0,0-1.65-1.26,2.71,2.71,0,0,0-3.06,4,5.76,5.76,0,0,1,1.31,1.55A5.65,5.65,0,0,1,32.16,30,3.09,3.09,0,0,0,35.88,31Z" transform="translate(-12.03 -17.36)"/><path class="cls-5" d="M33,25.78" transform="translate(-12.03 -17.36)"/><path class="cls-6" d="M35.22,25.26A20.42,20.42,0,0,0,31,27a.63.63,0,0,0,.63,1.08,18.11,18.11,0,0,1,3.95-1.61.63.63,0,1,0-.33-1.21Z" transform="translate(-12.03 -17.36)"/><path class="cls-6" d="M28,32.85a24.93,24.93,0,0,0,18.79,28c.78.2,1.12-1,.33-1.2A24,24,0,0,1,29.16,33.18c.11-.79-1.1-1.13-1.21-.33Z" transform="translate(-12.03 -17.36)"/><path class="cls-6" d="M58.67,52.39a24.93,24.93,0,0,0-18.79-28,.62.62,0,0,0-.33,1.2A24,24,0,0,1,57.47,52.06c-.11.79,1.09,1.13,1.2.33Z" transform="translate(-12.03 -17.36)"/><path class="cls-4" d="M70,26.39a2.73,2.73,0,0,0,1-3.72,5.53,5.53,0,0,1-1.31-1.54A5.65,5.65,0,0,1,69,19.22,2.79,2.79,0,0,0,67.32,18a2.72,2.72,0,0,0-3.06,4,5.76,5.76,0,0,1,1.31,1.55,5.49,5.49,0,0,1,.68,1.91A3.1,3.1,0,0,0,70,26.39Z" transform="translate(-12.03 -17.36)"/><path class="cls-5" d="M67.07,21.22" transform="translate(-12.03 -17.36)"/><path class="cls-6" d="M69.31,20.7a20.17,20.17,0,0,0-4.25,1.73.64.64,0,0,0-.22.86.62.62,0,0,0,.85.22,18.11,18.11,0,0,1,4-1.61.62.62,0,1,0-.33-1.2Z" transform="translate(-12.03 -17.36)"/><path class="cls-6" d="M60.29,22.53c-10.72,7.81-15.82,22.59-9.36,34.75.38.71,1.46.08,1.08-.64-6.12-11.5-1.24-25.63,8.91-33,.64-.47,0-1.55-.63-1.08Z" transform="translate(-12.03 -17.36)"/><path class="cls-6" d="M62.26,59.91A24.28,24.28,0,0,0,75.39,47.07a30,30,0,0,0,.5-21.38c-.25-.76-1.46-.43-1.2.33a28.82,28.82,0,0,1-.38,20.41A23,23,0,0,1,61.93,58.7c-.74.3-.42,1.51.33,1.21Z" transform="translate(-12.03 -17.36)"/><path class="cls-7" d="M34.74,48.08a28.58,28.58,0,0,0-6.19,4.81.89.89,0,0,0,0,1.24.88.88,0,0,0,1.23,0,26.79,26.79,0,0,1,5.84-4.54.88.88,0,0,0,.32-1.19.9.9,0,0,0-1.2-.32Z" transform="translate(-12.03 -17.36)"/><path class="cls-7" d="M33.16,52.37c.09-.14.18-.28.28-.41l-.14.18a4.1,4.1,0,0,1,.69-.69l-.17.14a3.87,3.87,0,0,1,.7-.43l-1.31-.76s0,.08,0,.12l0-.23a2.61,2.61,0,0,1-.16.61l.09-.21a2.77,2.77,0,0,1-.34.57l.14-.18a2.4,2.4,0,0,1-.45.45l.18-.14a2.9,2.9,0,0,1-.29.19.94.94,0,0,0-.4.52.88.88,0,0,0,1.29,1A3.39,3.39,0,0,0,35,50.4a.86.86,0,0,0-.44-.75.83.83,0,0,0-.44-.12.86.86,0,0,0-.44.12,4.71,4.71,0,0,0-2,1.84.91.91,0,0,0-.08.67.87.87,0,0,0,1.59.21Z" transform="translate(-12.03 -17.36)"/><path class="cls-7" d="M75.46,37.68a9.91,9.91,0,0,0,3.07-.17l-.47-1.69-.63.12.23,0a7,7,0,0,1-1.83,0l.23,0h0v1.69l2.11-.36a.84.84,0,0,0,.52-.4.92.92,0,0,0,.11-.56.89.89,0,0,0-.86-.76H75.45a.88.88,0,0,0-.87.87.89.89,0,0,0,.87.88h2.44l-.23-1.72-2.12.36a.9.9,0,0,0-.64.84.89.89,0,0,0,.12.45.88.88,0,0,0,.52.4,7.79,7.79,0,0,0,3-.11.88.88,0,0,0,.61-1.08.9.9,0,0,0-1.08-.61c-.21,0-.43.09-.65.12l.24,0a8.92,8.92,0,0,1-2.19,0,.88.88,0,0,0-.62,1.5,1,1,0,0,0,.62.25Z" transform="translate(-12.03 -17.36)"/><path class="cls-7" d="M67.91,54.16a2.16,2.16,0,0,1,.44,0c.15,0,0,0-.07,0l.12,0,.21.05.22.07s.17.07,0,0,0,0,0,0a1.87,1.87,0,0,1,.39.22l.08,0c.08.06-.16-.13,0,0l.18.15.14.15.08.09c.1.11-.09-.13,0,0s.16.24.23.37a1.17,1.17,0,0,0,0,.11c0,.09-.08-.22,0-.06s0,.15.07.23l1.08-1.08-.34-.1-.17-.06.09,0-.09-.05A3.89,3.89,0,0,1,70,54l.08.06L70,54l-.12-.1a3,3,0,0,1-.25-.25l-.1-.11-.06-.08c.08.11.1.13,0,.06l-.19-.3-1,1.28,0,0,.11,0,.15.07.36.18c.22.12.43.24.64.38l.3.2.16.12c.16.12-.15-.12,0,0s.4.34.6.52a.87.87,0,1,0,1.23-1.23,9.33,9.33,0,0,0-3-2,.76.76,0,0,0-.47,0,.84.84,0,0,0-.45.31.88.88,0,0,0-.07,1,4.57,4.57,0,0,0,2.81,2.11.89.89,0,0,0,1.08-1.08,3.76,3.76,0,0,0-3.78-2.67.88.88,0,1,0,0,1.75Z" transform="translate(-12.03 -17.36)"/><polygon class="cls-8" points="20.55 33.26 20.28 30.92 18.39 32.33 20.55 33.26"/><polygon class="cls-8" points="35.31 41.76 34.34 43.91 36.69 43.68 35.31 41.76"/><polygon class="cls-8" points="26.84 7.17 28.15 9.13 29.2 7.02 26.84 7.17"/><polygon class="cls-8" points="54.8 37.89 56.37 39.65 57.11 37.41 54.8 37.89"/><polygon class="cls-8" points="62.38 9.63 64.38 8.38 62.3 7.27 62.38 9.63"/><path class="cls-7" d="M75.23,39a10,10,0,0,0,3.08-.17l-.47-1.69c-.21,0-.42.09-.64.12l.23,0a7.47,7.47,0,0,1-1.83,0l.23,0h0V39l2.12-.36a.87.87,0,0,0,.52-.4.91.91,0,0,0,.1-.56.87.87,0,0,0-.86-.76H75.23a.88.88,0,0,0,0,1.75h2.43l-.23-1.72-2.11.36a.81.81,0,0,0-.46.31.92.92,0,0,0-.19.53,1.07,1.07,0,0,0,.12.44.87.87,0,0,0,.53.41,7.79,7.79,0,0,0,3-.11.89.89,0,0,0,.61-1.08.91.91,0,0,0-1.08-.61c-.22,0-.43.08-.65.11l.23,0a8.91,8.91,0,0,1-2.19,0,.91.91,0,0,0-.62.26.89.89,0,0,0-.25.62.9.9,0,0,0,.25.62,1,1,0,0,0,.62.25Z" transform="translate(-12.03 -17.36)"/><polygon class="cls-8" points="63.49 22.52 65.85 22.52 64.67 20.48 63.49 22.52"/><polygon class="cls-8" points="39.53 40.71 39.91 38.38 37.7 39.22 39.53 40.71"/></svg>