<?xml version="1.0" encoding="UTF-8" standalone="no"?>
<svg
   version="1.0"
   width="296"
   height="337"
   viewBox="0 0 222 252.75"
   preserveAspectRatio="xMidYMid"
   id="svg627"
   sodipodi:docname="IIT-ISM-2.svg"
   inkscape:version="1.2.2 (732a01da63, 2022-12-09)"
   xmlns:inkscape="http://www.inkscape.org/namespaces/inkscape"
   xmlns:sodipodi="http://sodipodi.sourceforge.net/DTD/sodipodi-0.dtd"
   xmlns="http://www.w3.org/2000/svg"
   xmlns:svg="http://www.w3.org/2000/svg">
  <defs
     id="defs631" />
  <sodipodi:namedview
     id="namedview629"
     pagecolor="#ffffff"
     bordercolor="#000000"
     borderopacity="0.25"
     inkscape:showpageshadow="2"
     inkscape:pageopacity="0.0"
     inkscape:pagecheckerboard="0"
     inkscape:deskcolor="#d1d1d1"
     inkscape:document-units="pt"
     showgrid="false"
     showborder="false"
     inkscape:zoom="1.3289991"
     inkscape:cx="255.83163"
     inkscape:cy="168.5479"
     inkscape:window-width="1366"
     inkscape:window-height="705"
     inkscape:window-x="-8"
     inkscape:window-y="-8"
     inkscape:window-maximized="1"
     inkscape:current-layer="svg627" />
  <g
     transform="matrix(0.0221047,0,0,-0.02214378,0.91172771,253.20261)"
     fill="#000000"
     stroke="none"
     id="g625"
     style="fill:#000080">
    <path
       d="m 4833,11313 c -117,-3 -123,-5 -128,-26 -2,-12 -21,-132 -40,-267 -20,-135 -38,-254 -40,-266 -4,-18 -16,-22 -112,-33 -60,-7 -157,-21 -218,-31 -60,-10 -110,-18 -111,-17 -1,1 -54,121 -119,267 -64,146 -118,266 -119,267 -3,4 -581,-169 -589,-177 -5,-4 7,-122 27,-261 19,-140 36,-269 38,-288 3,-33 2,-34 -77,-68 -44,-18 -133,-59 -198,-90 -102,-49 -119,-55 -131,-42 -8,8 -94,109 -192,224 -97,116 -181,209 -184,208 -12,-3 -494,-315 -507,-327 -8,-8 18,-76 108,-274 65,-145 119,-267 119,-271 0,-4 -48,-49 -107,-99 -60,-50 -133,-113 -163,-140 l -56,-50 -249,164 c -238,158 -249,164 -266,147 -35,-35 -389,-448 -389,-453 0,-3 87,-107 194,-231 l 194,-227 -72,-108 c -40,-60 -92,-142 -116,-182 -30,-52 -47,-71 -59,-68 -22,7 -543,166 -557,171 -10,3 -265,-538 -264,-560 1,-5 115,-84 254,-174 l 253,-164 -24,-76 c -23,-76 -61,-207 -83,-290 l -11,-43 -310,3 -309,4 -5,-30 c -22,-129 -84,-579 -81,-583 4,-4 354,-112 541,-167 l 50,-15 v -210 l 1,-210 -36,-10 c -19,-6 -152,-42 -295,-81 -143,-40 -263,-75 -267,-78 -6,-5 61,-526 77,-596 4,-21 11,-21 317,-24 172,-1 316,-6 319,-9 3,-4 20,-59 37,-122 17,-63 43,-148 57,-189 14,-41 25,-75 25,-77 0,-1 -120,-75 -266,-165 -146,-90 -268,-169 -270,-175 -5,-10 229,-540 245,-557 4,-4 146,31 315,78 169,48 309,85 311,83 1,-2 15,-23 30,-48 15,-25 64,-100 108,-168 l 80,-123 -20,-22 c -276,-303 -412,-461 -405,-471 4,-7 94,-114 201,-239 l 194,-226 61,39 c 33,21 159,99 280,174 l 218,136 67,-63 c 37,-35 104,-94 149,-132 45,-37 82,-71 82,-74 0,-4 -33,-74 -73,-156 l -74,-150 -119,-39 c -289,-94 -665,-239 -949,-367 -268,-120 -883,-441 -900,-470 -3,-5 85,-117 195,-250 111,-132 200,-242 198,-243 -1,-2 -101,-56 -220,-120 -120,-65 -218,-122 -218,-126 0,-17 1005,-1055 1020,-1054 17,1 853,530 858,543 2,5 -26,55 -61,112 -35,57 -100,163 -145,236 l -81,131 137,62 c 767,350 1549,555 2427,637 239,22 921,25 1145,5 922,-83 1689,-282 2490,-644 96,-44 176,-81 178,-83 2,-2 -57,-103 -132,-225 -75,-121 -136,-224 -136,-229 0,-10 858,-554 868,-549 4,1 118,118 253,258 134,140 360,376 502,523 141,148 257,272 257,277 0,4 -98,61 -217,125 -120,65 -232,126 -250,137 l -31,19 169,240 c 93,132 167,244 164,249 -9,15 -324,185 -542,293 -373,184 -722,330 -1090,457 l -181,62 -25,57 c -14,31 -45,100 -70,153 l -46,97 72,58 c 40,32 109,90 153,130 l 81,72 272,-174 c 150,-96 276,-175 280,-175 7,0 403,445 409,459 1,4 -92,114 -208,246 -115,132 -210,243 -210,248 0,5 24,44 53,86 30,42 78,114 107,161 29,47 54,86 55,88 2,2 142,-37 311,-87 170,-50 311,-87 315,-83 11,12 261,553 258,557 -2,1 -119,76 -259,165 -140,89 -260,167 -267,172 -8,7 -3,35 23,110 18,55 45,143 60,194 l 27,94 h 318 317 l 6,28 c 11,57 86,550 86,569 0,17 -31,29 -232,87 -128,37 -263,77 -300,88 l -68,20 5,206 c 4,151 8,209 18,214 6,4 131,42 277,83 146,42 274,80 285,84 21,9 21,10 -19,315 l -40,306 h -311 -311 l -23,98 c -13,53 -38,145 -56,204 l -33,108 247,156 c 135,86 251,162 258,168 9,8 -18,78 -113,291 -72,163 -129,280 -136,279 -7,-1 -137,-38 -289,-83 -152,-44 -279,-81 -282,-81 -3,0 -27,37 -53,83 -27,45 -77,126 -112,179 -35,54 -60,103 -56,109 3,6 92,108 196,226 104,118 188,219 186,224 -8,24 -393,469 -403,465 -6,-2 -120,-74 -254,-160 l -243,-156 -67,62 c -36,35 -109,100 -162,146 l -97,83 124,265 c 68,145 124,268 124,272 0,7 -502,342 -513,342 -4,0 -84,-89 -178,-197 -95,-109 -182,-208 -194,-221 l -22,-24 -129,65 c -71,35 -159,77 -196,93 -42,17 -68,34 -68,44 0,8 20,140 43,293 l 43,277 -30,9 c -17,5 -150,45 -295,91 -145,45 -267,78 -271,73 -5,-4 -61,-123 -126,-263 -64,-140 -118,-256 -119,-258 -2,-2 -49,6 -106,17 -57,11 -167,27 -244,37 -77,10 -141,18 -142,19 -1,0 -18,118 -37,260 -20,143 -38,275 -41,293 l -6,32 -187,-2 c -103,-1 -242,-4 -309,-5 z m 463,-313 c 18,-129 35,-258 39,-286 l 6,-52 112,-12 c 62,-6 191,-25 287,-42 96,-16 183,-31 193,-32 13,-1 44,57 137,258 66,143 122,261 123,262 4,4 451,-137 458,-144 4,-4 -12,-133 -36,-287 -24,-154 -40,-283 -37,-286 4,-4 66,-32 137,-64 72,-31 181,-83 244,-116 63,-33 115,-58 116,-57 2,2 87,100 190,218 103,118 190,215 194,215 12,0 401,-258 401,-265 0,-4 -54,-124 -120,-266 -66,-141 -119,-261 -118,-265 2,-4 53,-50 113,-101 61,-52 151,-133 201,-181 l 91,-86 239,152 c 131,84 244,156 251,160 7,5 69,-61 168,-179 l 157,-186 -24,-26 c -14,-15 -91,-103 -173,-197 -81,-93 -159,-182 -173,-197 l -25,-27 90,-138 c 50,-76 114,-180 143,-230 29,-51 57,-93 62,-93 5,0 132,36 282,80 151,44 278,80 283,80 12,0 204,-430 197,-441 -2,-4 -117,-78 -254,-165 -177,-112 -249,-163 -246,-174 2,-8 22,-73 44,-145 21,-71 52,-183 68,-247 l 28,-118 h 308 c 230,0 308,-3 308,-12 0,-6 14,-113 30,-236 17,-124 29,-227 26,-229 -3,-3 -134,-43 -291,-88 -158,-46 -288,-85 -290,-87 -2,-2 -6,-123 -8,-269 l -5,-267 290,-83 c 159,-46 293,-86 298,-89 4,-3 -9,-111 -29,-240 l -36,-235 -316,-3 -315,-2 -34,-123 c -18,-67 -53,-180 -78,-251 -24,-70 -40,-132 -35,-136 4,-4 121,-78 258,-165 138,-87 254,-162 259,-166 4,-4 -38,-106 -94,-227 -101,-216 -104,-220 -129,-212 -14,4 -151,44 -304,89 -152,45 -281,80 -286,77 -4,-3 -25,-33 -46,-68 -53,-87 -172,-265 -206,-309 -16,-20 -29,-42 -29,-48 0,-7 94,-119 210,-251 l 209,-238 -160,-181 c -88,-100 -162,-181 -164,-181 -2,0 -123,77 -269,170 -146,94 -270,170 -276,170 -7,0 -46,-32 -88,-71 -43,-39 -128,-112 -189,-162 -62,-50 -113,-96 -112,-102 0,-5 29,-71 63,-145 35,-74 62,-137 61,-138 -2,-2 -75,17 -162,41 -414,119 -841,211 -1240,268 -90,13 -159,26 -155,30 4,3 43,18 87,34 483,167 1011,522 1367,921 502,560 787,1194 880,1949 20,164 16,624 -6,790 -112,836 -480,1556 -1081,2116 -526,489 -1159,787 -1905,896 -157,23 -707,26 -860,5 -430,-60 -778,-165 -1137,-345 -947,-476 -1627,-1364 -1837,-2399 -51,-254 -60,-352 -61,-683 0,-316 4,-375 46,-615 176,-1009 805,-1891 1716,-2409 154,-87 498,-240 543,-241 39,-1 -20,-18 -85,-24 -327,-33 -944,-156 -1354,-272 -68,-19 -125,-33 -127,-31 -2,2 28,67 66,146 39,79 70,144 70,145 0,2 -48,43 -107,92 -60,49 -144,124 -189,166 -45,43 -86,78 -93,78 -6,0 -131,-74 -278,-165 -146,-91 -270,-164 -274,-163 -5,2 -79,84 -164,183 l -155,179 33,36 c 133,140 398,441 395,447 -1,5 -44,69 -93,143 -50,74 -111,170 -135,212 -25,43 -49,78 -55,78 -5,0 -145,-38 -310,-85 -164,-46 -300,-83 -301,-82 -12,12 -194,433 -191,441 3,6 117,80 253,164 137,84 255,156 263,161 12,8 8,29 -24,128 -21,65 -55,179 -75,253 l -37,135 -314,5 -314,5 -32,215 c -17,118 -32,227 -32,241 -1,27 24,35 564,180 l 30,9 v 268 269 l -293,88 c -284,87 -292,90 -291,115 0,14 15,122 33,240 l 32,215 306,-4 306,-4 12,44 c 34,133 83,305 110,383 16,49 28,91 26,95 -3,3 -115,78 -250,166 -135,88 -246,165 -246,171 0,10 187,424 196,433 2,2 132,-36 289,-84 157,-49 287,-86 289,-84 2,2 36,58 76,124 40,66 105,168 145,226 l 72,106 -194,226 -194,227 156,180 c 86,99 162,180 168,180 7,0 120,-72 251,-160 l 240,-158 105,96 c 58,54 152,135 209,181 56,46 102,85 102,85 0,1 -54,121 -119,267 -92,202 -117,267 -108,276 23,21 390,254 397,251 4,-2 90,-100 190,-218 100,-118 183,-216 185,-218 1,-2 67,28 146,66 157,76 332,152 348,152 16,0 14,19 -27,313 -21,148 -34,270 -30,273 12,8 440,134 452,134 6,0 51,-91 100,-203 50,-111 102,-229 117,-263 l 28,-61 93,18 c 51,9 175,28 275,40 180,22 182,23 187,48 3,14 21,139 41,276 20,138 38,256 40,263 4,10 58,12 247,10 l 243,-3 z m 99,-1215 c 1308,-153 2397,-1033 2822,-2280 66,-194 121,-438 155,-685 20,-149 17,-663 -5,-819 -130,-908 -569,-1679 -1272,-2233 -317,-250 -761,-479 -1118,-578 -77,-21 -80,-21 -255,-6 -354,31 -754,41 -1089,28 -169,-7 -362,-17 -428,-23 l -120,-11 -112,36 c -1550,502 -2522,2044 -2308,3663 135,1022 735,1928 1632,2460 459,273 976,430 1538,467 110,7 428,-4 560,-19 z m -25,-6655 c 1302,-70 2482,-373 3605,-926 177,-87 501,-256 513,-268 4,-5 -717,-1030 -727,-1034 -4,-1 -63,29 -132,68 -192,110 -594,308 -799,395 -1322,558 -2725,725 -4119,489 -320,-54 -763,-161 -1011,-244 -538,-180 -939,-354 -1400,-609 -112,-61 -147,-77 -155,-67 -5,7 -190,227 -409,490 -234,280 -395,481 -390,486 20,19 261,149 484,261 1140,570 2345,887 3640,958 215,12 689,12 900,1 z M 9440,1283 c 107,-58 197,-107 199,-109 9,-7 -903,-945 -915,-940 -7,3 -168,104 -359,225 -242,153 -341,221 -328,225 10,2 169,35 353,72 322,64 336,66 364,50 16,-9 30,-15 31,-14 1,2 98,139 215,306 162,231 217,302 229,297 9,-3 104,-54 211,-112 z M 907,1096 c 170,-204 232,-273 245,-270 14,4 686,-124 751,-142 13,-4 -87,-72 -328,-226 -191,-120 -353,-222 -360,-224 -7,-3 -204,195 -466,467 -249,260 -449,474 -444,476 6,2 87,46 180,98 94,52 175,94 182,95 6,0 114,-123 240,-274 z"
       id="path321"
       style="fill:#000080" />
    <path
       d="m 4950,10464 c -15,-5 -16,-28 -7,-329 2,-79 2,-80 30,-83 l 27,-3 -1,93 c -3,169 -14,321 -24,323 -5,2 -17,1 -25,-1 z"
       id="path323"
       style="fill:#000080" />
    <path
       d="m 5136,10408 c -24,-253 -27,-341 -14,-349 36,-24 41,-7 54,209 4,61 10,112 13,112 3,0 22,-75 42,-168 l 35,-167 h 45 44 l 12,145 c 6,80 12,171 12,203 1,54 0,57 -23,57 -23,0 -24,-3 -30,-117 -4,-65 -11,-143 -14,-173 -7,-55 -7,-55 -46,123 l -39,177 h -28 c -15,0 -34,3 -42,6 -12,4 -16,-7 -21,-58 z"
       id="path325"
       style="fill:#000080" />
    <path
       d="m 4779,10403 c -22,-100 -16,-226 15,-321 23,-71 46,-105 61,-91 2,3 -5,36 -16,74 -24,83 -36,267 -21,343 8,47 8,52 -9,52 -13,0 -21,-14 -30,-57 z"
       id="path327"
       style="fill:#000080" />
    <path
       d="m 4463,10432 c -18,-3 -23,-13 -32,-66 -6,-34 -11,-75 -11,-89 0,-15 -4,-27 -8,-27 -4,0 -26,33 -49,73 -36,64 -44,72 -73,75 -41,4 -40,4 40,-124 52,-83 63,-109 77,-180 14,-78 17,-84 39,-84 28,0 29,9 12,108 -10,60 -9,81 11,184 13,64 22,120 20,125 -2,4 -14,7 -26,5 z"
       id="path329"
       style="fill:#000080" />
    <path
       d="m 5530,10423 c 0,-5 -16,-94 -35,-198 -19,-104 -33,-190 -32,-191 8,-7 116,-24 151,-24 69,0 86,28 115,192 27,143 19,175 -48,201 -50,20 -151,34 -151,20 z m 144,-73 c 18,-18 19,-24 7,-102 -27,-178 -42,-202 -116,-189 -46,8 -45,-6 -14,166 30,172 24,158 67,150 20,-3 46,-15 56,-25 z"
       id="path331"
       style="fill:#000080" />
    <path
       d="m 5839,10173 c -46,-199 -47,-212 -9,-213 12,0 26,46 62,198 25,108 45,198 44,199 0,1 -13,4 -27,8 l -25,6 z"
       id="path333"
       style="fill:#000080" />
    <path
       d="m 4030,10348 c -87,-24 -97,-70 -54,-249 32,-136 49,-159 113,-159 48,0 136,25 146,41 5,7 -32,188 -40,197 -2,2 -29,-2 -60,-8 -43,-9 -55,-15 -51,-27 3,-8 6,-18 6,-23 0,-5 13,-5 30,0 34,10 35,9 44,-43 4,-21 10,-45 13,-53 3,-9 -7,-19 -32,-29 -41,-18 -70,-13 -85,15 -19,36 -62,232 -56,257 13,50 100,57 112,8 6,-25 16,-29 45,-17 15,6 16,11 2,43 -21,54 -60,68 -133,47 z"
       id="path335"
       style="fill:#000080" />
    <path
       d="m 6037,10120 c -55,-100 -97,-183 -95,-184 1,-2 13,-7 25,-10 19,-6 25,-1 43,33 23,46 22,46 86,29 l 46,-13 -5,-47 c -6,-45 -4,-48 19,-54 14,-4 27,-5 29,-3 5,6 27,410 22,415 -3,3 -20,7 -38,10 l -34,5 z m 117,28 c -8,-131 -7,-128 -54,-116 -22,6 -40,15 -40,20 0,11 90,178 95,178 3,0 2,-37 -1,-82 z"
       id="path337"
       style="fill:#000080" />
    <path
       d="m 3645,10227 c -62,-35 -65,-64 -22,-200 59,-180 87,-211 172,-187 61,17 95,50 95,93 0,35 -55,209 -84,264 -30,58 -91,70 -161,30 z m 103,-40 c 13,-15 70,-169 82,-221 7,-34 6,-41 -15,-62 -52,-52 -82,-26 -130,110 -39,109 -44,160 -17,175 24,14 68,13 80,-2 z"
       id="path339"
       style="fill:#000080" />
    <path
       d="m 6348,10019 c -73,-185 -75,-191 -54,-199 11,-4 24,-6 27,-4 3,2 32,71 64,154 32,83 60,148 62,146 5,-4 -11,-212 -23,-302 -5,-41 -4,-42 37,-58 23,-9 42,-16 43,-14 10,14 148,379 145,382 -2,2 -13,6 -23,8 -17,2 -29,-21 -82,-152 -71,-175 -71,-175 -50,62 l 12,138 -38,15 c -21,8 -40,15 -41,15 -2,0 -38,-86 -79,-191 z"
       id="path341"
       style="fill:#000080" />
    <path
       d="m 3306,10087 c -16,-12 -11,-26 64,-192 45,-99 83,-182 86,-184 4,-4 117,42 143,58 8,5 11,16 7,29 -7,20 -7,20 -62,-5 -30,-14 -56,-23 -58,-22 -1,2 -35,77 -75,167 -41,89 -77,162 -80,162 -4,0 -15,-6 -25,-13 z"
       id="path343"
       style="fill:#000080" />
    <path
       d="m 3055,9965 c -82,-42 -85,-95 -14,-220 90,-159 116,-182 181,-165 18,5 49,23 68,39 52,43 47,82 -25,207 -75,129 -99,154 -144,154 -20,0 -49,-7 -66,-15 z m 153,-152 c 34,-60 62,-118 62,-131 0,-26 -40,-55 -72,-50 -41,6 -166,217 -153,258 8,26 63,52 85,40 9,-5 44,-57 78,-117 z"
       id="path345"
       style="fill:#000080" />
    <path
       d="m 6909,9945 c -26,-14 -59,-69 -59,-98 0,-8 18,-50 41,-93 40,-76 41,-78 26,-110 -20,-40 -47,-50 -87,-29 -32,17 -40,48 -19,86 7,15 7,24 -2,35 -19,23 -39,16 -55,-21 -21,-50 -17,-78 14,-107 78,-73 156,-67 198,14 22,42 17,75 -23,147 -41,75 -40,113 2,133 19,9 29,7 51,-7 23,-15 26,-21 20,-56 -5,-31 -3,-40 13,-49 27,-14 27,-14 41,19 18,46 9,81 -31,113 -43,35 -94,44 -130,23 z"
       id="path347"
       style="fill:#000080" />
    <path
       d="m 2806,9811 c -17,-18 -14,-24 71,-143 49,-67 93,-130 98,-137 10,-18 -16,1 -160,113 -60,47 -114,86 -120,86 -5,0 -23,-11 -39,-23 l -29,-24 118,-166 c 103,-146 120,-165 136,-156 11,5 19,14 19,19 0,5 -40,66 -89,134 -100,140 -108,151 -95,143 5,-3 69,-53 143,-110 l 134,-105 34,22 c 18,11 33,25 33,29 0,7 -205,301 -230,330 -3,4 -14,-1 -24,-12 z"
       id="path349"
       style="fill:#000080" />
    <path
       d="m 7203,9755 c -12,-8 -56,-63 -97,-122 -97,-136 -102,-183 -22,-232 48,-30 96,-28 129,7 32,33 34,48 8,61 -14,8 -23,5 -41,-14 -13,-14 -33,-25 -45,-25 -31,0 -59,34 -52,62 8,29 136,207 160,222 41,26 97,-43 66,-80 -10,-12 -9,-19 9,-36 l 21,-21 20,34 c 35,58 23,98 -43,138 -39,25 -83,27 -113,6 z"
       id="path351"
       style="fill:#000080" />
    <path
       d="m 2485,9580 c -17,-19 -16,-21 41,-85 l 58,-66 -45,-39 -44,-39 -61,67 c -54,58 -63,65 -78,53 -9,-7 -16,-18 -16,-23 0,-5 57,-76 127,-156 70,-81 128,-148 129,-150 3,-5 44,22 44,29 0,3 -27,36 -59,75 l -60,69 42,37 c 23,20 45,37 48,38 4,0 33,-32 65,-70 58,-70 58,-70 78,-50 18,17 18,21 5,37 -146,170 -251,293 -253,293 -2,0 -11,-9 -21,-20 z"
       id="path353"
       style="fill:#000080" />
    <path
       d="m 7415,9464 c -168,-192 -161,-182 -139,-199 11,-8 21,-14 24,-15 3,0 30,30 60,65 30,36 59,65 65,65 5,-1 28,-16 49,-35 l 39,-35 -39,-46 c -21,-26 -49,-59 -62,-75 l -22,-28 22,-15 c 21,-15 24,-15 38,3 8,11 68,80 133,154 64,74 117,138 117,141 0,3 -10,10 -21,17 -19,10 -27,4 -78,-52 l -57,-63 -42,34 c -23,18 -42,37 -42,43 0,5 25,36 55,70 51,57 53,63 38,79 -9,10 -19,18 -22,18 -3,0 -55,-57 -116,-126 z"
       id="path355"
       style="fill:#000080" />
    <path
       d="m 2173,9300 c -56,-34 -76,-95 -49,-149 19,-36 185,-187 220,-201 50,-18 126,33 142,96 6,25 -14,70 -43,97 -19,16 -21,16 -38,-3 -18,-20 -18,-21 3,-43 27,-28 28,-58 4,-80 -33,-30 -57,-19 -151,69 -102,96 -115,122 -80,160 27,29 33,30 69,4 l 29,-21 12,23 c 10,19 8,25 -15,45 -33,28 -61,29 -103,3 z"
       id="path357"
       style="fill:#000080" />
    <path
       d="m 7793,9302 c -26,-4 -188,-147 -220,-194 -35,-49 -30,-81 20,-133 63,-66 95,-63 184,13 83,72 141,135 153,168 24,63 -65,158 -137,146 z m 65,-68 c 44,-31 30,-63 -66,-156 -98,-95 -121,-107 -156,-84 -32,20 -37,49 -16,84 25,40 176,172 198,172 10,0 28,-7 40,-16 z"
       id="path359"
       style="fill:#000080" />
    <path
       d="m 1940,9048 c -25,-28 -51,-59 -57,-69 -11,-15 6,-33 134,-144 80,-70 151,-128 158,-129 7,0 38,28 69,63 51,59 55,66 40,80 -14,15 -20,12 -59,-33 l -44,-49 -50,42 c -28,24 -51,47 -51,52 0,5 16,27 37,49 33,38 35,42 20,57 -15,15 -19,12 -59,-30 l -43,-47 -48,43 -48,43 41,47 c 35,39 40,50 30,62 -7,8 -15,15 -19,15 -3,0 -26,-23 -51,-52 z"
       id="path361"
       style="fill:#000080" />
    <path
       d="m 7989,9000 c -75,-49 -183,-144 -197,-172 -17,-37 -6,-73 38,-119 56,-59 87,-55 192,24 161,121 183,159 138,232 -44,71 -100,82 -171,35 z m 117,-45 c 15,-16 24,-34 22,-48 -3,-24 -162,-157 -211,-178 -24,-10 -31,-9 -53,12 -41,38 -29,64 61,141 73,61 127,97 148,98 4,0 19,-11 33,-25 z"
       id="path363"
       style="fill:#000080" />
    <path
       d="m 1717,8763 c -61,-88 -66,-99 -51,-113 14,-14 17,-13 35,9 11,13 24,31 28,39 9,15 40,-5 258,-161 l 51,-38 16,23 c 9,12 12,25 8,29 -4,3 -69,50 -144,103 -76,54 -138,103 -138,109 1,7 12,25 25,41 22,27 22,31 7,43 -9,7 -19,12 -22,12 -3,0 -35,-43 -73,-96 z"
       id="path365"
       style="fill:#000080" />
    <path
       d="m 8130,8669 c -85,-60 -159,-114 -163,-118 -8,-8 80,-141 92,-141 3,0 13,5 21,10 12,7 9,16 -18,55 -18,25 -30,50 -27,55 4,6 195,145 278,201 10,7 -8,49 -21,49 -4,0 -77,-50 -162,-111 z"
       id="path367"
       style="fill:#000080" />
    <path
       d="m 1475,8377 c -22,-39 -40,-75 -40,-79 0,-4 78,-53 174,-108 160,-92 175,-99 187,-83 7,10 14,21 14,25 0,3 -36,27 -81,53 l -80,46 26,45 c 15,25 24,52 21,60 -10,26 -33,14 -57,-31 -13,-25 -27,-45 -31,-45 -13,0 -108,55 -108,62 0,4 13,29 29,56 27,47 28,49 10,60 -10,7 -20,12 -21,12 -2,0 -21,-33 -43,-73 z"
       id="path369"
       style="fill:#000080" />
    <path
       d="m 8361,8310 c -157,-79 -179,-107 -147,-185 22,-52 60,-85 96,-85 49,0 267,115 291,153 38,64 -26,177 -101,177 -10,0 -73,-27 -139,-60 z m 196,-35 c 16,-33 15,-36 -2,-55 -28,-31 -209,-120 -244,-120 -26,0 -34,6 -48,35 -16,34 -16,36 4,56 33,34 205,118 241,119 27,0 35,-5 49,-35 z"
       id="path371"
       style="fill:#000080" />
    <path
       d="m 1359,8117 c -29,-22 -59,-81 -59,-118 0,-49 33,-78 152,-133 104,-48 154,-62 187,-51 30,9 71,84 71,130 0,51 -29,75 -165,136 -112,49 -157,58 -186,36 z m 153,-83 c 135,-59 148,-68 148,-102 -1,-37 -22,-62 -54,-62 -33,0 -208,76 -236,102 -11,11 -20,30 -20,43 0,25 31,65 50,65 5,0 56,-20 112,-46 z"
       id="path373"
       style="fill:#000080" />
    <path
       d="m 8515,7988 c -99,-40 -182,-73 -184,-75 -2,-1 1,-14 7,-27 l 11,-25 83,34 c 46,18 86,31 89,29 3,-2 14,-25 24,-51 22,-60 19,-57 44,-44 20,11 20,11 1,57 -11,25 -20,49 -20,54 0,13 110,54 119,44 5,-5 16,-30 26,-56 19,-51 22,-53 44,-39 12,8 10,22 -16,87 -16,43 -34,79 -39,80 -5,2 -90,-29 -189,-68 z"
       id="path375"
       style="fill:#000080" />
    <path
       d="m 1165,7658 c -16,-51 -46,-160 -43,-163 6,-5 369,-105 382,-105 9,0 22,29 35,78 26,96 26,102 1,102 -15,0 -23,-13 -36,-57 -9,-32 -18,-59 -19,-61 -4,-5 -119,29 -128,37 -4,4 0,29 8,57 19,64 19,64 -8,64 -21,0 -26,-8 -37,-55 -8,-31 -18,-54 -24,-52 -6,2 -35,10 -63,17 -29,8 -53,17 -53,20 0,4 7,30 16,60 13,44 13,54 2,61 -18,12 -28,11 -33,-3 z"
       id="path377"
       style="fill:#000080" />
    <path
       d="m 8655,7586 c -160,-46 -180,-54 -177,-71 2,-11 6,-22 8,-24 2,-2 72,15 155,38 83,23 153,40 155,38 2,-2 -60,-39 -139,-82 -78,-43 -144,-80 -146,-81 -2,-2 0,-15 3,-30 l 7,-26 177,6 177,6 -162,-47 c -132,-37 -163,-50 -163,-64 0,-10 4,-21 10,-24 5,-3 95,18 200,47 203,57 202,56 180,114 l -11,27 -147,-7 c -81,-4 -156,-10 -167,-13 -40,-11 1,16 135,88 74,40 136,73 138,75 2,1 -2,20 -9,43 -8,27 -18,41 -28,40 -9,-1 -97,-24 -196,-53 z"
       id="path379"
       style="fill:#000080" />
    <path
       d="m 1065,7274 c -23,-97 -25,-118 -14,-125 24,-15 28,-10 40,36 6,25 16,45 23,45 6,0 85,-18 176,-40 91,-21 166,-38 167,-37 1,1 4,13 8,27 l 6,26 -176,39 -176,40 6,44 c 6,41 -2,60 -27,61 -3,0 -19,-52 -33,-116 z"
       id="path381"
       style="fill:#000080" />
    <path
       d="m 8800,7150 c -80,-14 -162,-30 -182,-34 -32,-6 -38,-11 -38,-31 0,-19 5,-25 23,-25 33,1 376,66 383,73 11,11 -7,47 -24,46 -9,-1 -82,-14 -162,-29 z"
       id="path383"
       style="fill:#000080" />
    <path
       d="m 1016,6994 c -4,-15 -6,-27 -4,-29 2,-1 76,-11 166,-23 90,-11 170,-26 178,-33 16,-13 18,-52 4,-80 -13,-23 -52,-24 -200,-4 -154,21 -170,20 -170,-9 0,-27 -7,-26 207,-52 134,-17 143,-17 168,0 72,47 70,176 -2,204 -15,6 -89,18 -163,27 -74,9 -145,18 -156,20 -17,4 -23,-1 -28,-21 z"
       id="path385"
       style="fill:#000080" />
    <path
       d="m 8800,6974 c -96,-13 -181,-23 -188,-24 -9,0 -11,-7 -6,-22 3,-13 8,-25 9,-26 4,-4 247,25 300,35 51,9 21,-8 -137,-78 l -153,-68 3,-38 c 2,-21 6,-40 8,-42 3,-3 94,6 204,19 195,23 200,24 200,47 0,19 -5,23 -28,23 -31,0 -254,-27 -292,-36 -49,-11 -4,14 148,81 161,71 162,72 146,133 -7,26 8,26 -214,-4 z"
       id="path387"
       style="fill:#000080" />
    <path
       d="m 978,6555 c -1,-58 -2,-113 -2,-122 -1,-11 8,-19 22,-21 20,-3 22,0 22,48 v 51 l 185,-7 185,-7 v 26 c 0,15 -1,28 -2,28 -2,1 -84,4 -183,8 l -180,6 2,48 c 3,44 1,47 -22,47 -25,0 -25,0 -27,-105 z"
       id="path389"
       style="fill:#000080" />
    <path
       d="m 8746,6602 -106,-3 v -95 c 0,-93 1,-95 23,-92 20,3 22,8 22,68 v 65 l 73,3 72,3 v -61 c 0,-53 2,-60 20,-60 18,0 20,7 20,60 v 60 h 64 c 71,0 76,-5 76,-82 0,-31 4,-38 20,-38 19,0 20,7 20,91 v 90 l -99,-3 c -54,-2 -147,-4 -205,-6 z"
       id="path391"
       style="fill:#000080" />
    <path
       d="m 8682,6305 c -37,-16 -52,-48 -52,-110 0,-62 37,-103 102,-111 47,-7 49,-6 90,39 24,25 57,63 74,83 29,35 33,37 65,28 29,-8 34,-15 37,-42 4,-42 -12,-62 -49,-62 -26,0 -29,-3 -29,-31 0,-31 0,-32 41,-26 63,8 83,34 84,108 0,54 -3,63 -28,85 -20,17 -40,24 -71,24 -52,0 -78,-19 -126,-89 -19,-28 -45,-54 -56,-57 -38,-10 -68,0 -84,29 -13,24 -13,30 0,55 12,20 25,28 55,32 35,4 40,8 40,30 0,21 -5,25 -30,27 -16,2 -45,-4 -63,-12 z"
       id="path393"
       style="fill:#000080" />
    <path
       d="m 1058,6303 c -75,-4 -78,-5 -78,-28 v -25 h 144 c 78,0 171,3 205,6 56,6 61,9 61,30 v 24 l -127,-2 c -71,-1 -163,-4 -205,-5 z"
       id="path395"
       style="fill:#000080" />
    <path
       d="m 984,6103 c 2,-10 10,-64 16,-120 12,-98 13,-103 36,-103 22,0 23,3 17,48 l -5,48 153,18 c 206,24 209,25 209,48 0,10 -7,21 -14,24 -8,3 -89,-4 -179,-15 -90,-12 -166,-21 -170,-21 -3,0 -9,20 -13,45 -5,39 -9,45 -31,45 -18,0 -23,-4 -19,-17 z"
       id="path397"
       style="fill:#000080" />
    <path
       d="m 8562,5997 c 2,-18 20,-28 98,-54 79,-27 109,-33 180,-32 120,1 174,10 178,31 3,15 -5,17 -82,11 -99,-7 -206,8 -307,42 l -70,24 z"
       id="path399"
       style="fill:#000080" />
    <path
       d="m 1271,5805 c -18,-16 -36,-46 -46,-78 -26,-79 -40,-97 -78,-97 -41,0 -57,15 -57,52 0,22 8,33 30,46 36,20 42,62 10,62 -29,0 -76,-26 -84,-45 -19,-50 6,-133 48,-161 32,-20 98,-14 127,12 10,9 29,44 41,76 28,77 52,108 86,108 35,0 49,-10 61,-43 15,-38 0,-62 -44,-77 -36,-12 -42,-24 -26,-49 13,-20 85,1 106,32 30,43 10,153 -33,176 -38,21 -108,13 -141,-14 z"
       id="path401"
       style="fill:#000080" />
    <path
       d="m 8510,5464 c -34,-127 -20,-146 147,-196 93,-27 154,-34 188,-22 8,4 23,21 32,38 15,29 55,148 50,151 -1,1 -60,18 -132,38 -71,20 -160,45 -196,56 l -67,19 z m 222,-30 c 125,-35 137,-41 132,-59 -14,-53 -28,-76 -49,-81 -25,-6 -209,41 -243,63 -31,19 -35,34 -22,83 9,32 15,41 28,37 9,-2 79,-22 154,-43 z"
       id="path403"
       style="fill:#000080" />
    <path
       d="m 1340,5483 c -85,-24 -172,-48 -192,-54 -31,-8 -38,-14 -38,-34 0,-14 3,-25 7,-25 8,0 284,77 308,86 43,17 -2,-17 -134,-101 -78,-48 -141,-94 -141,-100 0,-7 5,-26 11,-44 8,-22 16,-30 28,-27 63,19 304,86 338,95 34,9 40,15 36,31 -3,11 -8,22 -12,24 -4,3 -76,-15 -161,-39 -85,-24 -156,-42 -158,-41 -1,2 63,45 143,96 145,92 146,93 139,124 -12,56 -9,56 -174,9 z"
       id="path405"
       style="fill:#000080" />
    <path
       d="m 8430,5211 c 0,-5 -2,-16 -6,-24 -4,-10 17,-23 78,-47 46,-18 85,-35 87,-36 3,-3 -39,-114 -43,-114 -1,0 -40,15 -87,34 l -84,34 -12,-21 c -6,-12 -9,-25 -5,-28 4,-3 90,-39 191,-79 149,-59 185,-70 192,-59 18,27 3,42 -71,71 -41,16 -76,31 -78,32 -6,7 42,106 52,105 6,0 43,-13 81,-29 72,-29 81,-29 87,4 3,17 -23,30 -182,93 -194,77 -200,78 -200,64 z"
       id="path407"
       style="fill:#000080" />
    <path
       d="m 1409,5114 c -165,-66 -186,-77 -182,-95 3,-10 9,-22 14,-24 8,-5 357,130 371,143 8,8 -1,52 -11,51 -3,0 -90,-34 -192,-75 z"
       id="path409"
       style="fill:#000080" />
    <path
       d="m 1528,4827 c -98,-51 -178,-96 -178,-102 0,-40 19,-36 171,39 l 154,76 -128,-123 -128,-123 17,-37 c 10,-20 21,-37 26,-37 18,0 358,176 358,185 0,5 -5,17 -10,25 -8,13 -33,3 -155,-57 -80,-40 -147,-73 -149,-73 -5,0 222,222 236,231 12,8 4,36 -20,66 l -17,21 z"
       id="path411"
       style="fill:#000080" />
    <path
       d="m 8303,4898 c -9,-20 -5,-27 26,-54 l 36,-32 -23,-47 c -22,-46 -24,-47 -58,-40 -20,3 -41,8 -48,11 -7,3 -18,-7 -24,-21 -9,-20 -9,-27 1,-30 23,-8 376,-95 386,-95 10,0 46,59 39,64 -2,1 -74,62 -160,134 -86,73 -159,132 -161,132 -2,0 -9,-10 -14,-22 z m 187,-183 c 44,-36 76,-65 70,-65 -6,0 -53,12 -105,26 l -94,26 20,39 c 10,22 21,39 24,39 2,0 41,-29 85,-65 z"
       id="path413"
       style="fill:#000080" />
    <path
       d="m 1717,4469 -146,-153 17,-28 c 9,-15 20,-28 25,-28 26,0 387,137 387,146 0,27 -26,34 -68,20 l -42,-15 -31,45 -31,46 35,36 c 35,36 36,37 18,60 l -17,24 z m 102,-33 c 12,-18 21,-36 21,-39 0,-4 -113,-51 -180,-75 -8,-2 19,30 60,72 41,42 75,76 76,76 1,0 12,-15 23,-34 z"
       id="path415"
       style="fill:#000080" />
    <path
       d="m 8142,4590 c -7,-11 -12,-22 -12,-24 0,-2 61,-43 135,-91 75,-48 134,-89 132,-91 -2,-2 -74,16 -160,41 -86,25 -160,45 -164,45 -4,0 -18,-16 -31,-35 l -22,-35 37,-23 c 21,-14 99,-63 173,-111 123,-79 136,-85 147,-70 7,10 13,20 13,23 0,3 -63,46 -140,95 -77,49 -139,91 -137,92 1,2 78,-19 170,-45 l 168,-49 24,36 c 14,20 21,39 17,43 -4,3 -70,46 -147,96 -77,49 -151,97 -165,106 -24,16 -26,15 -38,-3 z"
       id="path417"
       style="fill:#000080" />
    <path
       d="m 1895,4204 c -88,-63 -161,-118 -162,-122 -1,-4 4,-15 12,-26 13,-17 22,-13 162,87 81,58 156,112 167,120 16,12 17,16 5,35 -8,12 -16,22 -19,21 -3,0 -77,-52 -165,-115 z"
       id="path419"
       style="fill:#000080" />
    <path
       d="m 7943,4287 c -50,-55 -83,-111 -83,-143 0,-68 94,-133 144,-100 24,15 24,15 23,-19 -2,-57 67,-112 124,-100 28,6 129,108 129,130 -1,8 -215,181 -300,242 -14,10 -21,8 -37,-10 z m 101,-110 30,-24 -23,-31 c -12,-18 -33,-35 -47,-38 -29,-7 -70,17 -86,51 -9,21 -7,31 16,65 l 27,41 27,-20 c 15,-11 40,-31 56,-44 z m 119,-93 c 26,-20 47,-40 47,-44 0,-17 -51,-60 -71,-60 -23,0 -79,45 -79,64 0,12 43,76 51,76 3,0 27,-16 52,-36 z"
       id="path421"
       style="fill:#000080" />
    <path
       d="m 2089,4132 c -65,-43 -180,-149 -193,-177 -19,-39 -12,-68 30,-125 68,-95 52,-98 223,50 83,72 151,134 151,138 0,4 -25,35 -56,70 -49,55 -60,62 -92,62 -20,0 -49,-8 -63,-18 z m 111,-67 c 40,-41 50,-26 -100,-154 -100,-85 -106,-89 -124,-73 -25,23 -43,63 -39,84 6,23 191,178 213,178 9,0 31,-16 50,-35 z"
       id="path423"
       style="fill:#000080" />
    <path
       d="m 7747,4043 c -15,-16 -15,-19 9,-50 29,-39 26,-57 -16,-98 l -29,-28 -40,26 -39,26 -21,-23 -21,-22 182,-107 181,-108 24,23 c 13,12 22,27 21,34 -4,16 -222,344 -228,344 -3,0 -13,-8 -23,-17 z m 181,-307 c -1,-2 -43,21 -91,52 l -88,55 32,33 32,33 59,-85 c 33,-47 58,-87 56,-88 z"
       id="path425"
       style="fill:#000080" />
    <path
       d="m 2231,3783 c -136,-142 -140,-147 -123,-166 17,-19 20,-16 140,109 l 123,129 -81,-164 -81,-163 27,-29 c 16,-16 31,-28 35,-27 4,2 69,67 144,146 136,141 137,143 119,163 -18,20 -19,19 -136,-103 l -118,-123 79,161 80,161 -28,27 c -15,14 -30,26 -33,26 -4,0 -70,-66 -147,-147 z"
       id="path427"
       style="fill:#000080" />
    <path
       d="m 7457,3747 c -59,-55 -67,-67 -67,-99 0,-40 40,-97 140,-200 49,-51 61,-58 94,-58 28,0 51,9 85,34 97,71 100,55 -40,218 -67,79 -127,149 -133,156 -9,9 -27,-2 -79,-51 z m 163,-134 101,-118 -30,-27 c -33,-30 -66,-35 -91,-15 -32,25 -148,167 -155,187 -5,17 1,30 26,56 18,19 36,34 41,34 4,0 53,-53 108,-117 z"
       id="path429"
       style="fill:#000080" />
    <path
       d="m 2501,3540 c -72,-83 -131,-155 -131,-160 0,-5 9,-14 20,-20 17,-9 34,7 147,136 70,81 129,152 131,160 2,7 -6,17 -16,23 -18,10 -35,-6 -151,-139 z"
       id="path431"
       style="fill:#000080" />
    <path
       d="m 4433,9493 c -27,-91 -22,-246 11,-349 23,-73 96,-204 112,-204 4,0 16,7 25,16 18,16 17,18 -7,47 -34,41 -69,111 -90,182 -22,76 -22,221 0,290 15,46 15,51 -1,63 -27,19 -31,15 -50,-45 z"
       id="path433"
       style="fill:#000080" />
    <path
       d="m 5897,9529 c -25,-15 -57,-86 -57,-126 0,-18 -2,-33 -4,-33 -3,0 -50,11 -106,25 -138,33 -320,62 -465,75 -145,12 -422,13 -429,2 -3,-5 -2,-18 1,-30 4,-17 12,-21 37,-19 l 31,2 5,-73 c 3,-41 3,-76 1,-78 -2,-2 -26,-4 -52,-4 h -47 l -7,68 c -10,112 -15,131 -38,147 -51,36 -107,3 -107,-63 0,-27 7,-45 21,-58 20,-18 21,-18 35,1 9,13 11,22 4,29 -17,17 -12,48 8,44 14,-3 18,-18 24,-81 7,-73 6,-78 -17,-102 -29,-28 -31,-51 -9,-83 22,-32 64,-26 82,11 10,21 20,27 47,27 18,0 40,3 48,6 12,4 16,-9 22,-65 7,-67 8,-71 32,-71 25,0 26,1 20,63 -4,34 -9,113 -13,175 l -7,112 h 68 68 l -7,-174 -6,-174 22,-5 c 12,-4 23,-5 25,-4 1,2 6,81 10,177 l 8,174 60,-2 c 145,-6 169,-18 181,-94 11,-66 -50,-100 -137,-76 -23,7 -28,4 -33,-15 -4,-18 10,-39 72,-105 64,-68 82,-82 108,-82 17,0 38,8 47,18 16,17 15,19 -16,30 -18,6 -48,27 -66,46 l -34,35 36,15 c 52,21 81,82 74,153 l -6,54 37,-7 c 74,-12 238,-45 275,-55 29,-8 37,-15 37,-32 0,-46 -12,-51 -86,-34 -57,13 -72,14 -99,3 -85,-36 -108,-155 -45,-236 18,-23 20,-24 36,-8 16,15 15,19 -5,60 -11,25 -21,50 -21,57 0,24 30,70 50,76 27,9 131,-15 137,-32 3,-7 -4,-51 -16,-98 -27,-107 -27,-115 2,-115 22,0 26,10 61,163 21,89 40,163 41,165 3,3 125,-29 125,-32 0,-1 -25,-76 -55,-166 -55,-164 -56,-179 -18,-180 6,0 24,37 39,83 15,45 40,119 56,164 l 29,81 61,-24 c 76,-29 88,-40 88,-74 0,-38 -29,-60 -78,-60 h -42 v -64 c 0,-99 54,-163 128,-151 37,7 37,6 18,-40 -14,-32 -13,-36 4,-45 10,-5 21,-10 23,-10 3,0 24,44 48,98 23,53 55,125 70,160 l 29,63 24,-16 c 23,-15 25,-15 35,4 6,11 11,23 11,26 0,9 -230,117 -322,151 l -77,29 6,80 c 5,73 3,83 -19,115 -20,29 -31,35 -63,37 -22,2 -48,-2 -58,-8 z m 79,-64 c 12,-18 15,-39 12,-75 -3,-28 -8,-53 -11,-57 -4,-3 -25,-1 -47,6 -39,11 -40,13 -40,55 0,46 29,96 55,96 8,0 22,-11 31,-25 z m 334,-340 c 0,-21 -73,-156 -91,-169 -49,-34 -108,-15 -130,41 -11,31 -4,43 24,43 47,0 97,60 97,115 v 25 l 50,-25 c 28,-14 50,-27 50,-30 z"
       id="path435"
       style="fill:#000080" />
    <path
       d="m 4030,9318 c -201,-74 -452,-191 -577,-270 -52,-33 -53,-34 -37,-56 12,-18 19,-20 29,-12 19,16 29,8 69,-59 27,-44 36,-70 36,-103 0,-80 -49,-116 -115,-86 -21,9 -25,16 -19,32 13,42 16,106 4,140 -24,74 -108,102 -149,50 -30,-39 -27,-80 9,-116 26,-26 36,-30 65,-25 19,3 35,4 35,2 0,-2 -14,-20 -31,-39 l -30,-35 41,-30 c 81,-59 154,-64 203,-15 14,14 29,40 33,57 l 6,31 25,-42 c 21,-36 28,-40 44,-32 10,6 19,15 19,20 0,5 -40,71 -89,147 -49,76 -87,141 -84,146 4,7 98,57 108,57 3,0 39,-67 80,-150 41,-82 81,-150 88,-150 42,1 39,17 -37,168 -42,84 -76,156 -76,161 0,4 24,19 53,31 113,49 259,110 264,110 5,0 35,-71 31,-74 -2,-2 -40,-17 -85,-35 -84,-34 -106,-50 -118,-89 -9,-31 12,-88 42,-112 77,-60 174,31 128,120 -9,17 -15,33 -13,34 18,12 61,25 68,21 4,-2 23,-45 41,-95 25,-68 38,-90 52,-90 9,0 20,6 23,13 3,8 -22,83 -55,167 -61,154 -63,169 -23,170 13,0 16,28 4,46 -5,9 -22,6 -62,-8 z m -90,-268 c 24,-24 24,-30 7,-54 -32,-44 -92,9 -61,53 19,26 29,26 54,1 z m -578,-146 c 10,-21 9,-27 -3,-35 -33,-21 -74,16 -50,45 20,23 40,20 53,-10 z"
       id="path437"
       style="fill:#000080" />
    <path
       d="m 6656,8969 c -15,-22 -13,-24 30,-53 51,-36 61,-62 45,-117 -21,-68 -80,-76 -140,-17 -30,29 -33,30 -48,15 -16,-15 -15,-20 5,-60 12,-24 22,-58 22,-74 0,-53 29,-131 58,-153 22,-18 37,-21 75,-17 26,2 50,0 54,-5 3,-6 21,-17 40,-25 l 35,-14 -23,-25 c -24,-25 -24,-26 -5,-40 11,-8 22,-14 25,-13 3,0 50,58 105,130 54,71 101,129 105,129 4,0 29,-23 56,-51 l 50,-50 -129,-122 c -124,-118 -128,-123 -109,-139 18,-17 24,-13 147,104 l 128,122 52,-59 c 84,-96 165,-199 166,-211 0,-10 -23,-34 -46,-47 -6,-3 -35,25 -64,64 -29,39 -61,74 -71,80 -61,32 -149,-24 -149,-95 0,-79 86,-113 149,-60 26,22 34,24 47,13 41,-34 37,-44 -46,-109 -44,-35 -80,-66 -80,-69 0,-3 6,-14 13,-23 12,-15 27,-6 145,88 72,57 135,104 139,104 5,0 14,-9 21,-20 10,-17 15,-18 32,-8 27,17 26,20 -16,79 l -37,50 24,47 c 27,55 36,140 20,200 -13,47 -60,106 -102,128 -59,30 -147,6 -175,-47 -8,-16 -16,-29 -18,-29 -2,0 -37,32 -77,70 -85,81 -273,235 -371,304 l -66,47 z m 234,-207 c 112,-90 115,-94 90,-117 -19,-17 -21,-17 -60,19 -34,31 -47,36 -88,36 -27,0 -57,-7 -70,-16 -29,-20 -52,-66 -52,-104 0,-23 -4,-30 -20,-30 -27,0 -50,38 -56,97 l -6,49 33,-4 c 51,-6 100,32 119,91 8,26 17,47 20,47 3,0 43,-31 90,-68 z m -16,-133 c 46,-36 50,-55 20,-95 -23,-29 -32,-34 -53,-29 -32,7 -81,59 -81,85 0,27 35,60 64,60 13,0 35,-9 50,-21 z m 497,-46 c 39,-33 68,-95 69,-145 0,-37 -26,-118 -39,-118 -3,0 -20,20 -38,43 -17,23 -57,70 -88,104 -62,68 -62,80 -9,122 36,28 66,26 105,-6 z m -177,-319 c 23,-22 20,-41 -8,-59 -50,-33 -92,26 -44,59 28,20 33,20 52,0 z"
       id="path439"
       style="fill:#000080" />
    <path
       d="m 3070,8774 c -105,-88 -258,-238 -344,-337 -49,-56 -56,-69 -46,-82 19,-23 30,-19 67,25 38,44 72,52 111,24 51,-35 49,-114 -2,-94 -16,6 -29,5 -41,-4 -27,-19 -5,-49 54,-75 124,-53 201,-51 201,6 0,45 -13,57 -35,33 -18,-20 -41,-25 -69,-14 -27,10 -10,93 27,132 l 31,32 36,-33 c 91,-84 89,-83 108,-64 16,17 10,24 -108,137 l -125,120 63,60 c 35,32 72,62 82,65 10,3 35,-1 54,-9 42,-18 60,-54 46,-91 -8,-22 -12,-24 -34,-14 -57,26 -77,-25 -25,-62 45,-31 138,-68 175,-69 37,0 54,16 54,50 0,36 -10,43 -31,24 -25,-23 -94,-11 -84,14 3,9 9,31 12,47 3,17 20,43 39,60 33,29 33,31 19,53 l -16,22 -29,-22 -30,-22 -22,21 c -13,11 -36,27 -51,35 l -29,14 36,28 c 30,23 34,30 26,47 -6,10 -15,19 -20,19 -5,0 -50,-34 -100,-76 z m -125,-274 39,-40 -26,-26 -26,-26 -21,21 c -12,12 -35,24 -51,28 -17,3 -30,8 -30,11 0,8 62,72 70,72 3,0 24,-18 45,-40 z"
       id="path441"
       style="fill:#000080" />
    <path
       d="m 2745,8749 c -12,-18 4,-57 26,-64 38,-12 65,35 37,63 -15,15 -55,16 -63,1 z"
       id="path443"
       style="fill:#000080" />
    <path
       d="m 4770,8729 c -495,-51 -976,-276 -1344,-629 -380,-365 -628,-870 -686,-1398 -18,-161 -8,-483 19,-637 55,-313 168,-599 338,-859 309,-474 798,-828 1336,-965 199,-51 288,-63 527,-68 195,-5 244,-3 372,16 405,59 737,197 1068,443 128,96 349,319 447,451 399,540 543,1209 402,1867 -33,152 -104,354 -178,506 -350,715 -1038,1194 -1830,1274 -120,12 -348,11 -471,-1 z m 110,-629 c 0,-440 -3,-561 -12,-564 -7,-1 -61,-15 -120,-29 -438,-106 -776,-493 -816,-936 l -7,-76 -563,-3 -563,-2 6,77 c 20,256 72,493 151,693 249,629 761,1104 1406,1304 154,48 370,90 486,95 l 32,1 z m 416,545 c 908,-119 1642,-772 1864,-1659 32,-129 59,-308 61,-416 l 2,-75 h -559 -559 l -3,40 c -32,454 -361,851 -804,970 -51,14 -103,25 -115,25 h -23 v 565 c 0,350 4,565 9,565 6,0 63,-7 127,-15 z M 5065,7258 c 56,-64 105,-174 118,-264 10,-77 2,-166 -24,-258 l -11,-38 -124,4 c -141,4 -137,2 -155,88 -22,104 4,297 53,394 20,40 85,116 99,116 4,0 24,-19 44,-42 z m -228,-276 c -7,-67 -7,-127 -1,-173 5,-38 7,-69 3,-69 -18,0 -107,93 -127,133 -44,88 -49,168 -20,305 l 11,53 72,-73 72,-73 z m 513,166 c 16,-94 9,-201 -18,-261 -19,-43 -112,-147 -131,-147 -4,0 -2,33 6,73 16,77 12,202 -7,252 -10,27 -8,32 56,96 37,38 71,66 75,63 4,-2 13,-36 19,-76 z m -775,-66 59,-17 12,-80 c 16,-110 36,-149 112,-224 l 65,-64 -49,8 c -202,30 -305,162 -295,378 1,21 17,21 96,-1 z m 982,-59 c -12,-174 -106,-283 -271,-314 -66,-12 -81,-6 -45,18 46,31 101,96 121,142 11,25 22,76 25,113 3,36 9,70 12,76 6,9 111,39 145,41 17,1 18,-5 13,-76 z M 4464,6894 c 9,-8 16,-20 16,-25 0,-21 60,-96 98,-123 22,-15 61,-36 88,-46 52,-20 51,-23 -11,-20 -133,4 -254,83 -300,193 l -15,37 h 54 c 36,0 60,-5 70,-16 z m 1226,6 c 0,-50 -100,-158 -178,-191 -54,-23 -172,-41 -186,-28 -6,6 -3,9 8,9 30,0 124,52 162,89 20,20 44,55 54,77 10,23 24,44 32,47 24,10 108,7 108,-3 z m -835,-272 c -7,-24 -16,-64 -20,-90 -9,-67 -70,-157 -146,-213 l -61,-45 h -95 -96 l 6,56 c 12,117 89,217 212,275 62,29 154,57 192,58 21,1 21,0 8,-41 z m 260,-10 c 19,-65 19,-183 0,-237 -8,-23 -28,-61 -45,-85 -28,-41 -30,-51 -30,-130 v -85 l 38,16 c 22,10 67,16 112,17 78,0 136,-18 200,-64 l 30,-21 v -266 c 0,-249 -1,-265 -17,-257 -65,28 -154,54 -189,54 -78,0 -143,-35 -194,-103 l -29,-39 -15,30 c -51,98 -224,141 -354,87 -19,-8 -38,-15 -43,-15 -5,0 -9,121 -9,269 v 269 l 33,15 c 88,41 180,47 292,17 39,-10 71,-17 72,-16 1,1 3,38 4,82 2,78 1,82 -34,130 -20,27 -44,71 -53,99 -28,82 -18,226 19,273 6,8 40,12 103,12 h 93 z m 150,25 c 127,-40 209,-103 255,-196 17,-34 33,-86 37,-115 l 6,-52 h -95 c -86,0 -98,2 -139,28 -54,35 -111,97 -139,151 -16,33 -50,169 -50,205 0,10 57,1 125,-21 z M 3305,6356 c -116,-57 -268,-139 -338,-181 -71,-42 -130,-75 -133,-73 -6,7 -22,139 -29,251 l -7,107 h 358 358 z m 619,67 c 14,-88 16,-86 -91,-128 -243,-95 -605,-284 -835,-436 -63,-42 -93,-56 -98,-48 -16,25 -62,241 -54,249 19,18 246,151 368,215 71,38 188,94 260,126 l 131,59 h 156 156 z m 2797,-34 c 193,-111 467,-307 468,-335 1,-16 -57,-245 -63,-251 -3,-3 -60,31 -128,75 -259,168 -578,335 -810,422 l -88,33 v 41 c 0,23 3,51 6,64 l 6,22 h 242 242 z m 503,-21 c -5,-90 -23,-260 -28,-265 -1,-1 -24,16 -52,39 -80,66 -231,172 -349,243 -60,36 -111,68 -114,71 -2,2 120,4 272,4 h 277 z m -3284,-97 c 0,-29 38,-162 65,-229 14,-35 23,-67 20,-71 -3,-5 -49,-26 -102,-46 -278,-107 -529,-243 -774,-421 -49,-35 -91,-64 -94,-64 -14,0 -135,281 -135,314 0,29 323,227 590,361 151,76 411,186 422,178 5,-2 8,-12 8,-22 z m 2262,-11 c 156,-62 387,-174 543,-265 205,-119 365,-225 365,-242 0,-24 -125,-318 -145,-341 -1,-2 -58,35 -126,81 -234,160 -480,291 -736,393 -65,26 -120,48 -122,50 -2,2 10,34 27,71 34,75 82,232 82,269 0,13 2,24 5,24 2,0 51,-18 107,-40 z M 3890,5835 c -42,-42 -70,-63 -84,-62 -15,1 -22,-5 -24,-23 -4,-26 -79,-111 -97,-109 -26,3 -35,-3 -35,-23 0,-12 -16,-39 -36,-59 l -37,-38 -17,21 c -9,12 -22,18 -28,14 -18,-11 -15,-34 6,-45 15,-9 11,-17 -38,-66 -30,-31 -107,-106 -171,-166 l -116,-109 -41,62 c -26,39 -37,65 -31,69 19,11 5,44 -17,42 -13,-1 -27,9 -39,29 -17,30 -17,32 0,44 16,12 21,12 35,-1 23,-20 44,-4 36,29 -6,24 3,32 139,122 155,102 377,222 540,290 55,24 104,43 110,43 5,1 -19,-28 -55,-64 z m 2232,9 c 61,-25 148,-63 193,-85 70,-33 82,-42 78,-59 -6,-24 21,-38 42,-20 21,18 134,-45 128,-71 -6,-22 21,-36 40,-21 9,8 32,-1 85,-35 64,-40 71,-47 56,-58 -11,-7 -15,-19 -11,-29 9,-24 42,-16 41,10 v 21 l 33,-19 c 18,-11 38,-31 45,-46 9,-17 22,-26 40,-27 42,-1 53,-18 38,-54 -13,-33 -30,-41 -30,-15 0,24 -35,12 -38,-14 -3,-17 2,-22 17,-22 20,0 18,-4 -16,-59 -20,-32 -48,-73 -64,-92 l -27,-34 -261,259 c -192,191 -260,265 -258,280 1,16 -4,21 -20,21 -14,0 -61,39 -132,108 -60,59 -105,107 -100,107 5,0 60,-21 121,-46 z M 4418,5542 c 410,-268 934,-232 1315,92 l 66,56 158,-163 c 87,-89 221,-227 298,-307 77,-80 180,-187 229,-237 l 90,-93 -34,-36 c -54,-56 -226,-192 -325,-257 -122,-80 -341,-186 -478,-233 l -114,-38 -184,113 c -209,127 -210,128 -261,159 -22,12 -36,27 -32,33 3,6 89,73 191,149 l 185,139 47,-23 c 44,-23 98,-74 168,-160 69,-84 48,6 -41,179 -49,95 -51,102 -39,135 18,52 16,68 -13,96 -21,22 -32,25 -72,22 -43,-4 -51,-1 -87,33 -77,72 -197,154 -208,143 -3,-3 19,-38 50,-77 68,-89 99,-149 105,-207 l 5,-45 -124,-93 c -68,-51 -130,-95 -137,-98 -10,-4 -19,30 -35,138 -12,79 -25,153 -28,165 -4,19 0,22 38,25 l 43,3 -33,37 c -18,20 -50,45 -72,54 -37,17 -39,20 -39,61 v 43 h -60 -60 v -43 c 0,-39 -3,-44 -33,-55 -18,-6 -52,-32 -77,-57 l -44,-45 h 46 c 26,0 49,-3 51,-7 5,-9 -58,-301 -66,-310 -6,-6 -60,24 -169,93 l -66,43 9,40 c 5,23 18,64 29,93 11,28 18,53 16,55 -2,2 -39,6 -82,9 l -79,7 -24,-44 c -14,-24 -48,-67 -77,-95 -29,-27 -55,-61 -58,-75 -3,-13 -18,-85 -34,-159 l -29,-135 36,-7 c 20,-4 52,-7 71,-7 35,-1 37,1 85,89 26,50 54,95 61,100 8,8 58,-18 173,-86 l 161,-97 v -43 -44 h -55 -55 v -47 l -1,-48 -111,-82 c -61,-46 -120,-83 -130,-83 -9,0 -81,21 -158,46 -311,102 -638,302 -852,521 l -57,58 387,401 387,401 75,-70 c 41,-39 112,-95 158,-125 z m 612,-238 v -35 l -42,3 c -32,2 -44,8 -46,21 -7,35 6,47 48,47 39,0 40,-1 40,-36 z m 401,-80 c 102,-83 192,-200 262,-339 59,-120 57,-127 -14,-55 -35,36 -85,75 -111,88 -55,25 -70,45 -98,128 -22,64 -61,142 -95,189 -53,72 -45,71 56,-11 z m -372,16 c 31,-9 91,-55 91,-69 0,-3 -74,-6 -165,-6 -91,0 -165,3 -165,7 0,12 67,59 97,68 39,12 102,12 142,0 z m -519,-102 c 0,-6 -9,-41 -19,-77 -11,-36 -24,-84 -30,-106 -6,-24 -28,-59 -52,-85 -23,-25 -60,-78 -83,-119 -43,-78 -52,-87 -75,-72 -12,8 -10,29 13,138 34,161 41,178 81,203 18,11 48,45 66,75 29,49 37,55 66,55 19,0 33,-5 33,-12 z m 60,-5 c 0,-4 -9,-36 -20,-72 -11,-36 -25,-86 -31,-111 -7,-30 -23,-57 -48,-80 -21,-19 -57,-72 -81,-117 -30,-57 -49,-83 -62,-83 -10,0 -18,2 -18,5 0,18 93,167 122,196 23,22 40,52 47,80 33,131 55,189 73,189 10,0 18,-3 18,-7 z m 517,-138 c 12,-77 25,-155 28,-172 l 6,-33 h -167 c -130,0 -165,3 -161,13 2,7 20,86 38,175 l 34,163 100,-3 100,-3 z m 358,-22 c 13,-16 24,-32 24,-38 0,-10 -318,-251 -345,-262 -11,-4 -14,6 -14,46 0,39 4,51 15,51 8,0 15,6 15,13 1,9 264,215 278,217 2,0 14,-12 27,-27 z m -781,-103 c 70,-43 106,-71 106,-82 0,-10 7,-18 15,-18 11,0 15,-12 15,-46 0,-46 0,-46 -22,-32 -13,8 -78,48 -146,88 -67,40 -125,76 -127,81 -7,10 35,81 45,77 4,-2 55,-32 114,-68 z m 264,-197 3,-93 h -56 -55 v 96 95 l 53,-3 52,-3 z m 52,62 c 0,-33 -2,-35 -20,-25 -12,6 -20,21 -20,35 0,18 5,25 20,25 16,0 20,-7 20,-35 z m 118,-62 3,-93 h -51 -50 v 96 95 l 48,-3 47,-3 z m -118,-53 c 0,-48 -1,-50 -20,-40 -24,13 -26,47 -3,72 9,10 18,18 20,18 1,0 3,-23 3,-50 z m 155,-40 c 3,-5 2,-10 -4,-10 -5,0 -13,5 -16,10 -3,6 -2,10 4,10 5,0 13,-4 16,-10 z m 55,-65 v -35 h -240 -240 v 35 35 h 240 240 z m 200,-87 c 93,-57 166,-106 162,-109 -4,-4 -30,-12 -59,-18 l -52,-11 -138,83 c -101,61 -131,83 -115,85 18,3 22,10 22,38 0,19 3,34 6,34 3,0 81,-46 174,-102 z m -630,-1 c 0,-29 -8,-39 -77,-91 -73,-54 -81,-57 -121,-52 -81,11 -79,16 31,99 77,58 110,76 135,77 30,0 32,-2 32,-33 z m 388,-9 3,-38 h -185 -186 v 40 40 l 183,-2 182,-3 z m 179,-81 c 40,-23 73,-45 73,-48 0,-4 -28,-12 -62,-18 -59,-10 -63,-9 -95,15 -18,13 -56,35 -84,49 -49,22 -50,24 -23,27 25,2 29,8 32,36 l 3,32 42,-25 c 23,-14 75,-44 114,-68 z m -529,22 c 9,0 -5,-9 -33,-20 -27,-11 -65,-32 -83,-46 -18,-14 -36,-23 -38,-20 -9,9 110,96 124,92 8,-3 21,-5 30,-6 z m 293,-19 c 35,-11 82,-31 104,-45 l 40,-24 -272,-1 c -150,0 -273,2 -273,5 0,8 83,48 140,66 75,24 182,24 261,-1 z"
       id="path445"
       style="fill:#000080" />
    <path
       d="m 4608,6049 c -16,-9 -18,-27 -18,-152 0,-78 3,-186 7,-240 l 6,-98 31,8 c 17,4 76,8 131,8 91,0 104,-2 148,-28 26,-15 55,-39 64,-53 l 16,-25 41,39 c 23,22 56,48 75,57 45,23 139,22 217,-3 l 61,-19 6,231 6,231 -27,24 -27,24 -3,-221 -2,-221 -103,6 c -91,5 -108,3 -154,-17 -29,-12 -58,-28 -64,-36 -6,-8 -15,-14 -20,-14 -5,0 -10,111 -11,248 l -2,247 -6,-250 c -3,-137 -7,-245 -8,-239 -1,6 -21,21 -44,35 -39,22 -54,24 -166,24 h -122 v 223 c 0,122 -3,222 -7,222 -5,0 -16,-5 -25,-11 z"
       id="path447"
       style="fill:#000080" />
    <path
       d="m 4770,6040 c 0,-5 9,-10 20,-10 11,0 20,5 20,10 0,6 -9,10 -20,10 -11,0 -20,-4 -20,-10 z"
       id="path449"
       style="fill:#000080" />
    <path
       d="m 5140,6040 c 0,-5 9,-10 20,-10 11,0 20,5 20,10 0,6 -9,10 -20,10 -11,0 -20,-4 -20,-10 z"
       id="path451"
       style="fill:#000080" />
    <path
       d="m 4870,6030 c 0,-13 28,-25 38,-16 3,4 0,11 -8,16 -20,13 -30,12 -30,0 z"
       id="path453"
       style="fill:#000080" />
    <path
       d="m 4672,6023 c -6,-2 -10,-9 -7,-13 7,-11 35,-2 35,11 0,10 -8,10 -28,2 z"
       id="path455"
       style="fill:#000080" />
    <path
       d="m 5025,6019 c -4,-6 -5,-12 -3,-14 7,-7 48,7 48,16 0,13 -37,11 -45,-2 z"
       id="path457"
       style="fill:#000080" />
    <path
       d="m 5250,6020 c 0,-5 9,-14 20,-20 16,-8 20,-8 20,4 0,7 -7,17 -16,20 -21,8 -24,8 -24,-4 z"
       id="path459"
       style="fill:#000080" />
    <path
       d="m 4770,5970 c 0,-5 9,-10 20,-10 11,0 20,5 20,10 0,6 -9,10 -20,10 -11,0 -20,-4 -20,-10 z"
       id="path461"
       style="fill:#000080" />
    <path
       d="m 5140,5970 c 0,-5 9,-10 20,-10 11,0 20,5 20,10 0,6 -9,10 -20,10 -11,0 -20,-4 -20,-10 z"
       id="path463"
       style="fill:#000080" />
    <path
       d="m 4873,5957 c 5,-15 37,-22 37,-9 0,5 -9,12 -21,15 -13,3 -19,1 -16,-6 z"
       id="path465"
       style="fill:#000080" />
    <path
       d="m 4675,5949 c -10,-14 -1,-21 19,-13 9,3 13,10 10,15 -7,12 -21,11 -29,-2 z"
       id="path467"
       style="fill:#000080" />
    <path
       d="m 5030,5950 c -8,-5 -12,-12 -8,-15 9,-9 48,4 48,16 0,12 -21,11 -40,-1 z"
       id="path469"
       style="fill:#000080" />
    <path
       d="m 5250,5946 c 0,-14 29,-31 38,-21 6,6 -18,35 -29,35 -5,0 -9,-6 -9,-14 z"
       id="path471"
       style="fill:#000080" />
    <path
       d="m 4770,5900 c 0,-5 9,-10 20,-10 11,0 20,5 20,10 0,6 -9,10 -20,10 -11,0 -20,-4 -20,-10 z"
       id="path473"
       style="fill:#000080" />
    <path
       d="m 5140,5900 c 0,-5 9,-10 20,-10 11,0 20,5 20,10 0,6 -9,10 -20,10 -11,0 -20,-4 -20,-10 z"
       id="path475"
       style="fill:#000080" />
    <path
       d="m 4680,5880 c -20,-12 -5,-24 16,-12 9,5 12,12 7,15 -5,3 -15,2 -23,-3 z"
       id="path477"
       style="fill:#000080" />
    <path
       d="m 4875,5880 c 3,-5 13,-10 21,-10 8,0 12,5 9,10 -3,6 -13,10 -21,10 -8,0 -12,-4 -9,-10 z"
       id="path479"
       style="fill:#000080" />
    <path
       d="m 5030,5880 c -8,-5 -12,-12 -8,-15 9,-9 48,4 48,16 0,12 -21,11 -40,-1 z"
       id="path481"
       style="fill:#000080" />
    <path
       d="m 5250,5875 c 0,-8 2,-15 4,-15 2,0 11,-3 20,-6 23,-9 20,13 -4,26 -16,9 -20,8 -20,-5 z"
       id="path483"
       style="fill:#000080" />
    <path
       d="m 4770,5830 c 0,-5 9,-10 20,-10 11,0 20,5 20,10 0,6 -9,10 -20,10 -11,0 -20,-4 -20,-10 z"
       id="path485"
       style="fill:#000080" />
    <path
       d="m 5140,5830 c 0,-5 9,-10 20,-10 11,0 20,5 20,10 0,6 -9,10 -20,10 -11,0 -20,-4 -20,-10 z"
       id="path487"
       style="fill:#000080" />
    <path
       d="m 4680,5810 c -20,-12 -5,-24 16,-12 9,5 12,12 7,15 -5,3 -15,2 -23,-3 z"
       id="path489"
       style="fill:#000080" />
    <path
       d="m 4870,5811 c 0,-11 26,-22 34,-14 3,3 3,10 0,14 -7,12 -34,11 -34,0 z"
       id="path491"
       style="fill:#000080" />
    <path
       d="m 5030,5810 c -8,-5 -12,-12 -8,-15 10,-10 49,5 43,16 -8,11 -16,11 -35,-1 z"
       id="path493"
       style="fill:#000080" />
    <path
       d="m 5250,5801 c 0,-10 30,-24 37,-17 3,3 2,9 -2,15 -8,13 -35,15 -35,2 z"
       id="path495"
       style="fill:#000080" />
    <path
       d="m 4780,5760 c -20,-12 -10,-19 14,-10 11,3 15,9 10,13 -6,3 -16,2 -24,-3 z"
       id="path497"
       style="fill:#000080" />
    <path
       d="m 5140,5756 c 0,-9 7,-12 20,-9 11,3 20,9 20,14 0,5 -9,9 -20,9 -11,0 -20,-6 -20,-14 z"
       id="path499"
       style="fill:#000080" />
    <path
       d="m 4675,5736 c -11,-8 -14,-16 -8,-19 6,-4 18,0 28,7 11,8 14,16 8,19 -6,4 -18,0 -28,-7 z"
       id="path501"
       style="fill:#000080" />
    <path
       d="m 4870,5741 c 0,-11 26,-22 34,-14 3,3 3,10 0,14 -7,12 -34,11 -34,0 z"
       id="path503"
       style="fill:#000080" />
    <path
       d="m 5038,5743 c -10,-3 -18,-8 -18,-13 0,-16 17,-19 35,-6 20,14 10,25 -17,19 z"
       id="path505"
       style="fill:#000080" />
    <path
       d="m 5250,5731 c 0,-10 30,-24 37,-17 3,3 2,9 -2,15 -8,13 -35,15 -35,2 z"
       id="path507"
       style="fill:#000080" />
    <path
       d="m 4780,5690 c -20,-12 -5,-24 16,-12 9,5 12,12 7,15 -5,3 -15,2 -23,-3 z"
       id="path509"
       style="fill:#000080" />
    <path
       d="m 5140,5686 c 0,-9 9,-14 20,-13 11,1 20,7 20,14 0,7 -9,13 -20,13 -11,0 -20,-6 -20,-14 z"
       id="path511"
       style="fill:#000080" />
    <path
       d="m 4870,5671 c 0,-10 30,-24 37,-17 3,3 2,9 -2,15 -8,13 -35,15 -35,2 z"
       id="path513"
       style="fill:#000080" />
    <path
       d="m 5035,5666 c -11,-8 -14,-16 -8,-19 6,-4 18,0 28,7 11,8 14,16 8,19 -6,4 -18,0 -28,-7 z"
       id="path515"
       style="fill:#000080" />
    <path
       d="m 4665,5661 c -10,-17 11,-21 31,-6 18,14 18,14 -3,15 -12,0 -24,-4 -28,-9 z"
       id="path517"
       style="fill:#000080" />
    <path
       d="m 5250,5660 c 0,-13 28,-25 38,-16 3,4 0,11 -8,16 -20,13 -30,12 -30,0 z"
       id="path519"
       style="fill:#000080" />
    <path
       d="m 3774,6376 c -8,-22 3,-49 19,-43 6,2 12,14 12,27 0,27 -22,39 -31,16 z"
       id="path521"
       style="fill:#000080" />
    <path
       d="m 3574,6355 c -4,-9 -2,-21 4,-27 15,-15 44,-1 40,19 -4,23 -36,29 -44,8 z"
       id="path523"
       style="fill:#000080" />
    <path
       d="m 3667,6333 c -11,-10 -8,-41 4,-49 6,-3 18,1 27,9 13,13 13,19 2,31 -14,17 -23,20 -33,9 z"
       id="path525"
       style="fill:#000080" />
    <path
       d="m 3370,6305 c -10,-12 -10,-18 0,-29 16,-20 42,-8 38,17 -4,26 -21,32 -38,12 z"
       id="path527"
       style="fill:#000080" />
    <path
       d="m 3557,6274 c -16,-16 -7,-44 14,-44 15,0 20,5 17,22 -3,22 -19,33 -31,22 z"
       id="path529"
       style="fill:#000080" />
    <path
       d="m 3444,6225 c -7,-18 3,-35 21,-35 15,0 24,19 18,38 -6,17 -32,15 -39,-3 z"
       id="path531"
       style="fill:#000080" />
    <path
       d="m 3197,6217 c -3,-8 -2,-20 3,-27 11,-18 42,-4 38,17 -4,22 -34,29 -41,10 z"
       id="path533"
       style="fill:#000080" />
    <path
       d="m 3316,6141 c -10,-16 5,-42 23,-39 21,4 21,42 -1,46 -9,2 -19,-1 -22,-7 z"
       id="path535"
       style="fill:#000080" />
    <path
       d="m 3134,6125 c -8,-21 3,-47 19,-43 6,3 13,14 15,25 4,24 -26,40 -34,18 z"
       id="path537"
       style="fill:#000080" />
    <path
       d="m 3033,6089 c -8,-8 -9,-18 -2,-30 12,-24 41,-13 37,14 -4,25 -19,32 -35,16 z"
       id="path539"
       style="fill:#000080" />
    <path
       d="m 2912,6028 c 2,-13 10,-23 18,-23 8,0 16,10 18,23 3,17 -2,22 -18,22 -16,0 -21,-5 -18,-22 z"
       id="path541"
       style="fill:#000080" />
    <path
       d="m 2907,5943 c -11,-10 -8,-41 4,-49 6,-3 18,1 27,9 13,13 13,19 2,31 -14,17 -23,20 -33,9 z"
       id="path543"
       style="fill:#000080" />
    <path
       d="m 2977,5937 c -3,-8 -2,-20 3,-27 11,-18 42,-4 38,17 -4,22 -34,29 -41,10 z"
       id="path545"
       style="fill:#000080" />
    <path
       d="m 6204,6376 c -8,-22 3,-49 19,-43 6,2 12,14 12,27 0,27 -22,39 -31,16 z"
       id="path547"
       style="fill:#000080" />
    <path
       d="m 6396,6361 c -10,-16 5,-42 23,-39 21,4 21,42 -1,46 -9,2 -19,-1 -22,-7 z"
       id="path549"
       style="fill:#000080" />
    <path
       d="m 6310,6325 c -11,-13 -11,-19 3,-33 20,-19 41,-5 35,24 -4,24 -22,28 -38,9 z"
       id="path551"
       style="fill:#000080" />
    <path
       d="m 6603,6304 c -3,-8 1,-22 9,-30 13,-13 16,-13 28,0 10,13 10,19 0,31 -16,19 -29,19 -37,-1 z"
       id="path553"
       style="fill:#000080" />
    <path
       d="m 6427,6273 c -15,-15 -7,-43 13,-43 15,0 20,7 20,25 0,24 -18,34 -33,18 z"
       id="path555"
       style="fill:#000080" />
    <path
       d="m 6527,6227 c -3,-8 -2,-20 3,-27 11,-18 42,-4 38,17 -4,22 -34,29 -41,10 z"
       id="path557"
       style="fill:#000080" />
    <path
       d="m 6774,6215 c -7,-18 3,-35 21,-35 18,0 26,15 19,34 -8,20 -33,21 -40,1 z"
       id="path559"
       style="fill:#000080" />
    <path
       d="m 6654,6135 c -7,-18 3,-35 21,-35 15,0 28,27 19,41 -8,14 -34,11 -40,-6 z"
       id="path561"
       style="fill:#000080" />
    <path
       d="m 6853,6133 c -16,-6 -17,-39 -2,-49 6,-3 18,1 27,10 14,14 14,18 2,30 -8,7 -21,12 -27,9 z"
       id="path563"
       style="fill:#000080" />
    <path
       d="m 6947,6093 c -12,-12 -7,-41 7,-46 22,-9 41,19 26,38 -14,16 -23,19 -33,8 z"
       id="path565"
       style="fill:#000080" />
    <path
       d="m 7064,6035 c -7,-18 3,-35 21,-35 15,0 24,19 18,38 -6,17 -32,15 -39,-3 z"
       id="path567"
       style="fill:#000080" />
    <path
       d="m 6994,5935 c -7,-18 3,-35 21,-35 15,0 28,27 19,41 -8,14 -34,11 -40,-6 z"
       id="path569"
       style="fill:#000080" />
    <path
       d="m 7074,5936 c -8,-22 3,-49 19,-43 6,2 12,14 12,27 0,27 -22,39 -31,16 z"
       id="path571"
       style="fill:#000080" />
    <path
       d="m 3574,5705 c -4,-9 -2,-21 4,-27 15,-15 44,-1 40,19 -4,23 -36,29 -44,8 z"
       id="path573"
       style="fill:#000080" />
    <path
       d="m 3404,5615 c -4,-9 -2,-21 4,-27 15,-15 44,-1 40,19 -4,23 -36,29 -44,8 z"
       id="path575"
       style="fill:#000080" />
    <path
       d="m 3336,5524 c -4,-10 -2,-22 3,-27 14,-14 43,0 39,20 -4,24 -34,28 -42,7 z"
       id="path577"
       style="fill:#000080" />
    <path
       d="m 3234,5485 c -4,-9 -2,-21 4,-27 15,-15 44,-1 40,19 -4,23 -36,29 -44,8 z"
       id="path579"
       style="fill:#000080" />
    <path
       d="m 3190,5346 c -10,-13 -10,-19 0,-32 12,-14 15,-14 29,0 14,15 14,17 0,32 -14,14 -17,14 -29,0 z"
       id="path581"
       style="fill:#000080" />
    <path
       d="m 6194,5766 c -9,-24 3,-47 21,-40 18,7 16,45 -2,52 -7,2 -16,-3 -19,-12 z"
       id="path583"
       style="fill:#000080" />
    <path
       d="m 6331,5641 c -17,-11 -10,-46 9,-46 17,0 26,33 13,46 -4,4 -14,4 -22,0 z"
       id="path585"
       style="fill:#000080" />
    <path
       d="m 6450,5545 c -10,-12 -10,-18 0,-29 16,-20 42,-8 38,17 -4,26 -21,32 -38,12 z"
       id="path587"
       style="fill:#000080" />
    <path
       d="m 6634,5525 c -4,-9 -2,-21 4,-27 15,-15 44,-1 40,19 -4,23 -36,29 -44,8 z"
       id="path589"
       style="fill:#000080" />
    <path
       d="m 6790,5344 c -10,-11 -10,-17 0,-28 15,-19 40,-10 40,14 0,24 -25,33 -40,14 z"
       id="path591"
       style="fill:#000080" />
    <path
       d="m 2500,8139 c -8,-14 -17,-18 -28,-14 -87,36 -168,24 -235,-36 -55,-48 -77,-93 -77,-157 0,-68 32,-108 96,-118 28,-4 43,-11 41,-18 -3,-6 -28,-65 -57,-130 -88,-204 -150,-406 -205,-662 -5,-24 -42,-38 -72,-28 -118,42 -75,235 58,260 35,7 49,19 49,42 0,30 -106,3 -156,-40 -49,-44 -74,-97 -74,-160 0,-93 55,-148 146,-148 h 37 l -7,-52 c -4,-29 -10,-56 -14,-60 -4,-4 -43,-25 -87,-47 -44,-22 -95,-55 -114,-74 -28,-30 -32,-40 -26,-65 8,-39 24,-52 52,-41 18,7 21,13 16,41 -4,31 -1,36 34,60 21,14 56,34 78,46 l 40,20 -3,-277 c -2,-206 -5,-278 -15,-283 -6,-4 -43,-21 -82,-38 -103,-46 -129,-78 -89,-111 19,-16 51,0 46,23 -1,9 4,21 12,27 21,17 136,61 136,51 0,-4 -32,-32 -70,-60 -93,-69 -112,-107 -72,-143 24,-22 52,-1 45,35 -4,22 2,32 43,62 27,19 52,36 56,36 4,0 10,-21 13,-47 13,-93 66,-348 74,-356 5,-5 18,-6 29,-3 15,5 20,15 19,33 -2,26 1,27 82,43 74,15 88,21 117,53 l 34,36 31,-39 c 35,-43 45,-47 71,-26 16,12 10,22 -67,112 l -85,99 48,11 c 40,9 47,14 47,35 0,13 -4,23 -10,23 -5,-1 -81,-14 -167,-30 -87,-15 -160,-26 -162,-23 -3,3 -6,29 -8,59 l -3,55 168,20 168,20 -3,25 c -2,14 -7,24 -13,24 -167,-21 -326,-37 -330,-33 -2,3 -7,55 -11,117 -7,110 -7,112 14,112 18,0 22,-6 22,-35 0,-63 57,-95 108,-60 16,12 27,13 41,5 73,-38 153,41 135,135 -3,19 -17,51 -30,70 l -23,35 h 39 c 36,0 40,3 40,24 0,28 -19,31 -215,35 -66,1 -123,5 -126,9 -4,4 -4,33 -2,65 4,44 9,57 22,57 9,0 86,-9 171,-20 85,-11 156,-20 158,-20 1,0 2,11 2,24 0,29 1,29 -198,52 l -144,18 7,55 c 4,31 9,59 11,62 2,3 78,-8 169,-26 91,-17 167,-29 170,-27 3,3 5,15 5,26 0,20 -13,24 -162,50 -90,16 -166,30 -169,32 -6,4 36,222 44,230 2,2 25,7 51,10 l 47,7 -22,-43 c -18,-34 -20,-49 -13,-78 22,-87 151,-102 184,-21 39,92 -59,189 -190,189 -36,0 -41,3 -35,18 3,9 9,29 12,45 3,15 11,27 18,27 7,0 75,-18 151,-39 183,-52 179,-51 179,-22 0,26 12,21 -277,101 -21,6 -38,17 -38,24 0,17 99,266 112,283 7,9 16,9 34,1 29,-14 30,-20 4,-43 -46,-42 -45,-138 4,-184 71,-67 196,-6 196,97 0,37 -1,37 45,15 31,-15 37,-15 45,-3 18,28 9,37 -77,74 -49,21 -94,43 -100,48 -30,25 2,111 47,126 44,16 70,-8 70,-62 0,-38 3,-44 24,-48 28,-6 36,7 36,55 0,76 -73,131 -143,108 -49,-17 -88,-61 -94,-110 -3,-22 -7,-41 -9,-41 -9,0 -54,24 -54,29 0,4 26,54 59,111 85,152 95,170 102,170 3,0 67,-40 143,-90 75,-49 141,-90 146,-90 5,0 14,9 20,19 9,17 -5,29 -127,108 -75,48 -140,91 -146,94 -5,4 -2,17 8,32 16,24 15,26 -4,36 -27,15 -29,14 -41,-10 z m -61,-58 c 10,-7 1,-30 -44,-110 -32,-55 -64,-106 -72,-112 -19,-16 -89,5 -103,31 -30,56 14,144 95,188 24,14 104,15 124,3 z m 39,-447 c 33,-23 30,-78 -7,-115 -35,-34 -54,-36 -81,-9 -24,24 -26,67 -3,100 30,44 53,51 91,24 z m -164,-480 c 24,-35 17,-78 -12,-82 -47,-7 -68,41 -36,86 20,28 28,28 48,-4 z m -71,-619 c 62,-43 88,-126 50,-167 -32,-35 -63,-10 -63,51 0,26 -4,31 -24,31 -23,0 -25,-4 -28,-52 -2,-39 -7,-53 -18,-53 -11,0 -16,14 -18,53 l -3,52 h -50 -49 v 55 55 h 83 c 72,0 87,-3 120,-25 z m 41,-598 c 33,-44 34,-91 3,-112 -25,-16 -166,-46 -171,-36 -5,9 -25,101 -28,131 -3,22 2,25 52,36 97,21 116,18 144,-19 z"
       id="path593"
       style="fill:#000080" />
    <path
       d="m 7626,7927 c -16,-11 -17,-17 -6,-36 6,-13 10,-24 8,-26 -2,-1 -72,-37 -156,-79 -140,-70 -152,-78 -142,-96 6,-11 13,-20 15,-20 3,0 73,34 156,76 89,44 155,72 160,67 5,-5 36,-70 69,-144 l 59,-134 -25,-13 c -35,-18 -54,-9 -54,26 0,40 -38,94 -83,115 -30,15 -43,17 -70,8 -88,-30 -114,-135 -51,-210 l 24,-29 -35,-12 c -38,-13 -41,-18 -22,-43 11,-16 24,-12 165,43 85,33 157,60 162,60 7,0 70,-172 70,-191 0,-4 -9,-9 -20,-12 -16,-4 -24,2 -35,29 -8,19 -24,38 -37,43 -29,11 -75,-5 -83,-29 -5,-15 -13,-17 -45,-13 -113,15 -131,-166 -23,-229 l 37,-23 -36,-10 c -46,-13 -50,-17 -41,-42 8,-19 13,-19 158,23 83,24 157,43 167,43 12,1 18,-13 26,-56 5,-32 6,-60 2,-63 -5,-3 -81,-18 -169,-35 -153,-27 -161,-30 -161,-52 0,-30 8,-29 195,6 83,16 151,28 152,27 0,0 4,-26 8,-57 l 7,-56 -39,-6 c -21,-4 -58,-7 -83,-7 -110,0 -181,-100 -135,-189 18,-35 12,-41 -37,-41 -34,0 -38,-2 -38,-26 v -27 l 68,6 c 37,4 115,9 175,13 l 107,7 v -68 -68 l -175,6 -175,7 v -24 c 0,-21 5,-24 68,-29 37,-4 113,-7 169,-7 56,0 104,-4 107,-9 5,-8 -8,-179 -20,-268 -6,-41 -8,-43 -39,-43 h -32 l 4,68 c 3,53 0,74 -15,101 -53,96 -193,91 -244,-10 -65,-127 51,-269 179,-218 28,12 83,13 115,3 13,-4 15,-13 11,-39 -5,-32 -4,-35 20,-35 23,0 26,5 36,63 9,56 20,140 40,322 l 6,60 50,6 c 74,9 91,16 124,55 39,44 39,77 0,116 -29,30 -32,30 -103,26 l -73,-5 -7,117 c -14,245 -67,522 -146,760 l -48,144 34,39 c 77,91 100,208 54,282 -47,77 -128,96 -207,50 l -43,-26 -12,26 c -13,29 -17,30 -42,12 z m 214,-52 c 62,-32 77,-114 36,-200 -43,-93 -48,-91 -110,41 -31,64 -56,119 -56,122 0,3 10,16 22,29 25,27 66,30 108,8 z m -211,-279 c 14,-15 25,-42 28,-69 5,-44 5,-45 -33,-57 -36,-12 -39,-12 -66,19 -30,34 -39,96 -16,119 20,20 63,14 87,-12 z m 143,-342 c 11,-38 16,-45 33,-41 90,21 81,24 95,-33 7,-28 11,-53 9,-54 -2,-2 -39,-14 -83,-26 -75,-21 -80,-21 -122,-5 -55,21 -94,66 -94,110 0,66 55,72 75,7 9,-32 27,-40 53,-23 11,7 11,15 -3,47 -17,42 -14,64 10,64 10,0 20,-17 27,-46 z m 212,-601 c 3,-42 3,-80 -1,-84 -7,-6 -118,-13 -165,-10 -54,3 -79,99 -37,137 19,17 74,28 165,33 l 31,1 z m 192,-184 c 40,-33 -5,-79 -87,-87 l -49,-5 v 46 c 0,40 3,47 28,56 32,12 88,7 108,-10 z m -375,-279 c 54,-30 61,-121 13,-172 -47,-48 -112,-31 -134,37 -28,84 51,172 121,135 z"
       id="path595"
       style="fill:#000080" />
    <path
       d="m 7471,5851 -23,-18 43,-37 c 98,-85 251,-137 398,-135 137,1 200,25 173,66 -5,8 -21,8 -62,-3 -151,-39 -356,9 -468,110 -37,34 -38,34 -61,17 z"
       id="path597"
       style="fill:#000080" />
    <path
       d="m 2390,5440 c -134,-62 -146,-66 -154,-49 -10,22 -44,25 -52,6 -6,-16 31,-107 108,-269 l 61,-128 -47,-41 c -78,-69 -97,-134 -53,-183 37,-42 99,-38 162,10 26,19 48,34 49,32 2,-2 21,-31 44,-64 65,-97 187,-250 281,-353 85,-93 271,-268 319,-299 23,-15 25,-15 39,4 13,17 11,21 -12,42 l -26,22 37,48 c 21,26 41,51 45,56 8,8 27,-2 73,-38 18,-15 16,-18 -36,-88 -64,-85 -71,-100 -58,-133 22,-58 109,-53 135,8 15,36 8,70 -12,63 -8,-3 -18,-6 -23,-6 -5,0 -10,-10 -12,-22 -3,-24 -38,-39 -38,-17 0,7 21,41 48,75 37,49 51,62 67,58 32,-8 75,31 75,67 0,38 -40,60 -72,40 -17,-11 -25,-9 -59,15 -21,15 -39,30 -39,34 0,5 18,31 39,58 39,49 40,50 20,68 -10,9 -21,15 -22,13 -2,-2 -48,-61 -102,-131 -54,-71 -102,-128 -108,-128 -6,0 -30,19 -54,42 l -42,41 120,125 c 94,98 117,128 108,138 -6,8 -17,14 -23,14 -6,1 -63,-54 -127,-122 l -117,-123 -68,74 c -78,84 -85,96 -72,133 23,65 88,81 138,33 16,-16 32,-37 35,-46 5,-15 10,-16 28,-8 21,9 22,16 22,123 0,128 -12,156 -67,156 -28,0 -28,0 -12,-25 22,-34 25,-132 4,-126 -77,21 -125,7 -175,-52 l -34,-40 -21,24 c -52,60 -180,243 -177,252 2,6 12,16 23,24 18,12 24,8 70,-50 48,-60 51,-62 99,-65 85,-4 155,59 155,141 0,33 -3,37 -25,37 -20,0 -25,-5 -25,-25 0,-34 -25,-82 -49,-95 -42,-22 -69,-12 -111,41 -22,28 -40,55 -40,60 0,5 30,30 67,57 111,79 109,77 94,96 -8,9 -20,15 -27,12 -6,-2 -69,-46 -139,-96 -70,-50 -128,-90 -130,-88 -12,13 -67,110 -64,112 2,2 68,40 147,85 78,46 142,88 142,95 0,39 -25,32 -156,-45 -74,-44 -140,-82 -148,-85 -22,-9 -90,130 -77,155 22,40 73,41 110,2 l 28,-30 35,37 c 48,50 58,72 58,127 0,35 -6,51 -25,70 -13,14 -29,25 -35,25 -22,0 -8,17 25,29 19,7 35,16 35,21 0,19 -13,40 -24,39 -6,0 -76,-31 -156,-69 z m 112,-80 c 22,-27 23,-68 3,-97 l -15,-21 -39,20 c -34,16 -45,18 -81,8 -22,-6 -44,-18 -47,-26 -3,-7 -8,-14 -12,-14 -11,0 -54,94 -44,97 4,2 35,16 68,33 73,36 138,36 167,0 z m -99,-439 c 24,-40 22,-55 -14,-90 -54,-55 -125,-34 -99,29 12,29 72,90 88,90 4,0 15,-13 25,-29 z"
       id="path599"
       style="fill:#000080" />
    <path
       d="m 7474,5391 c -38,-23 -59,-77 -51,-132 6,-45 7,-44 -37,-25 -32,13 -34,13 -44,-9 -10,-23 -6,-25 144,-92 84,-37 154,-72 154,-76 0,-12 -73,-136 -138,-235 l -54,-82 -29,17 c -16,10 -29,21 -29,25 0,4 20,38 44,76 55,87 60,103 43,145 -14,33 -65,67 -102,67 -24,0 -72,-27 -79,-45 -19,-51 21,-135 65,-135 25,0 24,-9 -5,-44 l -23,-30 -89,56 c -86,55 -89,56 -102,36 -9,-12 -11,-23 -5,-27 5,-3 69,-44 141,-91 73,-47 132,-89 132,-94 0,-10 -41,-64 -134,-174 l -69,-83 -25,24 -24,25 41,37 c 51,47 68,99 47,148 -19,47 -51,67 -108,67 -39,0 -54,-6 -83,-31 -19,-17 -38,-42 -41,-55 -7,-29 -21,-30 -49,-4 -21,20 -22,20 -39,1 -16,-18 -12,-23 114,-132 l 131,-113 -46,-45 -46,-46 -121,123 c -117,121 -121,123 -139,105 -18,-18 -15,-21 104,-141 l 122,-124 -45,-40 c -25,-23 -81,-70 -124,-105 l -80,-64 -18,23 c -10,13 -18,26 -18,29 0,4 18,19 41,34 73,51 90,129 45,196 -57,84 -164,91 -234,16 l -24,-25 -46,29 c -43,27 -48,28 -59,12 -19,-26 -17,-30 37,-60 39,-22 50,-33 52,-57 2,-18 14,-37 30,-49 56,-42 104,21 62,81 -14,20 -13,24 11,48 21,21 32,25 58,20 57,-11 104,-83 79,-123 -4,-6 -35,-33 -69,-61 l -62,-49 36,-47 35,-46 -20,-17 c -19,-16 -20,-20 -7,-37 14,-19 16,-18 54,7 235,156 555,485 742,764 81,120 209,341 209,359 0,8 -9,18 -19,23 -15,8 -22,6 -32,-10 -14,-20 -15,-20 -85,11 -57,26 -76,39 -93,70 -27,48 -27,104 -1,130 42,42 96,9 88,-55 -3,-28 0,-39 14,-46 15,-8 25,-4 48,21 25,27 35,31 58,25 33,-8 53,-25 30,-25 -20,0 -48,-37 -48,-63 0,-55 97,-89 135,-47 61,67 -22,184 -125,178 -36,-2 -47,1 -55,17 -16,30 -74,65 -109,65 -17,0 -45,-9 -62,-19 z m 311,-192 c 0,-7 -8,-15 -17,-17 -18,-3 -25,18 -11,32 10,10 28,1 28,-15 z m -377,-195 c 24,-17 29,-43 10,-62 -17,-17 -35,-15 -58,8 -24,24 -25,34 -4,54 19,20 24,20 52,0 z m -218,-333 c 5,-11 10,-24 10,-30 0,-12 -56,-13 -105,-2 l -29,6 28,23 c 36,28 82,29 96,3 z m -27,-81 c 20,0 20,0 1,-21 -34,-38 -51,-42 -84,-17 -47,34 -40,52 16,44 26,-3 56,-6 67,-6 z"
       id="path601"
       style="fill:#000080" />
    <path
       d="m 3870,3958 -25,-83 h -93 c -50,0 -92,-1 -92,-2 0,-1 32,-24 70,-52 39,-28 70,-57 70,-64 0,-8 -11,-47 -25,-87 -14,-40 -24,-74 -22,-76 1,-1 32,20 69,47 37,27 72,49 78,49 6,0 41,-22 78,-49 37,-27 68,-48 69,-47 2,2 -8,36 -22,76 -14,40 -25,79 -25,87 0,7 32,36 70,64 39,28 70,51 70,52 0,1 -41,2 -92,2 h -92 l -26,82 c -14,46 -27,83 -30,83 -3,0 -17,-37 -30,-82 z"
       id="path603"
       style="fill:#000080" />
    <path
       d="m 6186,3954 -28,-85 -89,3 c -49,2 -89,1 -89,-2 0,-3 30,-25 66,-50 36,-24 68,-48 70,-52 4,-6 -3,-35 -42,-161 -4,-13 16,-2 64,32 38,28 74,51 80,51 5,0 36,-19 68,-43 33,-24 64,-46 71,-50 7,-4 -1,32 -18,80 -16,48 -29,87 -29,88 0,0 31,23 70,50 38,28 70,52 70,55 0,3 -39,5 -87,5 h -88 l -25,77 c -14,42 -27,79 -31,82 -3,3 -18,-33 -33,-80 z"
       id="path605"
       style="fill:#000080" />
    <path
       d="m 5461,3877 c -19,-6 -43,-24 -55,-40 -19,-26 -19,-32 -8,-130 15,-134 35,-207 62,-229 15,-12 39,-18 72,-18 93,0 129,69 97,185 -22,81 -79,107 -145,66 l -32,-19 -6,30 c -10,53 -7,84 12,101 29,26 61,21 80,-13 22,-39 62,-42 62,-6 0,34 -39,75 -75,81 -16,2 -45,-1 -64,-8 z m 104,-221 c 9,-13 18,-46 22,-74 5,-46 3,-51 -21,-67 -36,-24 -71,-13 -85,26 -16,46 -14,105 5,123 23,24 61,20 79,-8 z"
       id="path607"
       style="fill:#000080" />
    <path
       d="m 4503,3846 c -60,-30 -75,-78 -18,-56 15,6 29,9 30,8 2,-2 -10,-75 -26,-163 -16,-88 -29,-165 -29,-171 0,-7 11,-14 25,-16 14,-3 25,-3 25,-1 0,2 16,91 35,197 19,107 35,198 35,204 0,19 -36,18 -77,-2 z"
       id="path609"
       style="fill:#000080" />
    <path
       d="m 4780,3828 c -54,-28 -79,-152 -45,-218 21,-41 77,-51 138,-25 14,6 17,2 17,-21 0,-59 -19,-103 -47,-110 -34,-9 -56,5 -68,44 -7,24 -15,32 -32,32 -20,0 -23,-5 -23,-35 0,-56 35,-85 103,-85 39,0 59,5 74,20 31,28 45,114 41,245 -3,99 -6,117 -23,135 -26,25 -101,35 -135,18 z m 94,-54 c 18,-17 21,-88 7,-127 -20,-51 -83,-45 -102,10 -11,36 -5,99 13,121 15,17 63,15 82,-4 z"
       id="path611"
       style="fill:#000080" />
    <path
       d="m 5105,3828 c -32,-17 -45,-39 -45,-75 0,-29 3,-33 25,-33 20,0 25,5 25,24 0,52 53,73 91,35 37,-37 11,-121 -80,-254 -24,-35 -41,-72 -41,-88 v -29 l 103,7 c 56,4 105,9 110,12 4,2 7,13 7,24 0,18 -5,19 -87,12 l -87,-6 36,49 c 65,89 99,160 105,218 5,51 4,57 -25,85 -25,25 -39,31 -74,31 -24,0 -52,-6 -63,-12 z"
       id="path613"
       style="fill:#000080" />
    <path
       d="m 4360,2739 c -384,-25 -822,-83 -1172,-156 -64,-13 -78,-19 -78,-34 0,-23 12,-23 98,-4 37,8 113,24 170,34 l 102,18 v -52 -52 l -77,-13 c -106,-17 -108,-18 -85,-44 50,-55 57,-119 16,-157 l -25,-24 -37,20 c -28,15 -45,37 -71,87 -33,64 -35,67 -53,52 -17,-16 -16,-19 14,-76 62,-117 142,-152 203,-88 22,23 29,41 33,83 2,31 -1,63 -7,76 -7,11 -8,21 -4,21 4,1 27,5 51,9 l 42,8 v -143 -144 h 25 25 v 219 c 0,121 3,222 8,224 4,3 33,8 65,12 l 57,7 v -222 c 0,-206 1,-221 18,-218 15,3 17,23 20,225 l 2,221 28,6 c 15,3 46,8 70,11 l 42,7 v -91 -91 l -30,-6 c -42,-9 -39,-36 10,-87 39,-41 41,-41 55,-23 12,15 15,51 15,162 v 142 l 51,4 c 28,1 53,1 55,-1 2,-2 4,-59 4,-125 v -121 l -110,-94 c -87,-74 -107,-97 -99,-108 6,-7 14,-13 18,-13 3,0 45,34 91,75 47,41 88,75 93,75 4,0 7,-29 7,-64 0,-59 2,-64 20,-59 19,5 20,14 20,223 v 219 l 53,6 c 56,6 274,25 295,25 8,0 12,-16 12,-45 0,-51 1,-51 -117,-59 -84,-6 -107,-16 -128,-56 -36,-69 -4,-178 73,-253 35,-34 40,-36 52,-22 11,14 8,21 -22,53 -106,110 -103,232 6,232 24,0 64,3 90,6 l 46,7 v -152 c 0,-144 1,-151 20,-151 19,0 20,7 20,220 v 220 h 35 c 31,0 35,3 35,25 0,14 -3,24 -7,24 -5,-1 -69,-6 -143,-10 z"
       id="path615"
       style="fill:#000080" />
    <path
       d="m 4760,2732 c 0,-18 6,-22 30,-22 h 30 v -82 c 0,-110 13,-151 56,-185 l 35,-28 -60,-55 c -51,-47 -58,-57 -48,-71 11,-15 25,-6 117,72 l 105,89 3,-90 c 2,-81 5,-90 22,-90 19,0 20,10 22,218 l 3,217 34,3 c 19,2 50,1 68,-3 l 33,-6 v -213 c 0,-174 3,-215 14,-219 8,-3 17,-3 20,0 3,4 6,102 6,220 v 213 h 50 50 v -92 c 0,-69 5,-102 18,-127 39,-78 131,-102 178,-48 14,17 24,22 24,14 0,-31 59,-95 102,-112 45,-17 59,-15 141,20 15,6 17,0 17,-64 0,-64 2,-71 20,-71 19,0 20,7 20,216 v 216 l 35,-4 c 30,-3 35,-1 35,18 0,19 -7,22 -72,28 -40,4 -165,16 -278,27 -120,11 -335,22 -517,26 l -313,6 z m 270,-126 v -105 l -41,-24 c -35,-21 -46,-23 -70,-15 -42,15 -49,35 -49,147 v 101 h 80 80 z m 607,48 c 12,-13 25,-41 29,-61 6,-32 3,-40 -20,-60 -15,-13 -39,-23 -54,-23 -17,0 -38,-11 -55,-30 -35,-37 -75,-39 -114,-6 -26,23 -28,31 -32,110 -1,48 -1,92 2,99 4,10 28,11 113,4 97,-7 111,-11 131,-33 z m 186,-1 c 4,-2 7,-51 7,-108 0,-101 -1,-106 -29,-137 -26,-29 -35,-33 -81,-33 -46,0 -55,4 -81,33 -32,36 -38,62 -13,62 9,0 31,15 50,34 38,38 44,74 19,132 l -15,36 68,-7 c 37,-4 70,-9 75,-12 z"
       id="path617"
       style="fill:#000080" />
    <path
       d="m 6192,2628 c 3,-20 13,-24 126,-41 l 122,-19 v -108 -108 l -32,-27 c -25,-21 -38,-25 -62,-21 -39,7 -86,58 -86,92 0,53 70,91 120,64 24,-13 47,11 27,28 -51,43 -135,32 -167,-21 -54,-88 19,-207 126,-207 24,0 46,5 49,10 16,26 25,4 25,-59 0,-65 7,-81 36,-81 2,0 4,94 4,208 0,115 2,211 5,214 3,2 60,-7 127,-21 l 123,-26 3,-63 c 3,-70 -7,-92 -43,-92 -23,0 -71,39 -90,73 -6,12 -16,16 -27,12 -15,-6 -15,-12 8,-63 61,-140 185,-312 209,-292 11,9 3,25 -39,81 -29,38 -62,87 -74,108 l -23,40 35,-6 c 28,-4 39,-1 60,20 23,23 26,34 26,98 v 71 l 46,-7 c 80,-12 74,6 74,-231 0,-207 1,-214 20,-214 19,0 20,7 20,211 0,196 1,210 18,205 9,-3 38,-10 65,-17 l 47,-11 v -213 c 0,-185 2,-214 16,-219 9,-3 18,-6 20,-6 2,0 4,95 4,210 0,159 3,210 12,210 7,0 95,-23 195,-51 l 183,-51 v -84 c 0,-91 -13,-114 -39,-73 -55,84 -132,137 -223,153 -35,6 -38,5 -38,-15 0,-12 12,-42 26,-66 29,-50 57,-55 62,-10 5,42 36,34 93,-24 27,-28 49,-54 49,-58 0,-4 -37,-15 -82,-24 -45,-10 -86,-21 -91,-26 -16,-16 3,-49 45,-81 53,-38 72,-39 65,-2 -14,69 -16,65 48,78 33,7 66,13 73,14 9,0 12,-26 12,-100 0,-88 2,-100 19,-110 11,-5 22,-10 25,-10 3,0 6,95 6,211 0,196 1,210 18,205 9,-3 76,-25 147,-49 l 130,-44 3,-111 c 1,-62 -1,-112 -5,-111 -4,0 -34,33 -66,72 -60,75 -59,94 4,63 26,-13 31,-13 36,0 8,21 -14,43 -58,54 -132,36 -164,-154 -39,-236 31,-21 48,-25 85,-22 l 45,3 v -66 c 0,-66 7,-79 41,-79 5,0 10,94 11,208 l 3,208 62,-24 63,-24 2,-211 c 3,-192 5,-212 21,-215 16,-3 17,12 17,203 0,185 2,206 16,201 45,-17 61,-17 61,0 0,10 -15,23 -37,31 -20,8 -44,27 -52,41 -129,225 -160,273 -173,262 -11,-9 2,-35 65,-138 43,-70 78,-127 77,-128 -1,-1 -119,38 -262,85 -143,48 -345,111 -450,140 -107,30 -195,60 -202,69 -35,43 4,122 60,122 58,0 135,-59 190,-145 34,-53 45,-65 65,-65 22,0 -33,94 -93,158 -96,104 -193,127 -250,60 -23,-28 -26,-39 -23,-80 3,-26 3,-48 1,-48 -2,0 -48,11 -101,25 -132,33 -407,90 -582,120 -80,14 -155,28 -168,31 -20,4 -23,1 -20,-18 z m 1561,-607 c 43,-52 53,-70 42,-75 -39,-15 -115,53 -115,103 0,22 7,41 15,41 0,0 27,-31 58,-69 z"
       id="path619"
       style="fill:#000080" />
    <path
       d="m 2621,2449 c -302,-84 -679,-211 -960,-324 -132,-53 -245,-94 -251,-90 -13,8 -13,71 1,98 35,67 105,104 174,91 18,-3 52,-22 74,-41 35,-29 43,-32 62,-23 21,12 21,12 -12,47 -45,46 -80,64 -133,65 -62,1 -107,-17 -149,-60 -47,-48 -69,-103 -66,-160 l 3,-46 -239,-112 c -144,-68 -241,-119 -243,-128 -5,-25 14,-20 150,44 71,33 131,60 133,60 14,0 35,-36 35,-60 0,-39 -40,-83 -100,-109 -52,-22 -56,-27 -41,-49 7,-11 16,-10 49,7 73,37 112,22 112,-44 0,-53 -46,-112 -95,-121 -58,-11 -123,40 -161,126 -20,44 -25,47 -45,24 -30,-36 82,-184 149,-197 42,-8 76,2 117,36 73,60 99,174 50,223 -24,24 -24,27 -10,54 18,34 20,116 3,126 -11,7 104,73 130,74 9,0 12,-48 12,-209 0,-204 1,-209 20,-204 19,5 20,16 22,222 l 3,216 190,77 190,76 3,-30 c 2,-16 1,-35 -1,-42 -3,-6 -73,-39 -156,-71 -132,-53 -151,-63 -151,-82 0,-28 -2,-28 54,-3 25,10 46,18 46,16 0,-2 -7,-17 -15,-32 -32,-61 -7,-156 54,-207 38,-31 47,-33 55,-11 4,11 -7,31 -33,59 -63,69 -65,152 -5,207 15,13 137,68 151,68 2,0 3,-67 3,-150 0,-82 3,-150 8,-150 30,1 33,19 35,231 l 2,214 25,12 c 14,6 37,15 53,18 l 27,7 v -95 c 0,-53 5,-107 11,-120 26,-57 102,-57 168,0 34,29 41,41 41,71 0,34 -6,42 -82,101 l -81,65 189,63 c 104,35 192,63 196,63 5,0 8,-20 8,-45 v -44 l -57,-17 c -32,-9 -70,-25 -86,-36 -66,-47 -96,-185 -51,-244 36,-49 72,-69 120,-68 66,1 121,43 159,120 l 30,61 43,-49 c 46,-50 66,-59 76,-32 4,11 -8,32 -37,63 -50,53 -72,107 -62,150 9,40 21,48 106,72 41,11 82,22 92,25 16,5 17,-6 17,-145 0,-83 3,-151 8,-151 29,1 32,21 34,235 l 3,219 38,9 c 27,7 37,14 37,28 0,12 -7,19 -17,18 -10,0 -114,-27 -232,-60 z m 127,-56 -3,-47 -90,-24 c -99,-26 -137,-53 -156,-109 -11,-33 -12,-34 -30,-17 -18,16 -21,16 -35,2 -14,-14 -13,-19 10,-53 32,-46 32,-68 4,-125 -26,-51 -78,-90 -119,-90 -66,0 -119,85 -99,159 14,53 52,82 138,106 l 72,19 v 67 c 0,40 5,71 11,75 11,6 274,82 292,83 4,1 7,-20 5,-46 z m -670,-297 c 34,-27 62,-53 62,-57 0,-12 -51,-49 -77,-55 -14,-4 -33,0 -48,10 -23,15 -25,23 -25,92 0,85 -6,85 88,10 z"
       id="path621"
       style="fill:#000080" />
    <path
       d="m 8180,2085 c -21,-26 -7,-107 27,-158 28,-41 30,-46 15,-61 -20,-20 -19,-79 2,-111 8,-13 32,-36 53,-52 29,-23 46,-28 87,-27 28,0 61,4 74,8 22,8 22,7 22,-67 0,-66 2,-75 20,-80 20,-5 20,0 20,199 0,112 3,204 7,204 4,0 83,-33 175,-72 l 167,-73 1,-42 c 0,-24 -2,-43 -5,-43 -3,0 -48,18 -101,41 -90,38 -96,40 -119,25 -50,-33 -41,-114 25,-231 52,-92 66,-109 84,-102 12,5 8,16 -21,59 -66,98 -94,189 -69,223 13,19 17,18 107,-21 l 94,-41 3,-141 c 2,-129 4,-143 22,-152 20,-10 20,-7 20,195 0,113 2,205 5,205 3,0 22,-7 41,-15 34,-14 35,-14 32,7 -2,16 -32,33 -138,80 -223,98 -457,198 -464,198 -3,0 -6,-8 -6,-18 0,-12 16,-25 50,-39 l 50,-21 v -101 -101 l -32,-20 c -50,-30 -109,-27 -147,9 -60,56 -26,119 50,92 38,-13 40,-12 32,17 -5,19 -52,42 -88,42 -17,0 -65,82 -65,111 0,49 47,61 70,18 14,-25 12,-39 -5,-39 -9,0 -15,-9 -15,-25 0,-19 5,-25 23,-25 58,0 66,73 13,126 -38,38 -93,47 -116,19 z"
       id="path623"
       style="fill:#000080" />
  </g>
</svg>
