<?xml version="1.0" encoding="utf-8"?>
<!-- Generator: Adobe Illustrator 24.0.1, SVG Export Plug-In . SVG Version: 6.00 Build 0)  -->
<svg version="1.1" id="Layer_1" xmlns="http://www.w3.org/2000/svg" xmlns:xlink="http://www.w3.org/1999/xlink" x="0px" y="0px"
	 viewBox="0 0 162.52 61.05" style="enable-background:new 0 0 162.52 61.05;" xml:space="preserve">
<style type="text/css">
	.st0{fill:#002F4C;}
	.st1{fill-rule:evenodd;clip-rule:evenodd;fill:#F5B334;}
	.st2{fill-rule:evenodd;clip-rule:evenodd;fill:#F5DE48;}
	.st3{fill-rule:evenodd;clip-rule:evenodd;fill:#245470;}
	.st4{fill-rule:evenodd;clip-rule:evenodd;fill:#3F7B91;}
</style>
<g>
	<g>
		<path class="st0" d="M72.29,13h8.33c3.39,0,5.44,2.35,5.44,5.29c0,2.95-2.05,5.29-5.44,5.29h-7.94v9.07
			c0,0.21-0.18,0.39-0.39,0.39s-0.39-0.18-0.39-0.39V13.39C71.91,13.18,72.09,13,72.29,13z M72.68,13.69v9.22h8.06
			c2.74,0,4.55-1.99,4.55-4.61s-1.81-4.61-4.55-4.61H72.68z"/>
		<path class="st0" d="M90.32,14.37c0.21,0,0.39,0.18,0.39,0.39v2.05c0,0.21-0.18,0.39-0.39,0.39s-0.39-0.18-0.39-0.39v-2.05
			C89.94,14.55,90.11,14.37,90.32,14.37z M90.32,19.67c0.21,0,0.39,0.18,0.39,0.39v12.61c0,0.21-0.18,0.39-0.39,0.39
			s-0.39-0.18-0.39-0.39V20.05C89.94,19.85,90.11,19.67,90.32,19.67z"/>
		<path class="st0" d="M105.4,19.94c0.06-0.15,0.15-0.27,0.36-0.27c0.24,0,0.36,0.15,0.36,0.33c0,0.09-0.03,0.15-0.06,0.24
			l-5.53,12.58c-0.06,0.15-0.18,0.24-0.36,0.24c-0.18,0-0.3-0.09-0.36-0.24l-5.53-12.58c-0.03-0.09-0.06-0.15-0.06-0.24
			c0-0.18,0.12-0.33,0.36-0.33c0.21,0,0.3,0.12,0.36,0.27l5.24,11.84L105.4,19.94z"/>
		<path class="st0" d="M110.01,14.37c0.21,0,0.39,0.18,0.39,0.39v2.05c0,0.21-0.18,0.39-0.39,0.39s-0.39-0.18-0.39-0.39v-2.05
			C109.63,14.55,109.81,14.37,110.01,14.37z M110.01,19.67c0.21,0,0.39,0.18,0.39,0.39v12.61c0,0.21-0.18,0.39-0.39,0.39
			s-0.39-0.18-0.39-0.39V20.05C109.63,19.85,109.81,19.67,110.01,19.67z"/>
		<path class="st0" d="M127.65,29.42c-1.19,2.35-3.33,3.75-6.04,3.75c-3.81,0-6.81-2.92-6.81-6.81c0-3.9,3-6.81,6.81-6.81
			c2.71,0,4.85,1.4,6.04,3.75V13.15c0-0.21,0.18-0.39,0.39-0.39c0.21,0,0.39,0.18,0.39,0.39v19.51c0,0.21-0.18,0.39-0.39,0.39
			c-0.21,0-0.39-0.18-0.39-0.39V29.42z M121.62,32.46c3.33,0,6.04-2.59,6.04-6.1s-2.71-6.1-6.04-6.1c-3.39,0-6.04,2.56-6.04,6.1
			S118.22,32.46,121.62,32.46z"/>
		<path class="st0" d="M139.7,33.17c-3.93,0-6.81-3.03-6.81-6.81s2.89-6.81,6.81-6.81c3.93,0,6.81,3.03,6.81,6.81
			S143.63,33.17,139.7,33.17z M139.7,20.26c-3.45,0-6.04,2.65-6.04,6.1c0,3.45,2.59,6.1,6.04,6.1c3.45,0,6.04-2.65,6.04-6.1
			C145.74,22.91,143.15,20.26,139.7,20.26z"/>
		<path class="st0" d="M151.36,19.67c0.21,0,0.39,0.18,0.39,0.39V23c0.77-1.93,3.06-3.33,5.38-3.33c0.18,0,0.3,0.15,0.3,0.33
			s-0.09,0.33-0.3,0.33c-2.83,0-5.38,2.26-5.38,5.18v7.17c0,0.21-0.18,0.39-0.39,0.39c-0.21,0-0.39-0.18-0.39-0.39V20.05
			C150.98,19.85,151.16,19.67,151.36,19.67z"/>
		<path class="st0" d="M160.97,14.37c0.21,0,0.39,0.18,0.39,0.39v2.05c0,0.21-0.18,0.39-0.39,0.39c-0.21,0-0.39-0.18-0.39-0.39
			v-2.05C160.59,14.55,160.76,14.37,160.97,14.37z M160.97,19.67c0.21,0,0.39,0.18,0.39,0.39v12.61c0,0.21-0.18,0.39-0.39,0.39
			c-0.21,0-0.39-0.18-0.39-0.39V20.05C160.59,19.85,160.76,19.67,160.97,19.67z"/>
	</g>
	<g>
		<path class="st0" d="M112.42,52.72c-1.72,0-2.61-0.78-2.61-3.05V39.42c0.27-0.1,0.59-0.15,0.9-0.15c0.29,0,0.4,0.11,0.4,0.32v9.94
			c0,1.57,0.48,2.06,1.45,2.06h4.85c0.27,0,0.36,0.13,0.36,0.48v0.65H112.42z"/>
		<path class="st0" d="M131.66,51.83c0.04,0.13,0.08,0.29,0.08,0.46c0,0.27-0.36,0.57-0.92,0.57c-0.78,0-1.37-0.63-1.45-1.74
			c-0.73,1.11-1.99,1.83-3.63,1.83c-2.12,0-3.49-1.32-3.49-3.21c0-2.08,1.58-3.3,3.99-3.3c1.09,0,2.21,0.25,3.11,0.69v-1.05
			c0-1.83-1.26-2.67-3.19-2.67c-1.07,0-2.06,0.21-2.86,0.65c-0.11-0.13-0.19-0.38-0.19-0.57c0-0.46,1.43-1.18,3.32-1.18
			c2.52,0,4.16,1.3,4.16,3.86v4.6c0,0.8,0.27,1.07,0.73,1.07H131.66z M129.35,49.75v-1.62c-0.8-0.36-2.02-0.57-3-0.57
			c-1.79,0-2.84,0.84-2.84,2.16c0,1.39,1.11,2.16,2.4,2.16C127.23,51.86,128.53,51.22,129.35,49.75z"/>
		<path class="st0" d="M146.23,47.23c0,3.17-2.14,5.73-5.04,5.73c-2.67,0-4.31-1.81-4.31-4.64v-9.49c0.27-0.1,0.57-0.13,0.86-0.13
			c0.27,0,0.38,0.1,0.38,0.31v5.15c0.94-1.15,2.31-1.85,3.84-1.85C144.34,42.3,146.23,44.13,146.23,47.23z M138.11,45.45v2.86
			c0,2.42,1.43,3.53,3.09,3.53c2.06,0,3.76-2,3.76-4.6c0-2.58-1.45-3.86-3.26-3.86C140.42,43.39,139.01,44.17,138.11,45.45z"/>
	</g>
	<g>
		<g>
			<g>
				<g>
					<path class="st1" d="M2.43,36.33l11.28-4.06c-0.03-0.11-0.06-0.22-0.09-0.33c-1.49-6.22,2.33-12.47,8.55-13.96
						c6.22-1.49,12.47,2.33,13.96,8.55c0.3,1.24,0.38,2.47,0.28,3.67l3.61-0.87l-0.74-3.06l-1.44-5.99l-2.99,0.72l-0.84-3.49
						l-4.36,1.05l-0.64-2.68l-4.21,1.01l-0.18-0.74l-4.74,1.14l-1.21-5.03l4.75-1.14L22.18,5.9c-0.1-0.01-0.21-0.02-0.31-0.02
						c-0.83,0.11-1.66,0.26-2.49,0.46C6.74,9.38-1.05,22.09,1.99,34.73C2.12,35.27,2.27,35.8,2.43,36.33z"/>
					<path class="st1" d="M31.44,40.3l5.42-1.3l-0.73-3.03l-2.25,0.54c-1.55,1.92-3.72,3.36-6.3,3.98
						c-4.2,1.01-8.41-0.41-11.16-3.35l-9.51,7.33c0.01,0.01,0.01,0.01,0.02,0.02L3.8,46.92l3.04,12.93l9.33,0.1l-2.33-9.92
						c4.81,2.56,10.52,3.47,16.24,2.17l-1.11-4.62l3.99-0.96L31.44,40.3z"/>
				</g>
				<path class="st2" d="M30.08,52.2c-5.2,1.18-10.66,0.47-15.15-1.63l17.95-4.31l0.08,0.35l-3.97,1.04L30.08,52.2z"/>
				<path class="st3" d="M2.55,21.76l22.14-5.32l-0.07-0.28l-4.74,1.14l-1.21-5.03l4.75-1.14L22.18,5.9
					c-0.1-0.01-0.21-0.02-0.31-0.02c-0.83,0.11-1.66,0.26-2.49,0.46C11.2,8.31,5.05,14.33,2.55,21.76"/>
				<path class="st3" d="M33.64,6.82l-1.69,0.41l0.41,1.69l1.69-0.41L33.64,6.82z M26.41,15.82l2.96-0.71l-0.68-2.82l1.57-0.38
					l-0.53-2.2l-2.2,0.53l0.5,2.06l-2.33,0.56L26.41,15.82z M23.07,12.01l-2.98,0.72l0.72,2.98l2.98-0.72L23.07,12.01z M32.75,14.46
					l3.9-0.94l-0.94-3.9l-3.9,0.94L32.75,14.46z M38.69,12.45l4.75-1.14L42.3,6.57l-4.75,1.14L38.69,12.45z M46.44,0.88l-2.98,0.72
					l0.72,2.98l2.98-0.72L46.44,0.88z M51.65,4.16l-2.89,0.69l0.69,2.89l2.89-0.69L51.65,4.16z M24.4,9.58l3.34-0.8l-0.8-3.34
					l-3.34,0.8L24.4,9.58z"/>
				<path class="st1" d="M54.15,31.63l1.65-0.4l-0.4-1.65l-1.65,0.4L54.15,31.63z M43.15,45.59l1.65-0.4l-0.4-1.65l-1.65,0.4
					L43.15,45.59z M52.96,25.17l1.65-0.4l-0.4-1.65l-1.65,0.4L52.96,25.17z M47.02,33.59l4.8-1.15l-1.15-4.81l-4.8,1.15L47.02,33.59
					z M41.36,32.62l1.65-0.4l-0.4-1.65l-1.65,0.4L41.36,32.62z M53.42,35.5l2.02-0.49l-0.49-2.02l-2.02,0.49L53.42,35.5z
					 M52.85,39.58l1.65-0.4l-0.4-1.65l-1.65,0.4L52.85,39.58z M49.74,45.24l2.77-0.67l-0.67-2.77l-2.77,0.67L49.74,45.24z
					 M56.84,25.92l3.97-0.95L59.85,21l-3.97,0.95L56.84,25.92z M39.73,50.12l2.77-0.67l-0.67-2.77l-2.77,0.67L39.73,50.12z
					 M34.27,45.85l4.8-1.15l-1.15-4.81l-4.8,1.15L34.27,45.85z M31.25,52.22l3.43-0.82l-0.82-3.43l-3.43,0.82L31.25,52.22z
					 M35.26,49.11l1.58-0.38l-0.38-1.58l-1.58,0.38L35.26,49.11z M44.16,39.66l2.87-0.69l-0.69-2.87l-2.87,0.69L44.16,39.66z
					 M46.12,27.34l2.87-0.69l-0.69-2.87l-2.87,0.69L46.12,27.34z M40.92,42.99l2.3-0.55l-0.55-2.3l-2.3,0.55L40.92,42.99z
					 M38.29,39.13L42,38.24l-0.89-3.71l-3.71,0.89L38.29,39.13z M34.52,34.79l2.87-0.69l-0.69-2.87l-2.87,0.69L34.52,34.79z
					 M49.81,37.06l1.58-0.38l-0.38-1.58l-1.58,0.38L49.81,37.06z M51.14,21.49l-1.72,0.41l0.41,1.72l1.72-0.41L51.14,21.49z"/>
				
					<rect x="37.57" y="22.29" transform="matrix(0.9723 -0.2336 0.2336 0.9723 -4.7427 10.1241)" class="st4" width="5.58" height="5.58"/>
				<path class="st4" d="M42.75,13.35l-2.91,0.7l0.7,2.91l2.91-0.7L42.75,13.35z M46.86,11.96l-1.69,0.41l0.41,1.69l1.69-0.41
					L46.86,11.96z M46.91,19.55L44,20.25l0.7,2.91l2.91-0.7L46.91,19.55z M31.76,15.59L30.07,16l0.41,1.69l1.69-0.41L31.76,15.59z
					 M38.28,15.56l-3.47,0.83l0.83,3.47l3.47-0.83L38.28,15.56z M47.26,8.59L45.57,9l0.41,1.69l1.69-0.41L47.26,8.59z M44.53,17.03
					l-1.45,0.35l0.35,1.45l1.45-0.35L44.53,17.03z M54.76,12.95l-3.26,0.78l0.78,3.26l3.26-0.78L54.76,12.95z M62.41,12.31
					l-3.95,0.95l0.95,3.95l3.95-0.95L62.41,12.31z"/>
				<path class="st4" d="M40.02,29.33l-0.74-3.06l-1.44-5.99l-2.99,0.72l-0.84-3.49l-4.36,1.05l-0.64-2.68l-4.21,1.01l-0.11-0.46
					L2.55,21.76c-1.36,4.05-1.63,8.51-0.56,12.97c0.13,0.54,0.28,1.07,0.44,1.59l11.28-4.06c-0.03-0.11-0.06-0.22-0.09-0.33
					c-1.49-6.22,2.33-12.47,8.55-13.96c6.22-1.49,12.47,2.33,13.96,8.55c0.3,1.24,0.38,2.47,0.28,3.67L40.02,29.33z"/>
			</g>
		</g>
		<polygon class="st2" points="16.16,59.94 6.83,59.84 5.21,52.93 14.01,50.81 		"/>
	</g>
</g>
</svg>
