<?xml version="1.0" encoding="UTF-8" standalone="no"?>
<!-- Generator: Adobe Illustrator 24.0.1, SVG Export Plug-In . SVG Version: 6.00 Build 0)  -->

<svg
   version="1.1"
   id="Layer_1"
   x="0px"
   y="0px"
   viewBox="0 0 153.386 59.840259"
   xml:space="preserve"
   sodipodi:docname="logo.svg"
   inkscape:version="1.2 (dc2aedaf03, 2022-05-15)"
   xmlns:inkscape="http://www.inkscape.org/namespaces/inkscape"
   xmlns:sodipodi="http://sodipodi.sourceforge.net/DTD/sodipodi-0.dtd"
   xmlns="http://www.w3.org/2000/svg"
   xmlns:svg="http://www.w3.org/2000/svg"><defs
   id="defs1003" /><sodipodi:namedview
   id="namedview1001"
   pagecolor="#ffffff"
   bordercolor="#000000"
   borderopacity="0.25"
   inkscape:showpageshadow="2"
   inkscape:pageopacity="0"
   inkscape:pagecheckerboard="false"
   inkscape:deskcolor="#d1d1d1"
   showgrid="false"
   inkscape:zoom="6.808366"
   inkscape:cx="67.270179"
   inkscape:cy="23.353621"
   inkscape:window-width="1708"
   inkscape:window-height="1331"
   inkscape:window-x="8"
   inkscape:window-y="64"
   inkscape:window-maximized="0"
   inkscape:current-layer="g32" />
<style
   type="text/css"
   id="style942">
	.st0{fill:#06304C;}
	.st1{fill-rule:evenodd;clip-rule:evenodd;fill:#F3B232;}
	.st2{fill-rule:evenodd;clip-rule:evenodd;fill:#F4DD47;}
	.st3{fill-rule:evenodd;clip-rule:evenodd;fill:#235470;}
	.st4{fill-rule:evenodd;clip-rule:evenodd;fill:#3F7B90;}
</style>
<g
   id="g998"
   transform="translate(-8.8040675,-1.8951605)">
	
	
	
<g
   id="g1268"
   transform="translate(1.0000345,0.39012982)"><g
     id="g960">
		<path
   class="st0"
   d="m 84.19,23.5 h -7 v 8 c 0,0.5 -0.4,0.9 -0.9,0.9 -0.5,0 -0.9,-0.4 -0.9,-0.9 V 13.3 c 0,-0.5 0.4,-0.9 0.9,-0.9 h 7.9 c 3.9,0 6.1,2.4 6.1,5.5 0,3.2 -2.2,5.6 -6.1,5.6 z m 0.3,-9.5 h -7.4 v 7.9 h 7.4 c 2.5,0 3.9,-1.7 3.9,-3.9 0,-2.2 -1.4,-4 -3.9,-4 z"
   id="path944"
   style="fill:#ffffff;fill-opacity:1" />
		<path
   class="st0"
   d="m 93.69,14.3 c 0.6,0 1.1,0.5 1.1,1.1 0,0.6 -0.5,1.1 -1.1,1.1 -0.6,0 -1.1,-0.5 -1.1,-1.1 0,-0.6 0.5,-1.1 1.1,-1.1 z m 0,18.1 c -0.5,0 -0.9,-0.4 -0.9,-0.9 V 20 c 0,-0.5 0.4,-0.9 0.9,-0.9 0.5,0 0.9,0.4 0.9,0.9 v 11.6 c 0,0.4 -0.4,0.8 -0.9,0.8 z"
   id="path946"
   style="fill:#ffffff;fill-opacity:1" />
		<path
   class="st0"
   d="m 102.69,29.7 4.4,-10.1 c 0.1,-0.4 0.4,-0.5 0.8,-0.5 0.5,0 0.8,0.4 0.8,0.8 0,0.1 -0.1,0.3 -0.1,0.4 l -5.2,11.6 c -0.1,0.3 -0.3,0.5 -0.7,0.5 -0.4,0 -0.6,-0.2 -0.7,-0.5 l -5.2,-11.6 c -0.1,-0.1 -0.1,-0.3 -0.1,-0.4 0,-0.4 0.3,-0.8 0.8,-0.8 0.4,0 0.6,0.2 0.8,0.5 z"
   id="path948"
   style="fill:#ffffff;fill-opacity:1" />
		<path
   class="st0"
   d="m 111.69,14.3 c 0.6,0 1.1,0.5 1.1,1.1 0,0.6 -0.5,1.1 -1.1,1.1 -0.6,0 -1.1,-0.5 -1.1,-1.1 0,-0.6 0.5,-1.1 1.1,-1.1 z m 0,18.1 c -0.5,0 -0.9,-0.4 -0.9,-0.9 V 20 c 0,-0.5 0.4,-0.9 0.9,-0.9 0.5,0 0.9,0.4 0.9,0.9 v 11.6 c 0,0.4 -0.4,0.8 -0.9,0.8 z"
   id="path950"
   style="fill:#ffffff;fill-opacity:1" />
		<path
   class="st0"
   d="m 127.59,29.8 c -1.1,1.7 -2.9,2.7 -5.3,2.7 -3.6,0 -6.5,-2.8 -6.5,-6.8 0,-3.9 2.9,-6.8 6.5,-6.8 2.4,0 4.2,1 5.3,2.7 V 13 c 0,-0.5 0.4,-0.9 0.9,-0.9 0.5,0 0.9,0.4 0.9,0.9 v 18.5 c 0,0.5 -0.4,0.9 -0.9,0.9 -0.5,0 -0.9,-0.4 -0.9,-0.9 z m -5.1,1.2 c 3.1,0 5,-2.4 5,-5.3 0,-2.9 -2,-5.3 -5,-5.3 -3,0 -5,2.2 -5,5.3 0,3.1 2.1,5.3 5,5.3 z"
   id="path952"
   style="fill:#ffffff;fill-opacity:1" />
		<path
   class="st0"
   d="m 139.29,32.5 c -4,0 -6.8,-3 -6.8,-6.8 0,-3.8 2.8,-6.8 6.8,-6.8 4,0 6.8,3 6.8,6.8 0,3.8 -2.8,6.8 -6.8,6.8 z m 0,-12 c -2.8,0 -5,2.2 -5,5.3 0,3 2.2,5.3 5,5.3 2.8,0 5,-2.2 5,-5.3 0,-3.1 -2.2,-5.3 -5,-5.3 z"
   id="path954"
   style="fill:#ffffff;fill-opacity:1" />
		<path
   class="st0"
   d="m 155.29,20.6 c -2.6,0 -4.3,2.4 -4.3,5.8 v 5.1 c 0,0.5 -0.4,0.9 -0.9,0.9 -0.5,0 -0.9,-0.4 -0.9,-0.9 V 20 c 0,-0.5 0.4,-0.9 0.9,-0.9 0.5,0 0.9,0.4 0.9,0.9 v 2.1 c 0.6,-1.7 2.2,-3 4.3,-3 0.5,0 0.9,0.3 0.9,0.8 0,0.5 -0.4,0.7 -0.9,0.7 z"
   id="path956"
   style="fill:#ffffff;fill-opacity:1" />
		<path
   class="st0"
   d="m 159.09,14.3 c 0.6,0 1.1,0.5 1.1,1.1 0,0.6 -0.5,1.1 -1.1,1.1 -0.6,0 -1.1,-0.5 -1.1,-1.1 0,-0.6 0.5,-1.1 1.1,-1.1 z m 0,18.1 c -0.5,0 -0.9,-0.4 -0.9,-0.9 V 20 c 0,-0.5 0.4,-0.9 0.9,-0.9 0.5,0 0.9,0.4 0.9,0.9 v 11.6 c 0,0.4 -0.4,0.8 -0.9,0.8 z"
   id="path958"
   style="fill:#fffffe;fill-opacity:1" />
	</g><g
     id="g968">
		<path
   class="st0"
   d="m 130.59,52.5 c -1.8,0 -2.7,-0.8 -2.7,-3.2 V 38.5 c 0.3,-0.1 0.6,-0.2 0.9,-0.2 0.3,0 0.4,0.1 0.4,0.3 v 10.5 c 0,1.6 0.5,2.2 1.5,2.2 h 5.1 c 0.3,0 0.4,0.1 0.4,0.5 v 0.7 z"
   id="path962"
   style="fill:#ffffff;fill-opacity:1" />
		<path
   class="st0"
   d="m 147.79,51.6 c 0,0.1 0.1,0.3 0.1,0.5 0,0.3 -0.4,0.6 -1,0.6 -0.8,0 -1.4,-0.7 -1.5,-1.8 -0.8,1.2 -2.1,1.9 -3.8,1.9 -2.2,0 -3.7,-1.4 -3.7,-3.4 0,-2.2 1.7,-3.5 4.2,-3.5 1.1,0 2.3,0.3 3.3,0.7 v -1.1 c 0,-1.9 -1.3,-2.8 -3.4,-2.8 -1.1,0 -2.2,0.2 -3,0.7 -0.1,-0.1 -0.2,-0.4 -0.2,-0.6 0,-0.5 1.5,-1.2 3.5,-1.2 2.6,0 4.4,1.4 4.4,4.1 v 4.7 c 0,0.8 0.3,1.1 0.8,1.1 h 0.3 z m -2.4,-2.2 v -1.7 c -0.8,-0.4 -2.1,-0.6 -3.2,-0.6 -1.9,0 -3,0.9 -3,2.3 0,1.5 1.2,2.3 2.5,2.3 1.4,-0.1 2.8,-0.8 3.7,-2.3 z"
   id="path964"
   style="fill:#ffffff;fill-opacity:1" />
		<path
   class="st0"
   d="m 160.09,46.7 c 0,3.3 -2.2,6 -5.3,6 -2.8,0 -4.5,-1.9 -4.5,-4.9 v -10 c 0.3,-0.1 0.6,-0.1 0.9,-0.1 0.3,0 0.4,0.1 0.4,0.3 v 5.4 c 1,-1.2 2.4,-1.9 4,-1.9 2.5,0.1 4.5,2 4.5,5.2 z m -8.5,-1.8 v 3 c 0,2.5 1.5,3.7 3.3,3.7 2.2,0 4,-2.1 4,-4.8 0,-2.7 -1.5,-4.1 -3.4,-4.1 -1.5,0 -3,0.8 -3.9,2.2 z"
   id="path966"
   style="fill:#fffffe;fill-opacity:1" />
	</g><g
     id="g34"
     transform="translate(6.5817418,0.89516046)">
		<path
   class="st0"
   d="M 3.44,21.88 25.58,16.56"
   id="path4"
   style="clip-rule:evenodd;fill:#235470;fill-rule:evenodd" />
		<g
   id="g10">
			<path
   class="st0"
   d="m 3.44,21.88 17.4,-4.19 -1.28,-5.3 4.75,-1.14 -1.24,-5.23 C 22.97,6.01 22.86,6 22.76,6 21.93,6.11 21.1,6.26 20.27,6.46 12.09,8.43 5.94,14.45 3.44,21.88"
   id="path6"
   style="clip-rule:evenodd;fill:#235470;fill-rule:evenodd" />
			<path
   class="st0"
   d="m 34.53,6.94 -1.69,0.41 0.41,1.69 1.69,-0.41 z m -7.23,9 2.96,-0.71 -0.68,-2.82 1.57,-0.38 -0.53,-2.2 -2.2,0.53 0.5,2.06 -2.33,0.56 z m -2.62,-3.86 -3.38,0.82 0.82,3.38 3.38,-0.82 z m 8.96,2.5 3.9,-0.94 -0.94,-3.9 -3.9,0.94 z m 5.94,-2.01 4.75,-1.14 -1.14,-4.74 -4.75,1.14 z M 47.33,1 44.35,1.72 45.07,4.7 48.05,3.98 Z m 5.21,3.28 -2.89,0.69 0.69,2.89 2.89,-0.69 z M 25.29,9.7 28.63,8.9 27.83,5.56 24.49,6.36 Z"
   id="path8"
   style="clip-rule:evenodd;fill:#235470;fill-rule:evenodd" />
		</g>
		<g
   id="g18">
			
				<rect
   x="38.459999"
   y="22.41"
   transform="matrix(0.9723,-0.2336,0.2336,0.9723,-4.7459,10.3336)"
   class="st1"
   width="5.5799999"
   height="5.5799999"
   id="rect12"
   style="clip-rule:evenodd;fill:#3f7b90;fill-rule:evenodd" />
			<path
   class="st1"
   d="m 43.64,13.47 -2.91,0.7 0.7,2.91 2.91,-0.7 z m 4.11,-1.39 -1.69,0.41 0.41,1.69 1.69,-0.41 z m 0.05,7.59 -2.91,0.7 0.7,2.91 2.91,-0.7 z m -15.15,-3.96 -1.69,0.41 0.41,1.69 1.69,-0.41 z m 6.52,-0.03 -3.47,0.83 0.83,3.47 3.47,-0.83 z m 8.98,-6.97 -1.69,0.41 0.41,1.69 1.69,-0.41 z m -2.73,8.44 -1.45,0.35 0.35,1.45 1.45,-0.35 z m 10.23,-4.08 -3.26,0.78 0.78,3.26 3.26,-0.78 z m 7.65,-0.64 -3.95,0.95 0.95,3.95 3.95,-0.95 z"
   id="path14"
   style="clip-rule:evenodd;fill:#3f7b90;fill-rule:evenodd" />
			<path
   class="st1"
   d="M 40.91,29.45 40.17,26.39 38.73,20.4 35.74,21.12 34.9,17.63 30.54,18.68 29.9,16 25.69,17.01 25.58,16.55 3.44,21.88 c -1.36,4.05 -1.63,8.51 -0.56,12.97 0.13,0.54 0.28,1.07 0.44,1.59 L 14.6,32.38 c -0.03,-0.11 -0.06,-0.22 -0.09,-0.33 -1.49,-6.22 2.33,-12.47 8.55,-13.96 6.22,-1.49 12.47,2.33 13.96,8.55 0.3,1.24 0.38,2.47 0.28,3.67 z"
   id="path16"
   style="clip-rule:evenodd;fill:#3f7b90;fill-rule:evenodd" />
		</g>
		<g
   id="g26">
			<path
   class="st2"
   d="m 55.04,31.75 1.65,-0.4 -0.4,-1.65 -1.65,0.4 z m -11,13.96 1.65,-0.4 -0.4,-1.65 -1.65,0.4 z m 9.81,-20.42 1.65,-0.4 -0.4,-1.65 -1.65,0.4 z m -5.94,8.42 4.8,-1.15 -1.15,-4.81 -4.8,1.15 z m -5.66,-0.97 1.65,-0.4 -0.4,-1.65 -1.65,0.4 z m 12.06,2.88 2.02,-0.49 -0.49,-2.02 -2.02,0.49 z m -0.57,4.08 1.65,-0.4 -0.4,-1.65 -1.65,0.4 z m -3.11,5.66 2.77,-0.67 -0.67,-2.77 -2.77,0.67 z m 7.1,-19.32 3.97,-0.95 -0.96,-3.97 -3.97,0.95 z m -17.11,24.2 2.77,-0.67 -0.67,-2.77 -2.77,0.67 z m -5.46,-4.27 4.8,-1.15 -1.15,-4.81 -4.8,1.15 z m -2.85,5.97 3.71,-0.89 -0.89,-3.71 -3.71,0.89 z m 4.57,-2.44 1.58,-0.38 -0.38,-1.58 -1.58,0.38 z m 8.17,-9.72 2.87,-0.69 -0.69,-2.87 -2.87,0.69 z m 1.96,-12.32 2.87,-0.69 -0.69,-2.87 -2.87,0.69 z m -5.2,15.65 2.3,-0.55 -0.55,-2.3 -2.3,0.55 z M 39.18,39.25 42.89,38.36 42,34.65 38.29,35.54 Z m -3.77,-4.34 2.87,-0.69 -0.69,-2.87 -2.87,0.69 z M 50.7,37.18 52.28,36.8 51.9,35.22 50.32,35.6 Z m 1.33,-15.57 -1.72,0.41 0.41,1.72 1.72,-0.41 z"
   id="path20"
   style="clip-rule:evenodd;fill:#f3b232;fill-rule:evenodd" />
			<g
   id="g24">
				<path
   class="st2"
   d="m 14.73,50.15 c 0.36,0.19 0.74,0.36 1.12,0.53 l 17.92,-4.3 -1.43,-5.96 5.42,-1.3 -0.73,-3.03 -2.25,0.54 c -1.55,1.92 -3.72,3.36 -6.3,3.98 -4.2,1.01 -8.41,-0.41 -11.16,-3.35 L 7.8,44.59 c 0.01,0.01 0.01,0.01 0.02,0.02 l -3.13,2.43 1.41,6.01 8.8,-2.12 z"
   id="path22"
   style="clip-rule:evenodd;fill:#f3b232;fill-rule:evenodd" />
			</g>
		</g>
		<g
   id="g32">
			<polygon
   class="st3"
   points="14.9,50.93 17.05,60.06 7.72,59.96 6.1,53.05 "
   id="polygon28"
   style="clip-rule:evenodd;fill:#f4dd47;fill-rule:evenodd"
   transform="translate(-0.00390625,-0.01171875)" />
			<path
   class="st3"
   d="m 30.977812,52.30047 c -5.2,1.18 -10.66,0.47 -15.15,-1.63 l 13.97,-3.35 v 0 z"
   id="path30"
   style="clip-rule:evenodd;fill:#f4dd47;fill-rule:evenodd" />
		</g>
	</g></g></g>
</svg>
