<?xml version="1.0" encoding="utf-8"?>
<!-- Generator: Adobe Illustrator 24.0.1, SVG Export Plug-In . SVG Version: 6.00 Build 0)  -->
<svg version="1.1" id="Layer_1" xmlns="http://www.w3.org/2000/svg" xmlns:xlink="http://www.w3.org/1999/xlink" x="0px" y="0px"
	 viewBox="0 0 144.47 51.03" style="enable-background:new 0 0 144.47 51.03;" xml:space="preserve">
<style type="text/css">
	.st0{fill-rule:evenodd;clip-rule:evenodd;fill:#33A6C5;}
	.st1{fill-rule:evenodd;clip-rule:evenodd;fill:#73BAD2;}
	.st2{fill-rule:evenodd;clip-rule:evenodd;fill:#B5D8E6;}
	.st3{fill-rule:evenodd;clip-rule:evenodd;fill:#B4D9E6;}
	.st4{fill-rule:evenodd;clip-rule:evenodd;fill:#4D595A;}
	.st5{fill-rule:evenodd;clip-rule:evenodd;fill:#6D7C7B;}
	.st6{fill-rule:evenodd;clip-rule:evenodd;fill:#3C4544;}
	.st7{fill-rule:evenodd;clip-rule:evenodd;fill:#4D5A5C;}
	.st8{fill-rule:evenodd;clip-rule:evenodd;fill:#B5D9E6;}
	.st9{fill:#3C4544;}
	.st10{fill:#35A8C4;}
</style>
<g>
	<polygon class="st0" points="12.28,21.09 15,16.29 17.72,11.49 12.28,11.49 6.83,11.49 9.55,16.29 	"/>
	<polygon class="st1" points="12.28,1.89 15,6.69 17.72,11.49 12.28,11.49 6.83,11.49 9.55,6.69 	"/>
	<polygon class="st2" points="17.72,11.49 20.45,6.69 23.17,1.89 17.72,1.89 12.28,1.89 15,6.69 	"/>
	<polygon class="st3" points="28.62,11.49 31.34,6.69 34.06,1.89 28.62,1.89 23.17,1.89 25.89,6.69 	"/>
	<polygon class="st4" points="34.06,21.09 36.78,16.29 39.51,11.49 34.06,11.49 28.62,11.49 31.34,16.29 	"/>
	<polygon class="st5" points="34.06,1.89 36.78,6.69 39.51,11.49 34.06,11.49 28.62,11.49 31.34,6.69 	"/>
	<polygon class="st6" points="39.51,11.49 42.23,16.29 44.95,21.09 39.51,21.09 34.06,21.09 36.78,16.29 	"/>
	<polygon class="st5" points="17.72,30.69 20.45,35.49 23.17,40.29 17.72,40.29 12.28,40.29 15,35.49 	"/>
	<polygon class="st7" points="12.28,40.29 9.55,35.49 6.83,30.69 12.28,30.69 17.72,30.69 15,35.49 	"/>
	<polygon class="st3" points="28.62,30.69 31.34,35.49 34.06,40.29 28.62,40.29 23.17,40.29 25.89,35.49 	"/>
	<polygon class="st1" points="34.06,21.09 36.78,25.89 39.51,30.69 34.06,30.69 28.62,30.69 31.34,25.89 	"/>
	<polygon class="st0" points="34.06,40.29 36.78,35.49 39.51,30.69 34.06,30.69 28.62,30.69 31.34,35.49 	"/>
	<polygon class="st8" points="39.51,30.69 42.23,25.89 44.95,21.09 39.51,21.09 34.06,21.09 36.78,25.89 	"/>
	<polygon class="st6" points="6.83,30.69 4.11,35.49 1.39,40.29 6.83,40.29 12.28,40.29 9.55,35.49 	"/>
	<polygon class="st1" points="6.83,49.89 4.11,45.09 1.39,40.29 6.83,40.29 12.28,40.29 9.55,45.09 	"/>
	<g>
		<path class="st9" d="M56.89,24.68c-0.33,0-0.58-0.09-0.76-0.27c-0.17-0.18-0.26-0.43-0.26-0.74V8.99c0-0.33,0.09-0.57,0.27-0.74
			C56.33,8.09,56.59,8,56.92,8h5.87c1.86,0,3.3,0.43,4.31,1.3c1.01,0.87,1.51,2.09,1.51,3.67c0,1.56-0.5,2.78-1.51,3.65
			c-1.01,0.87-2.44,1.31-4.31,1.31h-4.88v5.74c0,0.31-0.08,0.56-0.25,0.74C57.49,24.59,57.24,24.68,56.89,24.68z M57.91,16.32h4.63
			c1.34,0,2.35-0.28,3.03-0.85c0.68-0.57,1.03-1.4,1.03-2.49c0-1.11-0.34-1.95-1.03-2.52c-0.69-0.57-1.7-0.85-3.03-0.85h-4.63V16.32
			z"/>
		<path class="st9" d="M73.5,10.39c-0.41,0-0.73-0.11-0.97-0.32c-0.23-0.21-0.35-0.5-0.35-0.85c0-0.37,0.12-0.66,0.35-0.85
			c0.23-0.2,0.55-0.29,0.97-0.29c0.43,0,0.76,0.1,0.98,0.29c0.22,0.2,0.33,0.48,0.33,0.85c0,0.36-0.11,0.64-0.33,0.85
			C74.26,10.29,73.93,10.39,73.5,10.39z M73.5,24.63c-0.33,0-0.58-0.09-0.74-0.27c-0.17-0.18-0.25-0.43-0.25-0.76v-9.58
			c0-0.33,0.08-0.58,0.25-0.75c0.16-0.17,0.41-0.26,0.74-0.26c0.31,0,0.56,0.09,0.74,0.26c0.18,0.17,0.27,0.42,0.27,0.75v9.58
			c0,0.33-0.09,0.58-0.26,0.76C74.08,24.54,73.83,24.63,73.5,24.63z"/>
		<path class="st9" d="M83.97,24.68c-0.28,0-0.53-0.07-0.74-0.22c-0.21-0.15-0.4-0.38-0.54-0.69L78.4,14.3
			c-0.12-0.23-0.16-0.45-0.12-0.66c0.03-0.2,0.13-0.37,0.3-0.49c0.16-0.12,0.4-0.19,0.69-0.19c0.26,0,0.47,0.05,0.62,0.16
			c0.15,0.11,0.28,0.3,0.4,0.59l4.06,9.39h-0.67l4.13-9.39c0.12-0.28,0.25-0.48,0.4-0.59c0.15-0.11,0.36-0.16,0.64-0.16
			c0.26,0,0.47,0.06,0.61,0.19c0.14,0.12,0.22,0.29,0.25,0.48c0.02,0.2-0.01,0.41-0.11,0.64l-4.33,9.49
			c-0.12,0.31-0.28,0.54-0.51,0.69C84.53,24.61,84.27,24.68,83.97,24.68z"/>
		<path class="st9" d="M94.47,10.39c-0.41,0-0.73-0.11-0.97-0.32c-0.23-0.21-0.35-0.5-0.35-0.85c0-0.37,0.12-0.66,0.35-0.85
			c0.23-0.2,0.55-0.29,0.97-0.29c0.43,0,0.76,0.1,0.98,0.29c0.22,0.2,0.33,0.48,0.33,0.85c0,0.36-0.11,0.64-0.33,0.85
			C95.22,10.29,94.9,10.39,94.47,10.39z M94.47,24.63c-0.33,0-0.58-0.09-0.74-0.27c-0.17-0.18-0.25-0.43-0.25-0.76v-9.58
			c0-0.33,0.08-0.58,0.25-0.75c0.16-0.17,0.41-0.26,0.74-0.26c0.31,0,0.56,0.09,0.74,0.26c0.18,0.17,0.27,0.42,0.27,0.75v9.58
			c0,0.33-0.09,0.58-0.26,0.76C95.05,24.54,94.8,24.63,94.47,24.63z"/>
		<path class="st9" d="M105.04,24.73c-1.07,0-2.01-0.24-2.81-0.73c-0.8-0.48-1.42-1.17-1.86-2.05c-0.44-0.88-0.66-1.92-0.66-3.13
			c0-1.22,0.22-2.27,0.66-3.15c0.44-0.88,1.06-1.56,1.86-2.04c0.8-0.48,1.74-0.71,2.81-0.71c1.09,0,2.02,0.26,2.8,0.77
			c0.78,0.52,1.3,1.21,1.56,2.08h-0.27V8.8c0-0.31,0.09-0.55,0.26-0.71c0.17-0.16,0.42-0.25,0.75-0.25c0.31,0,0.56,0.08,0.73,0.25
			c0.17,0.16,0.26,0.4,0.26,0.71v14.9c0,0.31-0.08,0.55-0.25,0.73c-0.17,0.17-0.41,0.26-0.74,0.26c-0.31,0-0.56-0.09-0.73-0.26
			c-0.17-0.17-0.26-0.41-0.26-0.73v-2.22l0.27,0.33c-0.26,0.89-0.79,1.6-1.57,2.13C107.07,24.46,106.13,24.73,105.04,24.73z
			 M105.46,23.2c0.74,0,1.39-0.17,1.96-0.52c0.56-0.34,0.99-0.84,1.3-1.5c0.3-0.66,0.46-1.44,0.46-2.37c0-1.42-0.33-2.51-1-3.26
			c-0.67-0.75-1.57-1.12-2.71-1.12c-0.76,0-1.42,0.17-1.97,0.5c-0.55,0.34-0.98,0.83-1.29,1.48c-0.31,0.65-0.46,1.45-0.46,2.4
			c0,1.41,0.34,2.49,1.01,3.24C103.44,22.83,104.34,23.2,105.46,23.2z"/>
		<path class="st9" d="M121.13,24.73c-1.17,0-2.19-0.24-3.05-0.73c-0.86-0.48-1.52-1.17-1.99-2.05c-0.47-0.88-0.71-1.92-0.71-3.13
			c0-0.91,0.13-1.72,0.4-2.45c0.26-0.73,0.65-1.35,1.16-1.86c0.51-0.52,1.12-0.91,1.82-1.18c0.7-0.27,1.49-0.41,2.36-0.41
			c1.17,0,2.19,0.24,3.04,0.73c0.86,0.48,1.52,1.17,1.99,2.05c0.47,0.88,0.71,1.92,0.71,3.13c0,0.91-0.13,1.72-0.4,2.44
			c-0.26,0.72-0.65,1.34-1.16,1.86c-0.51,0.52-1.12,0.92-1.82,1.19C122.79,24.59,122.01,24.73,121.13,24.73z M121.13,23.2
			c0.74,0,1.39-0.17,1.96-0.52c0.56-0.34,0.99-0.84,1.3-1.5c0.3-0.66,0.46-1.44,0.46-2.37c0-1.42-0.33-2.51-1-3.26
			c-0.67-0.75-1.57-1.12-2.71-1.12c-0.76,0-1.42,0.17-1.97,0.5c-0.55,0.34-0.98,0.83-1.29,1.48c-0.31,0.65-0.46,1.45-0.46,2.4
			c0,1.41,0.34,2.49,1.01,3.24C119.11,22.83,120.01,23.2,121.13,23.2z"/>
		<path class="st9" d="M132.15,24.68c-0.33,0-0.58-0.09-0.75-0.26c-0.17-0.17-0.26-0.41-0.26-0.73v-9.77c0-0.31,0.08-0.55,0.25-0.71
			c0.16-0.16,0.4-0.25,0.72-0.25c0.31,0,0.56,0.08,0.73,0.25c0.17,0.16,0.26,0.4,0.26,0.71v1.9h-0.25c0.26-0.92,0.77-1.63,1.51-2.13
			c0.74-0.5,1.66-0.76,2.75-0.8c0.25-0.02,0.45,0.04,0.59,0.15c0.15,0.12,0.23,0.32,0.25,0.6c0.02,0.27-0.05,0.48-0.2,0.63
			c-0.15,0.16-0.38,0.25-0.69,0.28l-0.4,0.05c-1.12,0.09-1.98,0.43-2.59,1.02c-0.6,0.59-0.9,1.39-0.9,2.4v5.67
			c0,0.31-0.09,0.55-0.26,0.73C132.73,24.59,132.48,24.68,132.15,24.68z"/>
		<path class="st9" d="M142.22,10.39c-0.41,0-0.73-0.11-0.97-0.32c-0.23-0.21-0.35-0.5-0.35-0.85c0-0.37,0.12-0.66,0.35-0.85
			c0.23-0.2,0.55-0.29,0.97-0.29c0.43,0,0.76,0.1,0.98,0.29c0.22,0.2,0.33,0.48,0.33,0.85c0,0.36-0.11,0.64-0.33,0.85
			C142.98,10.29,142.65,10.39,142.22,10.39z M142.22,24.63c-0.33,0-0.58-0.09-0.74-0.27c-0.17-0.18-0.25-0.43-0.25-0.76v-9.58
			c0-0.33,0.08-0.58,0.25-0.75c0.16-0.17,0.41-0.26,0.74-0.26c0.31,0,0.56,0.09,0.74,0.26c0.18,0.17,0.27,0.42,0.27,0.75v9.58
			c0,0.33-0.09,0.58-0.26,0.76C142.8,24.54,142.55,24.63,142.22,24.63z"/>
	</g>
	<g>
		<path class="st10" d="M101.18,41.88c-0.13,0-0.23-0.04-0.3-0.11c-0.08-0.07-0.11-0.18-0.11-0.3V28.94c0-0.14,0.03-0.24,0.1-0.31
			c0.07-0.07,0.17-0.1,0.29-0.1c0.13,0,0.22,0.03,0.29,0.1c0.07,0.07,0.1,0.17,0.1,0.31v12.2h6.77c0.14,0,0.24,0.03,0.31,0.09
			c0.07,0.06,0.1,0.15,0.1,0.26c0,0.13-0.03,0.22-0.1,0.28c-0.07,0.06-0.17,0.09-0.31,0.09H101.18z"/>
		<path class="st10" d="M112.28,42.03c-0.59,0-1.12-0.12-1.6-0.36c-0.48-0.24-0.85-0.56-1.13-0.97c-0.28-0.41-0.41-0.86-0.41-1.36
			c0-0.68,0.17-1.2,0.5-1.59c0.33-0.38,0.9-0.65,1.71-0.81c0.81-0.16,1.92-0.23,3.34-0.23h0.77v0.69h-0.73
			c-1.24,0-2.2,0.05-2.89,0.16c-0.68,0.11-1.16,0.29-1.43,0.56c-0.27,0.27-0.4,0.65-0.4,1.14c0,0.6,0.21,1.09,0.63,1.47
			c0.42,0.38,0.99,0.57,1.7,0.57c0.58,0,1.08-0.14,1.51-0.42c0.43-0.28,0.77-0.66,1.03-1.15c0.25-0.48,0.38-1.03,0.38-1.64v-2.14
			c0-0.9-0.18-1.56-0.53-1.97c-0.35-0.41-0.92-0.62-1.69-0.62c-0.5,0-0.98,0.07-1.44,0.21c-0.46,0.14-0.94,0.35-1.44,0.64
			c-0.11,0.06-0.21,0.09-0.29,0.07c-0.08-0.01-0.15-0.05-0.2-0.1c-0.05-0.06-0.08-0.12-0.1-0.21c-0.02-0.08-0.01-0.16,0.02-0.23
			c0.03-0.08,0.09-0.14,0.18-0.19c0.51-0.31,1.05-0.54,1.6-0.69c0.55-0.15,1.1-0.23,1.64-0.23c0.69,0,1.26,0.12,1.71,0.36
			c0.45,0.24,0.79,0.6,1.01,1.09c0.22,0.49,0.33,1.11,0.33,1.88v5.61c0,0.13-0.03,0.23-0.09,0.3c-0.06,0.08-0.16,0.11-0.28,0.11
			c-0.13,0-0.22-0.04-0.29-0.11c-0.07-0.08-0.1-0.18-0.1-0.3v-1.97h0.21c-0.13,0.5-0.34,0.93-0.64,1.3c-0.3,0.36-0.67,0.64-1.1,0.84
			C113.31,41.93,112.82,42.03,112.28,42.03z"/>
		<path class="st10" d="M122.31,42.03c-0.88,0-1.62-0.23-2.23-0.69c-0.61-0.46-1.02-1.07-1.23-1.83h0.21v2.07
			c0,0.13-0.03,0.23-0.1,0.3c-0.07,0.08-0.17,0.11-0.29,0.11c-0.13,0-0.22-0.04-0.29-0.11c-0.07-0.08-0.1-0.18-0.1-0.3V28.94
			c0-0.14,0.03-0.24,0.1-0.31c0.07-0.07,0.17-0.1,0.29-0.1c0.13,0,0.22,0.03,0.29,0.1c0.07,0.07,0.1,0.17,0.1,0.31v6.21h-0.21
			c0.21-0.78,0.62-1.39,1.23-1.84c0.61-0.45,1.35-0.68,2.23-0.68c0.83,0,1.55,0.19,2.15,0.57c0.61,0.38,1.08,0.92,1.4,1.62
			c0.33,0.7,0.49,1.53,0.49,2.5c0,0.95-0.17,1.78-0.5,2.49c-0.33,0.71-0.8,1.25-1.4,1.63C123.85,41.84,123.14,42.03,122.31,42.03z
			 M122.29,41.29c0.66,0,1.24-0.16,1.73-0.47c0.49-0.31,0.87-0.77,1.13-1.36c0.26-0.59,0.39-1.3,0.39-2.13
			c0-1.25-0.29-2.22-0.87-2.92c-0.58-0.69-1.38-1.04-2.38-1.04c-0.67,0-1.24,0.16-1.73,0.47c-0.49,0.31-0.87,0.76-1.13,1.35
			c-0.26,0.59-0.39,1.3-0.39,2.14c0,1.25,0.29,2.22,0.88,2.92C120.51,40.95,121.3,41.29,122.29,41.29z"/>
	</g>
</g>
</svg>
