<?xml version="1.0" encoding="utf-8"?>
<!-- Generator: Adobe Illustrator 24.0.1, SVG Export Plug-In . SVG Version: 6.00 Build 0)  -->
<svg version="1.1" id="Layer_1" xmlns="http://www.w3.org/2000/svg" xmlns:xlink="http://www.w3.org/1999/xlink" x="0px" y="0px"
	 viewBox="0 0 117.9 51.03" style="enable-background:new 0 0 117.9 51.03;" xml:space="preserve">
<style type="text/css">
	.st0{fill:#002F4C;}
	.st1{fill:url(#SVGID_1_);}
	.st2{fill:#00547D;}
</style>
<g>
	<g>
		<path class="st0" d="M52.94,25.9c-0.24,0-0.42-0.07-0.55-0.21c-0.13-0.14-0.19-0.33-0.19-0.57V13.87c0-0.25,0.07-0.44,0.2-0.57
			c0.13-0.13,0.32-0.19,0.56-0.19h4.26c1.35,0,2.39,0.33,3.13,1c0.73,0.66,1.1,1.6,1.1,2.81c0,1.2-0.37,2.13-1.1,2.8
			c-0.73,0.67-1.77,1.01-3.13,1.01h-3.54v4.4c0,0.24-0.06,0.43-0.18,0.57C53.38,25.83,53.19,25.9,52.94,25.9z M53.68,19.49h3.36
			c0.97,0,1.7-0.22,2.2-0.66c0.5-0.44,0.75-1.07,0.75-1.91c0-0.85-0.25-1.49-0.75-1.93c-0.5-0.44-1.23-0.66-2.2-0.66h-3.36V19.49z"
			/>
		<path class="st0" d="M64.99,14.94c-0.3,0-0.53-0.08-0.7-0.24c-0.17-0.16-0.25-0.38-0.25-0.66c0-0.29,0.08-0.51,0.25-0.66
			c0.17-0.15,0.4-0.22,0.7-0.22c0.31,0,0.55,0.08,0.71,0.22c0.16,0.15,0.24,0.37,0.24,0.66c0,0.28-0.08,0.49-0.24,0.66
			C65.54,14.86,65.31,14.94,64.99,14.94z M64.99,25.87c-0.24,0-0.42-0.07-0.54-0.21c-0.12-0.14-0.18-0.33-0.18-0.58v-7.35
			c0-0.25,0.06-0.44,0.18-0.57c0.12-0.13,0.3-0.2,0.54-0.2c0.23,0,0.41,0.07,0.54,0.2c0.13,0.13,0.2,0.32,0.2,0.57v7.35
			c0,0.25-0.06,0.45-0.19,0.58C65.42,25.8,65.23,25.87,64.99,25.87z"/>
		<path class="st0" d="M72.59,25.9c-0.2,0-0.38-0.06-0.54-0.17c-0.16-0.11-0.29-0.29-0.4-0.53l-3.11-7.26
			c-0.08-0.18-0.11-0.35-0.09-0.5c0.02-0.16,0.1-0.28,0.22-0.38c0.12-0.1,0.29-0.14,0.5-0.14c0.19,0,0.34,0.04,0.45,0.13
			c0.11,0.08,0.2,0.23,0.29,0.45l2.95,7.2h-0.48l3-7.2c0.08-0.22,0.18-0.37,0.29-0.45c0.11-0.08,0.26-0.13,0.47-0.13
			c0.19,0,0.34,0.05,0.44,0.14c0.1,0.1,0.16,0.22,0.18,0.37c0.02,0.15-0.01,0.31-0.08,0.49l-3.14,7.27
			c-0.08,0.24-0.21,0.42-0.37,0.53C73,25.84,72.81,25.9,72.59,25.9z"/>
		<path class="st0" d="M80.21,14.94c-0.3,0-0.53-0.08-0.7-0.24c-0.17-0.16-0.25-0.38-0.25-0.66c0-0.29,0.08-0.51,0.25-0.66
			c0.17-0.15,0.4-0.22,0.7-0.22c0.31,0,0.55,0.08,0.71,0.22c0.16,0.15,0.24,0.37,0.24,0.66c0,0.28-0.08,0.49-0.24,0.66
			C80.76,14.86,80.52,14.94,80.21,14.94z M80.21,25.87c-0.24,0-0.42-0.07-0.54-0.21c-0.12-0.14-0.18-0.33-0.18-0.58v-7.35
			c0-0.25,0.06-0.44,0.18-0.57c0.12-0.13,0.3-0.2,0.54-0.2c0.23,0,0.41,0.07,0.54,0.2c0.13,0.13,0.2,0.32,0.2,0.57v7.35
			c0,0.25-0.06,0.45-0.19,0.58C80.63,25.8,80.45,25.87,80.21,25.87z"/>
		<path class="st0" d="M87.88,25.94c-0.78,0-1.46-0.19-2.04-0.56c-0.58-0.37-1.03-0.89-1.35-1.57c-0.32-0.68-0.48-1.48-0.48-2.4
			c0-0.93,0.16-1.74,0.48-2.42c0.32-0.68,0.77-1.2,1.35-1.56c0.58-0.37,1.26-0.55,2.04-0.55c0.79,0,1.47,0.2,2.03,0.59
			c0.56,0.4,0.94,0.93,1.13,1.6h-0.2v-5.35c0-0.24,0.06-0.42,0.19-0.55c0.13-0.13,0.31-0.19,0.55-0.19c0.23,0,0.4,0.06,0.53,0.19
			c0.13,0.13,0.19,0.31,0.19,0.55v11.42c0,0.24-0.06,0.43-0.18,0.56c-0.12,0.13-0.3,0.2-0.54,0.2c-0.23,0-0.4-0.07-0.53-0.2
			c-0.13-0.13-0.19-0.32-0.19-0.56v-1.71l0.2,0.25c-0.19,0.68-0.57,1.23-1.14,1.63C89.35,25.73,88.67,25.94,87.88,25.94z
			 M88.18,24.77c0.54,0,1.01-0.13,1.42-0.4c0.41-0.26,0.72-0.65,0.94-1.15c0.22-0.5,0.33-1.11,0.33-1.81c0-1.09-0.24-1.92-0.73-2.5
			c-0.49-0.57-1.14-0.86-1.97-0.86c-0.55,0-1.03,0.13-1.43,0.39c-0.4,0.26-0.71,0.63-0.93,1.13c-0.22,0.5-0.33,1.11-0.33,1.84
			c0,1.08,0.25,1.91,0.74,2.49C86.72,24.48,87.37,24.77,88.18,24.77z"/>
		<path class="st0" d="M99.55,25.94c-0.85,0-1.59-0.19-2.21-0.56c-0.62-0.37-1.1-0.89-1.45-1.57c-0.34-0.68-0.51-1.48-0.51-2.4
			c0-0.69,0.1-1.32,0.29-1.88c0.19-0.56,0.47-1.03,0.84-1.43c0.37-0.4,0.81-0.7,1.32-0.91c0.51-0.21,1.08-0.31,1.72-0.31
			c0.85,0,1.59,0.19,2.21,0.56c0.62,0.37,1.1,0.9,1.45,1.57c0.34,0.68,0.51,1.48,0.51,2.4c0,0.69-0.1,1.32-0.29,1.87
			c-0.19,0.55-0.47,1.03-0.84,1.43c-0.37,0.4-0.81,0.71-1.32,0.92C100.76,25.83,100.19,25.94,99.55,25.94z M99.55,24.77
			c0.54,0,1.01-0.13,1.42-0.4c0.41-0.26,0.72-0.65,0.94-1.15c0.22-0.5,0.33-1.11,0.33-1.81c0-1.09-0.24-1.92-0.73-2.5
			c-0.49-0.57-1.14-0.86-1.97-0.86c-0.55,0-1.03,0.13-1.43,0.39c-0.4,0.26-0.71,0.63-0.93,1.13c-0.22,0.5-0.33,1.11-0.33,1.84
			c0,1.08,0.25,1.91,0.74,2.49C98.08,24.48,98.74,24.77,99.55,24.77z"/>
		<path class="st0" d="M107.54,25.9c-0.24,0-0.42-0.07-0.55-0.2c-0.13-0.13-0.19-0.32-0.19-0.56v-7.49c0-0.24,0.06-0.42,0.18-0.55
			c0.12-0.13,0.29-0.19,0.52-0.19c0.23,0,0.4,0.06,0.53,0.19c0.13,0.13,0.19,0.31,0.19,0.55v1.45h-0.18
			c0.19-0.71,0.56-1.25,1.1-1.63c0.54-0.38,1.2-0.59,1.99-0.61c0.18-0.01,0.32,0.03,0.43,0.12c0.11,0.09,0.17,0.24,0.18,0.46
			c0.01,0.2-0.04,0.37-0.14,0.48c-0.11,0.12-0.28,0.19-0.5,0.22l-0.29,0.04c-0.81,0.07-1.44,0.33-1.88,0.78
			c-0.44,0.45-0.66,1.06-0.66,1.84v4.35c0,0.24-0.06,0.43-0.19,0.56C107.97,25.84,107.78,25.9,107.54,25.9z"/>
		<path class="st0" d="M114.85,14.94c-0.3,0-0.53-0.08-0.7-0.24c-0.17-0.16-0.25-0.38-0.25-0.66c0-0.29,0.08-0.51,0.25-0.66
			c0.17-0.15,0.4-0.22,0.7-0.22c0.31,0,0.55,0.08,0.71,0.22c0.16,0.15,0.24,0.37,0.24,0.66c0,0.28-0.08,0.49-0.24,0.66
			C115.4,14.86,115.16,14.94,114.85,14.94z M114.85,25.87c-0.24,0-0.42-0.07-0.54-0.21c-0.12-0.14-0.18-0.33-0.18-0.58v-7.35
			c0-0.25,0.06-0.44,0.18-0.57c0.12-0.13,0.3-0.2,0.54-0.2c0.23,0,0.41,0.07,0.54,0.2c0.13,0.13,0.2,0.32,0.2,0.57v7.35
			c0,0.25-0.06,0.45-0.19,0.58C115.28,25.8,115.09,25.87,114.85,25.87z"/>
	</g>
	<g>
		<g>
			
				<linearGradient id="SVGID_1_" gradientUnits="userSpaceOnUse" x1="8.6173" y1="59.0453" x2="50.3063" y2="59.0453" gradientTransform="matrix(0.8828 -0.4698 0.4698 0.8828 -29.0827 -13.377)">
				<stop  offset="0" style="stop-color:#255572"/>
				<stop  offset="0.2154" style="stop-color:#477E92"/>
				<stop  offset="0.9343" style="stop-color:#F6DF4A"/>
			</linearGradient>
			<path class="st1" d="M17.73,30.82l1.85-0.98c0.25-0.13,0.34-0.44,0.21-0.69L18.8,27.3c-0.13-0.25-0.44-0.34-0.69-0.21l-1.85,0.98
				c-0.25,0.13-0.34,0.44-0.21,0.69l0.98,1.85C17.17,30.86,17.48,30.95,17.73,30.82z M19.07,32.76l0.39,0.72
				c0.05,0.1,0.17,0.13,0.27,0.08l0.72-0.39c0.1-0.05,0.13-0.17,0.08-0.27l-0.39-0.72c-0.05-0.1-0.17-0.13-0.27-0.08l-0.72,0.39
				C19.06,32.55,19.02,32.67,19.07,32.76z M7.38,17.02c0.28,0.52,0.93,0.72,1.45,0.44l3.9-2.08c0.52-0.28,0.72-0.93,0.44-1.45
				l-2.08-3.9c-0.28-0.52-0.93-0.72-1.45-0.44l-3.9,2.08c-0.52,0.28-0.72,0.93-0.44,1.45L7.38,17.02z M12.87,20.19l-1.85,0.98
				c-0.25,0.13-0.34,0.44-0.21,0.69l0.98,1.85c0.13,0.25,0.44,0.34,0.69,0.21l1.85-0.98c0.25-0.13,0.34-0.44,0.21-0.69l-0.98-1.85
				C13.43,20.15,13.12,20.05,12.87,20.19z M10.93,19.16l-0.59-1.1c-0.08-0.15-0.26-0.2-0.41-0.13l-1.1,0.59
				c-0.15,0.08-0.2,0.26-0.13,0.41l0.59,1.1c0.08,0.15,0.26,0.2,0.41,0.13l1.1-0.59C10.95,19.49,11.01,19.31,10.93,19.16z
				 M16.67,12.85l-0.8-1.5c-0.11-0.2-0.36-0.28-0.56-0.17l-1.5,0.8c-0.2,0.11-0.28,0.36-0.17,0.56l0.8,1.5
				c0.11,0.2,0.36,0.28,0.56,0.17l1.5-0.8C16.7,13.3,16.78,13.05,16.67,12.85z M10.65,7.77c0.07,0.14,0.24,0.19,0.38,0.12l1.02-0.54
				c0.14-0.07,0.19-0.24,0.12-0.38l-0.54-1.02c-0.07-0.14-0.24-0.19-0.38-0.12l-1.02,0.54c-0.14,0.07-0.19,0.24-0.12,0.38
				L10.65,7.77z M15.15,16.62l-1.34,0.71c-0.18,0.1-0.25,0.32-0.15,0.5l0.71,1.34c0.1,0.18,0.32,0.25,0.5,0.15l1.34-0.71
				c0.18-0.1,0.25-0.32,0.15-0.5l-0.71-1.34C15.55,16.59,15.33,16.53,15.15,16.62z M23.27,31.76l1.45-0.77
				c0.19-0.1,0.27-0.34,0.16-0.54L24.11,29c-0.1-0.19-0.34-0.27-0.54-0.16l-1.45,0.77c-0.19,0.1-0.27,0.34-0.16,0.54l0.77,1.45
				C22.84,31.79,23.08,31.86,23.27,31.76z M6.56,30.07l-0.77-1.45c-0.1-0.19-0.34-0.27-0.54-0.16L3.8,29.23
				c-0.19,0.1-0.27,0.34-0.16,0.54l0.77,1.45c0.1,0.19,0.34,0.27,0.54,0.16l1.45-0.77C6.59,30.5,6.66,30.26,6.56,30.07z
				 M26.02,38.15l-2.17-4.07c-0.29-0.54-0.97-0.75-1.51-0.46l-4.07,2.17c-0.54,0.29-0.75,0.97-0.46,1.51l2.17,4.07
				c0.29,0.54,0.97,0.75,1.51,0.46l4.07-2.17C26.1,39.38,26.31,38.7,26.02,38.15z M30.62,39.74c-0.38-0.72-1.29-1-2-0.61L23.22,42
				c-0.72,0.38-1,1.29-0.61,2l2.87,5.4c0.38,0.72,1.28,1,2,0.61l5.4-2.87c0.72-0.38,1-1.28,0.61-2L30.62,39.74z M11,27.49
				c0.06,0.12,0.21,0.16,0.33,0.1l0.88-0.47c0.12-0.06,0.16-0.21,0.1-0.33l-0.47-0.88c-0.06-0.12-0.21-0.16-0.33-0.1l-0.88,0.47
				c-0.12,0.06-0.16,0.21-0.1,0.33L11,27.49z M14.09,29.28c-0.35-0.67-1.19-0.92-1.85-0.57l-4.99,2.66
				c-0.67,0.35-0.92,1.19-0.57,1.85l2.66,4.99c0.35,0.67,1.19,0.92,1.85,0.57l4.99-2.66c0.67-0.35,0.92-1.19,0.57-1.85L14.09,29.28z
				 M41.87,12.87C36.44,2.66,23.75-1.21,13.54,4.22l0.53,0.99l1.67-0.89c0.39-0.21,0.87-0.06,1.07,0.33l1.54,2.89
				c0.21,0.39,0.06,0.87-0.33,1.07l0,0c0.03-0.15,0.01-0.31-0.06-0.46l-1.3-2.45c-0.17-0.33-0.58-0.45-0.91-0.28l-2.45,1.3
				c-0.33,0.17-0.45,0.58-0.28,0.91l1.3,2.45c0.17,0.33,0.58,0.45,0.91,0.28l1.23-0.66l3.07,5.77c3.99-2.12,8.94-0.61,11.07,3.38
				c1.9,3.57,0.89,7.92-2.21,10.31c0.25-0.11,0.55-0.01,0.68,0.23l1.02,1.91c0.14,0.25,0.04,0.57-0.22,0.71l-0.03,0.01
				c-0.01-0.03-0.02-0.06-0.03-0.08l-0.77-1.45c-0.1-0.19-0.34-0.27-0.54-0.16l-1.45,0.77c-0.19,0.1-0.27,0.34-0.16,0.54l0.77,1.45
				c0.1,0.19,0.34,0.27,0.54,0.16l0.62-0.33l0.64,1.2c0.06-0.07,0.13-0.13,0.22-0.18l2.63-1.4c0.35-0.19,0.79-0.05,0.98,0.3
				l1.4,2.63c0.19,0.35,0.05,0.79-0.3,0.98l-0.35,0.18c0.02-0.13,0.01-0.27-0.06-0.39l-1.18-2.21c-0.16-0.29-0.53-0.41-0.82-0.25
				l-2.21,1.18c-0.29,0.16-0.41,0.53-0.25,0.82l1.18,2.21c0.16,0.29,0.53,0.41,0.82,0.25l0.1-0.05l1.6,3
				C43.44,35.77,47.31,23.09,41.87,12.87z M26.96,37.51c0.11,0.2,0.36,0.28,0.56,0.17l1.51-0.81c0.2-0.11,0.28-0.36,0.17-0.56
				l-0.81-1.51c-0.11-0.2-0.36-0.28-0.56-0.17l-1.51,0.81c-0.2,0.11-0.28,0.36-0.17,0.56L26.96,37.51z M3.47,19.71
				c0.07,0.14,0.25,0.19,0.39,0.12l1.06-0.56c0.14-0.08,0.19-0.25,0.12-0.39l-0.56-1.06c-0.08-0.14-0.25-0.19-0.39-0.12l-1.06,0.56
				c-0.14,0.08-0.19,0.25-0.12,0.39L3.47,19.71z M5.72,27.68l3.49-1.86c0.47-0.25,0.64-0.83,0.4-1.29l-1.86-3.49
				c-0.25-0.46-0.83-0.64-1.3-0.4L2.96,22.5c-0.47,0.25-0.64,0.83-0.4,1.3l1.86,3.49C4.67,27.75,5.26,27.93,5.72,27.68z
				 M19.25,42.92c-0.1-0.19-0.34-0.27-0.54-0.16l-1.45,0.77c-0.19,0.1-0.27,0.34-0.16,0.54l0.77,1.45c0.1,0.19,0.34,0.27,0.54,0.16
				l1.45-0.77c0.19-0.1,0.27-0.34,0.16-0.54L19.25,42.92z"/>
		</g>
	</g>
	<g>
		<path class="st2" d="M85.02,39.11c-0.09,0-0.17-0.03-0.22-0.08c-0.06-0.06-0.08-0.13-0.08-0.22v-9.18c0-0.1,0.03-0.18,0.08-0.23
			c0.05-0.05,0.12-0.08,0.21-0.08c0.09,0,0.16,0.03,0.21,0.08c0.05,0.05,0.08,0.13,0.08,0.23v8.94h4.95c0.1,0,0.18,0.02,0.23,0.07
			c0.05,0.05,0.08,0.11,0.08,0.19c0,0.09-0.03,0.16-0.08,0.21c-0.05,0.05-0.13,0.07-0.23,0.07H85.02z"/>
		<path class="st2" d="M93.14,39.22c-0.43,0-0.82-0.09-1.17-0.26c-0.35-0.17-0.62-0.41-0.83-0.71c-0.2-0.3-0.3-0.63-0.3-1
			c0-0.5,0.12-0.88,0.36-1.16c0.24-0.28,0.66-0.48,1.25-0.59c0.59-0.11,1.41-0.17,2.44-0.17h0.56v0.51h-0.54
			c-0.91,0-1.61,0.04-2.11,0.12c-0.5,0.08-0.85,0.22-1.05,0.41c-0.2,0.2-0.3,0.47-0.3,0.83c0,0.44,0.15,0.8,0.46,1.08
			c0.31,0.28,0.72,0.42,1.25,0.42c0.42,0,0.79-0.1,1.11-0.31c0.32-0.21,0.57-0.49,0.75-0.84c0.18-0.35,0.28-0.75,0.28-1.2v-1.57
			c0-0.66-0.13-1.14-0.39-1.44c-0.26-0.3-0.67-0.45-1.24-0.45c-0.37,0-0.72,0.05-1.05,0.15c-0.34,0.1-0.69,0.26-1.05,0.47
			c-0.08,0.05-0.15,0.06-0.21,0.06c-0.06-0.01-0.11-0.03-0.14-0.08c-0.04-0.04-0.06-0.09-0.08-0.15c-0.01-0.06-0.01-0.12,0.01-0.17
			c0.02-0.06,0.07-0.1,0.13-0.14c0.38-0.23,0.77-0.4,1.17-0.51c0.4-0.11,0.8-0.17,1.2-0.17c0.5,0,0.92,0.09,1.25,0.26
			c0.33,0.17,0.58,0.44,0.74,0.8c0.16,0.36,0.24,0.82,0.24,1.38v4.11c0,0.09-0.02,0.17-0.07,0.22c-0.05,0.06-0.11,0.08-0.21,0.08
			c-0.09,0-0.16-0.03-0.21-0.08c-0.05-0.05-0.08-0.13-0.08-0.22v-1.44h0.15c-0.09,0.37-0.25,0.68-0.47,0.95
			c-0.22,0.27-0.49,0.47-0.8,0.61C93.89,39.15,93.53,39.22,93.14,39.22z"/>
		<path class="st2" d="M100.48,39.22c-0.64,0-1.19-0.17-1.63-0.5c-0.45-0.33-0.75-0.78-0.9-1.34h0.15v1.51
			c0,0.09-0.03,0.17-0.08,0.22c-0.05,0.06-0.12,0.08-0.21,0.08s-0.16-0.03-0.21-0.08c-0.05-0.05-0.08-0.13-0.08-0.22v-9.26
			c0-0.1,0.03-0.18,0.08-0.23c0.05-0.05,0.12-0.08,0.21-0.08s0.16,0.03,0.21,0.08c0.05,0.05,0.08,0.13,0.08,0.23v4.55h-0.15
			c0.16-0.57,0.46-1.02,0.9-1.35c0.44-0.33,0.99-0.5,1.63-0.5c0.61,0,1.13,0.14,1.58,0.42c0.44,0.28,0.79,0.68,1.03,1.19
			c0.24,0.51,0.36,1.12,0.36,1.83c0,0.7-0.12,1.31-0.36,1.82c-0.24,0.52-0.58,0.92-1.03,1.2C101.6,39.08,101.08,39.22,100.48,39.22z
			 M100.46,38.68c0.49,0,0.91-0.11,1.27-0.34c0.36-0.23,0.63-0.56,0.83-1c0.19-0.44,0.29-0.96,0.29-1.56c0-0.92-0.21-1.63-0.64-2.14
			c-0.43-0.51-1.01-0.76-1.74-0.76c-0.49,0-0.91,0.11-1.27,0.34c-0.36,0.23-0.63,0.56-0.83,0.99c-0.19,0.43-0.29,0.95-0.29,1.57
			c0,0.92,0.22,1.63,0.65,2.14C99.16,38.43,99.74,38.68,100.46,38.68z"/>
	</g>
</g>
</svg>
