<svg xmlns="http://www.w3.org/2000/svg" viewBox="86.00 63.86 189.02 189.02">
  <defs>
    <style>
      .light-blue {
        fill: #ffffff;
        opacity: 0.5;
      }
      .white {
        fill: #ffffff;
      }
      .orange {
        fill: #ffffff;
      }
      .blue {
        fill: #ffffff;
      }
    </style>
  </defs>


  <!-- beaker -->
  <path
    class="blue"
    d="M188.73,204.06a88,88,0,0,0-3.15-13.39,138.94,138.94,0,0,0-9.74-23.34s-4.67-9.74-7-14.62a9.68,9.68,0,0,1-.92-4c-.09-7.85,0-15.69,0-23.54v-1.28c1.12,0,2.1,0,3.09,0a3.35,3.35,0,1,0,0-6.69h-5.85c-2.49,0-3.76,1.32-3.76,3.89,0,9.21,0,18.42,0,27.63a15.27,15.27,0,0,0,1.57,6.87c1.88,3.82,6.22,12.35,6.39,12.67a132.35,132.35,0,0,1,10.42,24.34,84.42,84.42,0,0,1,2.84,12,21.07,21.07,0,0,1,.18,3.46,4.3,4.3,0,0,1-2.18,3.49c-1.94,1.31-4.17,1.62-6.42,2a3.67,3.67,0,0,1-1,0v.07H131.51v-.1a4.36,4.36,0,0,1-1.14,0,17.36,17.36,0,0,1-6-1.76,4.36,4.36,0,0,1-2.43-4.07,31.5,31.5,0,0,1,1-7.74,127.68,127.68,0,0,1,12-31.05c.27-.52,5-9.56,6.85-13.39a13.67,13.67,0,0,0,1.55-6q0-14.39,0-28.78a3.31,3.31,0,0,0-3.46-3.56h-6a3.35,3.35,0,1,0,0,6.69h3v1.41c0,7.77,0,15.55,0,23.32a9,9,0,0,1-.94,4.13q-3.5,7.14-7,14.3h0a138.27,138.27,0,0,0-11.28,28.36,44.11,44.11,0,0,0-1.87,12.36,10.38,10.38,0,0,0,5.69,9.49,22.67,22.67,0,0,0,9.6,2.6,4.37,4.37,0,0,1,1,.17h40.53a3.17,3.17,0,0,1,.78-.16,25.71,25.71,0,0,0,6.74-1.19c3.57-1.23,6.48-3.26,8.07-6.85A13.93,13.93,0,0,0,188.73,204.06Z"
  />

  <!-- liquid -->
  <path
    class="light-blue"
    d="M175.4,191.9a102.11,102.11,0,0,0-6.48-16.11H134.84a104.35,104.35,0,0,0-8.14,22.46,27,27,0,0,0-.83,6.64,3.75,3.75,0,0,0,2.09,3.5,15.05,15.05,0,0,0,5.12,1.51,3.59,3.59,0,0,0,1,0V210h35.71v-.05a3.58,3.58,0,0,0,.85,0,13.45,13.45,0,0,0,5.5-1.71,3.72,3.72,0,0,0,1.88-3,18.43,18.43,0,0,0-.16-3A71.65,71.65,0,0,0,175.4,191.9Z"
  />

  <!-- bubbles -->
  <circle class="blue" cx="149.01" cy="166.36" r="5.38" />
  <circle class="blue" cx="154.69" cy="149.68" r="3.98" />
  <circle class="blue" cx="149.38" cy="133.29" r="2.66" />
  <circle class="blue" cx="155.88" cy="121.36" r="2.66" />
  <circle class="blue" cx="151.9" cy="111.62" r="2.66" />

  <!-- spout -->
  <path
    class="blue"
    d="M217.9,103.33h-5.74c0-16.9-12.92-30.65-28.79-30.65s-28.79,13.75-28.79,30.65h-5.74c0-20.07,15.49-36.4,34.53-36.4S217.9,83.26,217.9,103.33Z"
  />
  <rect class="blue" x="212.16" y="103.16" width="5.74" height="32.99" />

  <!-- drop -->
  <path
    class="blue"
    d="M220.41,151.74a5.38,5.38,0,0,1-10.76,0c0-3,5.38-11.31,5.38-11.31S220.41,148.77,220.41,151.74Z"
  />

  <!-- stetho ears -->
  <path
    class="orange"
    d="M245.37,118.63a22.67,22.67,0,0,0-9.6-2.6,3,3,0,0,1-2.07-.8,8.54,8.54,0,0,0-3.94-2.33h-1.63l-.89.29a5.91,5.91,0,0,0-4.5,6.56,6.09,6.09,0,0,0,9.7,4.31,6.26,6.26,0,0,0,.78-.67,3.46,3.46,0,0,1,3.21-1.07,17.36,17.36,0,0,1,6,1.76,4.36,4.36,0,0,1,2.43,4.07,31.5,31.5,0,0,1-1,7.74,127.68,127.68,0,0,1-12,31.05,15.66,15.66,0,0,1-.94,1.5,1.33,1.33,0,0,1-1.16.6,1.85,1.85,0,0,0-1.11.81c-1.07,1.5-2,3.08-3.12,4.57a31.06,31.06,0,0,1-7.15,7.41c-3,2.09-5,2.06-8,0a29.94,29.94,0,0,1-6.68-6.94c-1.19-1.59-2.27-3.27-3.38-4.92-.37-.55-.71-1.06-1.52-.9-.19,0-.5-.17-.66-.36a6,6,0,0,1-.68-1,132.35,132.35,0,0,1-10.42-24.34,83.09,83.09,0,0,1-2.84-12,21.07,21.07,0,0,1-.18-3.46,4.3,4.3,0,0,1,2.18-3.49c1.94-1.31,4.17-1.62,6.41-2a3.43,3.43,0,0,1,3.28,1.2,5.59,5.59,0,0,0,6.49,1.35,6.67,6.67,0,0,0,3.94-6.17,6.26,6.26,0,0,0-4.93-5.65,3.12,3.12,0,0,1-.39-.15h-1.77a2.89,2.89,0,0,1-.31.15,6.89,6.89,0,0,0-3.59,2.06,2.57,2.57,0,0,1-1.93.91,25.71,25.71,0,0,0-6.73,1.19c-3.57,1.23-6.48,3.26-8.07,6.85a13.93,13.93,0,0,0-.61,7.77,88.25,88.25,0,0,0,3.15,13.39,140.91,140.91,0,0,0,10.15,24.15,25.41,25.41,0,0,1,1.17,2.54c.11.28.15.79,0,.94-.46.42-.31.78-.06,1.17,1,1.51,1.9,3,2.93,4.52,3.8,5.41,8.12,10.28,14.35,13a.92.92,0,0,1,.39.75q-.06,13.74-.16,27.5h8.85q.07-13.68.12-27.35a1.07,1.07,0,0,1,.75-1.13,24.59,24.59,0,0,0,3.12-1.67,30.81,30.81,0,0,0,7.5-6.95c2.11-2.68,4-5.54,6-8.33.36-.51.65-1,.08-1.66-.15-.16-.09-.61,0-.89a5.86,5.86,0,0,1,.54-1.13,137.78,137.78,0,0,0,12.28-30.23,43.8,43.8,0,0,0,1.86-12.36A10.35,10.35,0,0,0,245.37,118.63Z"
  />

  <!-- stetho neck -->
  <path
    class="orange"
    d="M183.37,249.8c-19,0-34.53-16.33-34.53-36.4h5.74c0,16.91,12.92,30.66,28.79,30.66s28.79-13.75,28.79-30.66h5.74C217.9,233.47,202.41,249.8,183.37,249.8Z"
  />
  <rect class="orange" x="148.84" y="200.12" width="5.74" height="13.29" />

  <!-- stetho circles -->
  <circle class="white" cx="151.44" cy="190.6" r="8.27" />
  <circle class="orange" cx="151.6" cy="190.38" r="4.28" />
  <path
    class="orange"
    d="M151.6,201.89a11.51,11.51,0,1,1,11.51-11.51A11.53,11.53,0,0,1,151.6,201.89Zm0-19.48a8,8,0,1,0,8,8A8,8,0,0,0,151.6,182.41Z"
  />
</svg>
