<?xml version="1.0" encoding="utf-8"?>
<!-- Generator: Adobe Illustrator 24.0.1, SVG Export Plug-In . SVG Version: 6.00 Build 0)  -->
<svg version="1.1" id="Layer_1" xmlns="http://www.w3.org/2000/svg" xmlns:xlink="http://www.w3.org/1999/xlink" x="0px" y="0px"
	 viewBox="0 0 126.17 49.86" style="enable-background:new 0 0 126.17 49.86;" xml:space="preserve">
<style type="text/css">
	.st0{fill:#002F4C;}
	.st1{fill:#3F96B4;}
	.st2{fill:#B6DCE1;}
	.st3{fill:#73C3D5;}
	.st4{fill:#3F7B91;}
	.st5{fill:#B9DBE5;}
	.st6{fill:#6FB1C8;}
	.st7{fill:#35819B;}
	.st8{fill:#245470;}
	.st9{fill:none;stroke:#6FB1C8;stroke-miterlimit:10;}
	.st10{fill:#FFFFFF;}
</style>
<g>
	<g>
		<g>
			<path class="st0" d="M51.34,26.81l-5.3-0.04l-0.05,6.04c0,0.38-0.27,0.67-0.68,0.67c-0.38,0-0.67-0.3-0.67-0.68l0.11-13.74
				c0-0.38,0.32-0.67,0.68-0.67l5.97,0.05c2.95,0.02,4.57,1.85,4.55,4.22C55.94,25.04,54.29,26.84,51.34,26.81z M51.66,19.66
				l-5.57-0.04l-0.05,5.95l5.57,0.04c1.86,0.01,2.99-1.25,3-2.95C54.63,20.96,53.52,19.67,51.66,19.66z"/>
			<path class="st0" d="M60.79,19.91c0.47,0,0.85,0.39,0.84,0.86c0,0.47-0.39,0.85-0.86,0.84c-0.47,0-0.85-0.39-0.84-0.86
				C59.93,20.28,60.32,19.9,60.79,19.91z M60.68,33.6c-0.38,0-0.67-0.3-0.67-0.68l0.07-8.73c0-0.38,0.3-0.67,0.68-0.67
				c0.38,0,0.67,0.3,0.67,0.68l-0.07,8.73C61.35,33.31,61.06,33.6,60.68,33.6z"/>
			<path class="st0" d="M69.74,31.59l3.41-7.56c0.11-0.27,0.27-0.4,0.59-0.4c0.38,0,0.62,0.27,0.62,0.61c0,0.11-0.05,0.25-0.09,0.34
				l-3.98,8.72c-0.11,0.22-0.25,0.38-0.56,0.38c-0.31,0-0.45-0.16-0.56-0.38l-3.85-8.78c-0.04-0.09-0.09-0.22-0.09-0.34
				c0-0.34,0.25-0.6,0.63-0.6c0.31,0,0.47,0.14,0.58,0.41L69.74,31.59z"/>
			<path class="st0" d="M78.86,20.05c0.47,0,0.85,0.39,0.84,0.86c0,0.47-0.39,0.85-0.86,0.84c-0.47,0-0.85-0.39-0.84-0.86
				C78.01,20.42,78.39,20.04,78.86,20.05z M78.76,33.74c-0.38,0-0.67-0.3-0.67-0.68l0.07-8.73c0-0.38,0.3-0.67,0.68-0.67
				c0.38,0,0.67,0.3,0.67,0.68l-0.07,8.73C79.43,33.45,79.14,33.74,78.76,33.74z"/>
			<path class="st0" d="M92.98,31.88c-0.86,1.27-2.23,2.04-4.02,2.03c-2.73-0.02-4.88-2.19-4.86-5.16c0.02-2.98,2.21-5.11,4.94-5.09
				c1.79,0.01,3.15,0.81,3.99,2.09l0.05-6.49c0-0.38,0.3-0.67,0.68-0.67c0.38,0,0.67,0.3,0.67,0.68l-0.11,13.92
				c0,0.38-0.3,0.67-0.68,0.67c-0.38,0-0.67-0.3-0.67-0.68L92.98,31.88z M89.17,32.77c2.3,0.02,3.82-1.78,3.83-3.95
				c0.02-2.17-1.47-3.99-3.77-4.01c-2.24-0.02-3.77,1.63-3.79,3.95C85.42,31.08,86.93,32.75,89.17,32.77z"/>
			<path class="st0" d="M104.04,34.02c-3-0.02-5.08-2.32-5.06-5.16c0.02-2.84,2.14-5.11,5.14-5.08c3,0.02,5.08,2.32,5.06,5.16
				C109.16,31.78,107.03,34.05,104.04,34.02z M104.11,24.94c-2.1-0.02-3.77,1.65-3.79,3.93c-0.02,2.28,1.63,3.97,3.73,3.99
				c2.1,0.02,3.77-1.65,3.79-3.93S106.21,24.95,104.11,24.94z"/>
			<path class="st0" d="M118.4,25.16c-1.92-0.01-3.24,1.81-3.26,4.32l-0.03,3.87c0,0.36-0.3,0.67-0.68,0.67
				c-0.36,0-0.67-0.32-0.67-0.68l0.07-8.73c0-0.4,0.3-0.67,0.68-0.67c0.4,0,0.67,0.3,0.67,0.68l-0.01,1.57
				c0.44-1.27,1.65-2.23,3.24-2.21c0.38,0,0.67,0.23,0.67,0.59C119.07,24.96,118.76,25.16,118.4,25.16z"/>
			<path class="st0" d="M123.58,20.39c0.47,0,0.85,0.39,0.84,0.86c0,0.47-0.39,0.85-0.86,0.84c-0.47,0-0.85-0.39-0.84-0.86
				C122.73,20.76,123.11,20.39,123.58,20.39z M123.48,34.08c-0.38,0-0.67-0.3-0.67-0.68l0.07-8.73c0-0.38,0.3-0.67,0.68-0.67
				c0.38,0,0.67,0.3,0.67,0.68l-0.07,8.73C124.15,33.8,123.86,34.09,123.48,34.08z"/>
		</g>
	</g>
	<g>
		<path class="st1" d="M52.31,47.82c0.12,0,0.2,0.09,0.2,0.2c0,0.12-0.09,0.2-0.2,0.2l-6.75-0.05c-0.12,0-0.22-0.1-0.22-0.22
			l0.08-10.8c0-0.12,0.1-0.22,0.22-0.22c0.12,0,0.22,0.1,0.22,0.22l-0.08,10.62L52.31,47.82z"/>
		<path class="st1" d="M62.05,48.43c-0.12,0-0.22-0.1-0.22-0.22l0.01-0.88c-0.52,0.73-1.59,1.15-2.86,1.15
			c-1.68-0.01-3.18-0.82-3.17-2.19c0.01-1.4,1.37-2.14,3.2-2.13c1.2,0.01,2.35,0.47,2.84,1.17l0.01-1.35
			c0.01-1.83-0.96-2.74-2.78-2.76c-0.95-0.01-1.68,0.15-2.42,0.52c-0.07,0.03-0.13,0.07-0.2,0.07c-0.13,0-0.2-0.1-0.2-0.2
			c0-0.07,0.05-0.12,0.13-0.17c0.7-0.39,1.7-0.6,2.71-0.6c2.03,0.02,3.21,1.16,3.19,3.14l-0.03,4.23
			C62.27,48.33,62.17,48.43,62.05,48.43z M59.03,44.5c-1.7-0.01-2.77,0.65-2.78,1.78c-0.01,1.2,1.34,1.83,2.72,1.84
			c1.52,0.01,2.87-0.66,2.88-1.78C61.86,45.24,60.55,44.51,59.03,44.5z"/>
		<path class="st1" d="M66.99,48.25c0,0.12-0.1,0.22-0.22,0.22c-0.12,0-0.22-0.1-0.22-0.22l0.08-10.94c0-0.12,0.1-0.22,0.22-0.22
			c0.12,0,0.22,0.1,0.22,0.22L67.03,43c0.68-1.31,1.88-2.09,3.4-2.07c2.13,0.02,3.8,1.66,3.79,3.85c-0.02,2.18-1.71,3.8-3.85,3.79
			c-1.52-0.01-2.71-0.8-3.37-2.13L66.99,48.25z M70.43,41.32c-1.87-0.01-3.4,1.42-3.41,3.39c-0.01,1.97,1.49,3.43,3.36,3.44
			c1.9,0.01,3.39-1.41,3.41-3.39C73.8,42.78,72.33,41.34,70.43,41.32z"/>
	</g>
	<g id="XMLID_1_">
		<polygon id="XMLID_22_" class="st0" points="10.58,16.3 18.1,11.96 13.5,11.96 		"/>
		<path id="XMLID_21_" class="st2" d="M10.04,21v-3.91L1.98,29.07h0C6.43,29.07,10.04,25.46,10.04,21z"/>
		<polygon id="XMLID_20_" class="st3" points="28.89,15.04 27.11,11.96 23.55,11.96 		"/>
		<polygon id="XMLID_19_" class="st4" points="27.11,33.72 28.89,30.64 23.55,33.72 		"/>
		<polygon id="XMLID_18_" class="st5" points="33.39,22.84 31.62,19.76 31.62,25.92 		"/>
		<polygon id="XMLID_17_" class="st1" points="23.55,11.96 27.11,11.96 20.83,1.08 20.83,10.38 		"/>
		<polygon id="XMLID_16_" class="st3" points="31.62,19.76 33.39,22.84 39.68,11.96 31.62,16.61 		"/>
		<polygon id="XMLID_15_" class="st6" points="39.68,33.72 39.68,11.96 33.39,22.84 		"/>
		<polygon id="XMLID_14_" class="st7" points="18.1,11.96 20.83,10.38 20.83,1.08 13.5,11.96 		"/>
		<polygon id="XMLID_13_" class="st6" points="27.11,11.96 39.68,11.96 20.83,1.08 		"/>
		<polygon id="XMLID_12_" class="st2" points="28.89,15.04 31.62,16.61 31.62,16.61 39.68,11.96 27.11,11.96 		"/>
		<polygon id="XMLID_11_" class="st2" points="28.89,30.64 27.11,33.72 39.68,33.72 31.62,29.07 		"/>
		<polygon id="XMLID_10_" class="st3" points="31.62,25.92 31.62,29.07 31.62,29.07 39.68,33.72 33.39,22.84 		"/>
		<polygon id="XMLID_9_" class="st4" points="10.04,16.61 10.58,16.3 13.5,11.96 1.98,11.96 10.04,16.61 		"/>
		<polygon id="XMLID_8_" class="st8" points="20.83,1.08 1.98,11.96 13.5,11.96 		"/>
		<polygon id="XMLID_7_" class="st6" points="1.98,11.96 1.98,29.07 10.04,17.09 10.04,16.61 		"/>
		<path id="XMLID_6_" class="st8" d="M23.55,33.72L23.55,33.72c-1.69,0.97-2.72,2.77-2.72,4.72v6.16l6.28-10.88H23.55z"/>
		<polygon id="XMLID_4_" class="st0" points="20.83,44.6 39.68,33.72 27.11,33.72 		"/>
		<path class="st9" d="M18.1,37.17"/>
		<path class="st10" d="M23.91,42.82l-0.05-2.94c0-2.2,1.69-3.22,1.7-3.23l9.31-5.34v-17L20.83,6.21L6.77,14.3v13.19l-0.21,0.15
			V14.23c0-0.04,0.02-0.07,0.05-0.09L20.78,6c0.03-0.02,0.07-0.02,0.11,0l14.16,8.15c0.03,0.02,0.05,0.05,0.05,0.09v17.13
			c0,0.04-0.02,0.07-0.05,0.09l-9.36,5.37c-0.01,0.01-1.6,0.97-1.6,3.05l0.05,2.82L23.91,42.82z"/>
	</g>
</g>
</svg>
