<?xml version="1.0" encoding="utf-8"?>
<!-- Generator: Adobe Illustrator 24.0.1, SVG Export Plug-In . SVG Version: 6.00 Build 0)  -->
<svg version="1.1" id="Layer_1" xmlns="http://www.w3.org/2000/svg" xmlns:xlink="http://www.w3.org/1999/xlink" x="0px" y="0px"
	 viewBox="0 0 151.92 49.86" style="enable-background:new 0 0 151.92 49.86;" xml:space="preserve">
<style type="text/css">
	.st0{fill:#245470;}
	.st1{fill:#F69320;}
	.st2{fill:#3F7B91;}
	.st3{fill:#FAAF43;}
	.st4{fill:#F1A41F;}
	.st5{fill:#EA7C23;}
	.st6{fill:#F69021;}
	.st7{fill:#F5DE48;}
	.st8{fill:#F5B334;}
	.st9{fill:#002F4C;}
	.st10{fill:#FFFFFF;}
	.st11{fill:#00547D;}
</style>
<g>
	<g id="XMLID_71_">
		<polygon id="XMLID_331_" class="st0" points="10.07,17.51 18.01,12.93 13.16,12.93 		"/>
		<path id="XMLID_332_" class="st0" d="M9.51,22.47v-4.13L1,30.98h0C5.7,30.98,9.51,27.17,9.51,22.47z"/>
		<polygon id="XMLID_333_" class="st1" points="29.4,16.18 27.52,12.93 23.77,12.93 		"/>
		<polygon id="XMLID_334_" class="st2" points="27.52,35.89 29.4,32.64 23.77,35.89 		"/>
		<polygon id="XMLID_336_" class="st3" points="34.15,24.41 32.27,21.16 32.27,27.66 		"/>
		<polygon id="XMLID_337_" class="st4" points="23.77,12.93 27.52,12.93 20.89,1.44 20.89,11.27 		"/>
		<polygon id="XMLID_338_" class="st3" points="32.27,21.16 34.15,24.41 40.78,12.93 32.27,17.84 		"/>
		<polygon id="XMLID_377_" class="st5" points="40.78,35.89 40.78,12.93 34.15,24.41 		"/>
		<polygon id="XMLID_378_" class="st3" points="18.01,12.93 20.89,11.27 20.89,1.44 13.16,12.93 		"/>
		<polygon id="XMLID_379_" class="st6" points="27.52,12.93 40.78,12.93 20.89,1.44 		"/>
		<polygon id="XMLID_380_" class="st4" points="29.4,16.18 32.27,17.84 32.27,17.84 40.78,12.93 27.52,12.93 		"/>
		<polygon id="XMLID_381_" class="st7" points="29.4,32.64 27.52,35.89 40.78,35.89 32.27,30.98 		"/>
		<polygon id="XMLID_382_" class="st8" points="32.27,27.66 32.27,30.98 32.27,30.98 40.78,35.89 34.15,24.41 		"/>
		<polygon id="XMLID_383_" class="st9" points="9.51,17.84 10.07,17.51 13.16,12.93 1,12.93 9.51,17.84 		"/>
		<polygon id="XMLID_384_" class="st7" points="20.89,1.44 1,12.93 13.16,12.93 		"/>
		<polygon id="XMLID_387_" class="st2" points="1,12.93 1,30.98 9.51,18.35 9.51,17.84 		"/>
		<path id="XMLID_388_" class="st0" d="M23.77,35.89L23.77,35.89c-1.78,1.03-2.88,2.93-2.88,4.98v6.5l6.63-11.48H23.77z"/>
		<polygon id="XMLID_389_" class="st9" points="20.89,47.38 40.78,35.89 27.52,35.89 		"/>
	</g>
	<path class="st10" d="M24.26,45.43l-0.04-2.41c0-2.41,1.85-3.53,1.87-3.54l10.21-5.86V14.97L20.89,6.11L5.48,14.97v14.74
		l-0.23,0.14V14.9c0-0.04,0.02-0.08,0.06-0.1l15.53-8.93c0.04-0.02,0.08-0.02,0.12,0l15.52,8.94c0.04,0.02,0.06,0.06,0.06,0.1v18.78
		c0,0.04-0.02,0.08-0.06,0.1l-10.27,5.89c-0.02,0.01-1.75,1.07-1.75,3.34l0.04,2.27L24.26,45.43z"/>
	<g>
		<path class="st9" d="M51.24,30.23c-0.3,0-0.53-0.09-0.69-0.26c-0.16-0.17-0.24-0.41-0.24-0.71V15.18c0-0.31,0.08-0.55,0.25-0.71
			c0.16-0.16,0.4-0.24,0.7-0.24h5.32c1.69,0,2.99,0.42,3.91,1.25c0.91,0.83,1.37,2,1.37,3.52c0,1.5-0.46,2.67-1.37,3.5
			c-0.91,0.84-2.22,1.26-3.91,1.26h-4.43v5.5c0,0.3-0.08,0.54-0.22,0.71C51.78,30.15,51.55,30.23,51.24,30.23z M52.16,22.21h4.2
			c1.21,0,2.13-0.27,2.75-0.82s0.93-1.34,0.93-2.39c0-1.06-0.31-1.87-0.93-2.41c-0.62-0.55-1.54-0.82-2.75-0.82h-4.2V22.21z"/>
		<path class="st9" d="M69.12,16.53c-0.37,0-0.67-0.1-0.88-0.3c-0.21-0.2-0.31-0.48-0.31-0.82c0-0.36,0.1-0.63,0.31-0.82
			c0.21-0.19,0.5-0.28,0.88-0.28c0.39,0,0.69,0.09,0.89,0.28c0.2,0.19,0.3,0.46,0.3,0.82c0,0.34-0.1,0.62-0.3,0.82
			C69.8,16.43,69.51,16.53,69.12,16.53z M69.12,30.19c-0.3,0-0.52-0.09-0.67-0.26c-0.15-0.17-0.22-0.42-0.22-0.73v-9.19
			c0-0.31,0.07-0.55,0.22-0.72c0.15-0.16,0.37-0.25,0.67-0.25c0.28,0,0.51,0.08,0.67,0.25c0.16,0.16,0.25,0.4,0.25,0.72v9.19
			c0,0.31-0.08,0.56-0.24,0.73C69.65,30.1,69.42,30.19,69.12,30.19z"/>
		<path class="st9" d="M81.43,30.23c-0.26,0-0.48-0.07-0.67-0.21c-0.2-0.14-0.36-0.36-0.49-0.66l-3.89-9.07
			c-0.11-0.22-0.14-0.43-0.11-0.63c0.03-0.19,0.12-0.35,0.27-0.47c0.15-0.12,0.36-0.18,0.63-0.18c0.24,0,0.43,0.05,0.56,0.16
			c0.13,0.11,0.25,0.29,0.36,0.56l3.68,9.01h-0.61l3.75-9.01c0.1-0.27,0.22-0.46,0.36-0.56C85.4,19.05,85.6,19,85.85,19
			c0.24,0,0.42,0.06,0.55,0.18c0.13,0.12,0.2,0.27,0.22,0.46c0.02,0.19-0.01,0.39-0.1,0.62l-3.93,9.1c-0.11,0.3-0.26,0.52-0.46,0.66
			C81.93,30.16,81.7,30.23,81.43,30.23z"/>
		<path class="st9" d="M93.76,16.53c-0.37,0-0.67-0.1-0.88-0.3c-0.21-0.2-0.31-0.48-0.31-0.82c0-0.36,0.1-0.63,0.31-0.82
			c0.21-0.19,0.5-0.28,0.88-0.28c0.39,0,0.69,0.09,0.89,0.28c0.2,0.19,0.3,0.46,0.3,0.82c0,0.34-0.1,0.62-0.3,0.82
			C94.44,16.43,94.15,16.53,93.76,16.53z M93.76,30.19c-0.3,0-0.52-0.09-0.67-0.26c-0.15-0.17-0.22-0.42-0.22-0.73v-9.19
			c0-0.31,0.07-0.55,0.22-0.72c0.15-0.16,0.37-0.25,0.67-0.25c0.28,0,0.51,0.08,0.67,0.25c0.16,0.16,0.25,0.4,0.25,0.72v9.19
			c0,0.31-0.08,0.56-0.24,0.73C94.29,30.1,94.06,30.19,93.76,30.19z"/>
		<path class="st9" d="M106.16,30.28c-0.97,0-1.82-0.23-2.55-0.7c-0.73-0.46-1.29-1.12-1.68-1.97c-0.4-0.85-0.6-1.85-0.6-3
			c0-1.17,0.2-2.17,0.6-3.02c0.4-0.85,0.96-1.5,1.68-1.95c0.73-0.46,1.58-0.69,2.55-0.69c0.99,0,1.83,0.25,2.54,0.74
			c0.7,0.49,1.18,1.16,1.41,2h-0.25V15c0-0.3,0.08-0.53,0.24-0.69c0.16-0.16,0.39-0.24,0.69-0.24c0.28,0,0.51,0.08,0.66,0.24
			c0.16,0.16,0.24,0.39,0.24,0.69v14.29c0,0.3-0.07,0.53-0.22,0.7c-0.15,0.16-0.37,0.25-0.67,0.25c-0.28,0-0.51-0.08-0.66-0.25
			c-0.16-0.16-0.24-0.4-0.24-0.7v-2.13l0.25,0.31c-0.24,0.85-0.72,1.54-1.43,2.04C108,30.02,107.15,30.28,106.16,30.28z
			 M106.54,28.82c0.67,0,1.27-0.16,1.77-0.49c0.51-0.33,0.9-0.81,1.18-1.44c0.28-0.63,0.42-1.38,0.42-2.27c0-1.36-0.3-2.4-0.91-3.12
			c-0.61-0.72-1.43-1.08-2.46-1.08c-0.69,0-1.28,0.16-1.79,0.48c-0.5,0.32-0.89,0.79-1.17,1.42c-0.28,0.62-0.42,1.39-0.42,2.3
			c0,1.35,0.31,2.39,0.92,3.11C104.71,28.45,105.52,28.82,106.54,28.82z"/>
		<path class="st9" d="M123.57,30.28c-1.06,0-1.98-0.23-2.76-0.7c-0.78-0.46-1.38-1.12-1.81-1.97c-0.43-0.85-0.64-1.85-0.64-3
			c0-0.87,0.12-1.65,0.36-2.35c0.24-0.7,0.59-1.29,1.06-1.79c0.46-0.49,1.01-0.87,1.65-1.13c0.64-0.26,1.35-0.39,2.15-0.39
			c1.06,0,1.98,0.23,2.76,0.7c0.78,0.46,1.38,1.12,1.81,1.97c0.43,0.85,0.64,1.85,0.64,3c0,0.87-0.12,1.65-0.36,2.34
			c-0.24,0.69-0.59,1.28-1.06,1.79c-0.46,0.5-1.01,0.88-1.65,1.15S124.36,30.28,123.57,30.28z M123.57,28.82
			c0.67,0,1.27-0.16,1.77-0.49c0.51-0.33,0.9-0.81,1.18-1.44c0.28-0.63,0.42-1.38,0.42-2.27c0-1.36-0.3-2.4-0.91-3.12
			c-0.61-0.72-1.43-1.08-2.46-1.08c-0.69,0-1.28,0.16-1.79,0.48c-0.5,0.32-0.89,0.79-1.17,1.42c-0.28,0.62-0.42,1.39-0.42,2.3
			c0,1.35,0.31,2.39,0.92,3.11C121.73,28.45,122.55,28.82,123.57,28.82z"/>
		<path class="st9" d="M136.37,30.23c-0.3,0-0.53-0.08-0.69-0.25c-0.16-0.16-0.24-0.4-0.24-0.7v-9.37c0-0.3,0.07-0.53,0.22-0.69
			c0.15-0.16,0.37-0.24,0.65-0.24c0.28,0,0.51,0.08,0.66,0.24c0.16,0.16,0.24,0.39,0.24,0.69v1.82H137c0.24-0.88,0.7-1.56,1.37-2.04
			c0.67-0.48,1.5-0.73,2.49-0.76c0.22-0.02,0.4,0.03,0.54,0.15s0.21,0.3,0.22,0.57c0.02,0.26-0.04,0.46-0.18,0.61
			s-0.34,0.24-0.63,0.27l-0.36,0.05c-1.02,0.09-1.8,0.42-2.35,0.98c-0.55,0.56-0.82,1.33-0.82,2.3v5.44c0,0.3-0.08,0.53-0.24,0.7
			C136.9,30.15,136.67,30.23,136.37,30.23z"/>
		<path class="st9" d="M148.32,16.53c-0.37,0-0.67-0.1-0.88-0.3c-0.21-0.2-0.31-0.48-0.31-0.82c0-0.36,0.1-0.63,0.31-0.82
			c0.21-0.19,0.5-0.28,0.88-0.28c0.39,0,0.69,0.09,0.89,0.28c0.2,0.19,0.3,0.46,0.3,0.82c0,0.34-0.1,0.62-0.3,0.82
			C149,16.43,148.71,16.53,148.32,16.53z M148.32,30.19c-0.3,0-0.52-0.09-0.67-0.26c-0.15-0.17-0.22-0.42-0.22-0.73v-9.19
			c0-0.31,0.07-0.55,0.22-0.72c0.15-0.16,0.37-0.25,0.67-0.25c0.28,0,0.51,0.08,0.67,0.25c0.16,0.16,0.25,0.4,0.25,0.72v9.19
			c0,0.31-0.08,0.56-0.24,0.73C148.85,30.1,148.62,30.19,148.32,30.19z"/>
	</g>
	<g>
		<path class="st11" d="M120.22,48.61c-0.12,0-0.22-0.04-0.3-0.11c-0.07-0.07-0.11-0.17-0.11-0.3V35.77c0-0.14,0.03-0.24,0.1-0.31
			c0.07-0.07,0.16-0.1,0.29-0.1s0.22,0.03,0.29,0.1c0.07,0.07,0.1,0.17,0.1,0.31v12.11h6.71c0.14,0,0.24,0.03,0.31,0.09
			c0.07,0.06,0.1,0.15,0.1,0.26c0,0.12-0.03,0.22-0.1,0.28c-0.07,0.06-0.17,0.09-0.31,0.09H120.22z"/>
		<path class="st11" d="M134.01,48.76c-0.58,0-1.11-0.12-1.58-0.35c-0.47-0.24-0.85-0.56-1.12-0.96c-0.27-0.4-0.41-0.85-0.41-1.35
			c0-0.67,0.16-1.2,0.49-1.57c0.33-0.38,0.89-0.65,1.7-0.8c0.8-0.15,1.9-0.23,3.31-0.23h0.76v0.69h-0.73
			c-1.23,0-2.18,0.05-2.86,0.16c-0.68,0.11-1.15,0.29-1.42,0.56c-0.27,0.27-0.4,0.64-0.4,1.13c0,0.6,0.21,1.08,0.62,1.46
			c0.42,0.38,0.98,0.57,1.69,0.57c0.57,0,1.07-0.14,1.5-0.42s0.77-0.66,1.02-1.14c0.25-0.48,0.37-1.02,0.37-1.63v-2.12
			c0-0.89-0.17-1.55-0.52-1.96s-0.91-0.62-1.68-0.62c-0.5,0-0.97,0.07-1.43,0.21c-0.45,0.14-0.93,0.35-1.43,0.63
			c-0.11,0.06-0.21,0.09-0.29,0.07c-0.08-0.01-0.15-0.05-0.2-0.1c-0.05-0.06-0.08-0.12-0.1-0.21c-0.02-0.08-0.01-0.16,0.02-0.23
			c0.03-0.07,0.09-0.14,0.18-0.19c0.51-0.31,1.04-0.54,1.58-0.69c0.55-0.15,1.09-0.22,1.62-0.22c0.68,0,1.25,0.12,1.7,0.35
			c0.45,0.24,0.78,0.6,1,1.08c0.22,0.48,0.33,1.11,0.33,1.86v5.57c0,0.12-0.03,0.22-0.09,0.3c-0.06,0.07-0.16,0.11-0.28,0.11
			c-0.12,0-0.22-0.04-0.29-0.11c-0.07-0.07-0.1-0.17-0.1-0.3v-1.96h0.2c-0.12,0.5-0.34,0.93-0.63,1.29
			c-0.3,0.36-0.66,0.64-1.09,0.83C135.02,48.67,134.54,48.76,134.01,48.76z"/>
		<path class="st11" d="M146.74,48.76c-0.87,0-1.61-0.23-2.21-0.68c-0.6-0.45-1.01-1.06-1.22-1.82h0.21v2.05
			c0,0.12-0.03,0.22-0.1,0.3c-0.07,0.07-0.16,0.11-0.29,0.11c-0.12,0-0.22-0.04-0.29-0.11c-0.07-0.07-0.1-0.17-0.1-0.3V35.77
			c0-0.14,0.03-0.24,0.1-0.31c0.07-0.07,0.16-0.1,0.29-0.1c0.12,0,0.22,0.03,0.29,0.1c0.07,0.07,0.1,0.17,0.1,0.31v6.17h-0.21
			c0.21-0.77,0.62-1.38,1.22-1.83c0.6-0.45,1.34-0.67,2.21-0.67c0.82,0,1.53,0.19,2.13,0.57c0.6,0.38,1.07,0.92,1.39,1.61
			c0.32,0.7,0.48,1.52,0.48,2.48c0,0.94-0.16,1.77-0.49,2.47c-0.33,0.7-0.79,1.24-1.39,1.62C148.26,48.57,147.55,48.76,146.74,48.76
			z M146.72,48.04c0.66,0,1.23-0.16,1.71-0.47c0.48-0.31,0.86-0.76,1.12-1.35c0.26-0.59,0.39-1.3,0.39-2.12
			c0-1.24-0.29-2.21-0.87-2.9c-0.58-0.69-1.36-1.03-2.36-1.03c-0.66,0-1.23,0.16-1.71,0.47c-0.48,0.31-0.86,0.76-1.12,1.34
			c-0.26,0.58-0.39,1.29-0.39,2.12c0,1.24,0.29,2.21,0.88,2.9C144.95,47.69,145.73,48.04,146.72,48.04z"/>
	</g>
	<path class="st10" d="M24.5,52.79"/>
</g>
</svg>
