<?xml version="1.0" encoding="utf-8"?>
<!-- Generator: Adobe Illustrator 24.0.1, SVG Export Plug-In . SVG Version: 6.00 Build 0)  -->
<svg version="1.1" id="Layer_1" xmlns="http://www.w3.org/2000/svg" xmlns:xlink="http://www.w3.org/1999/xlink" x="0px" y="0px"
	 viewBox="0 0 162.52 58.19" style="enable-background:new 0 0 162.52 58.19;" xml:space="preserve">
<style type="text/css">
	.st0{fill-rule:evenodd;clip-rule:evenodd;fill:#A1CE5E;}
	.st1{fill-rule:evenodd;clip-rule:evenodd;fill:#F5B334;}
	.st2{fill-rule:evenodd;clip-rule:evenodd;fill:#245470;}
	.st3{fill-rule:evenodd;clip-rule:evenodd;fill:#3F7B91;}
	.st4{fill-rule:evenodd;clip-rule:evenodd;fill:#CBDF82;}
	.st5{fill:#002F4C;}
	.st6{fill:#00547D;}
</style>
<g>
	<path class="st0" d="M28.84,38.35l5.12-1.23l-0.69-2.86l-2.12,0.51c-1.46,1.81-3.51,3.17-5.94,3.76
		c-3.96,0.95-7.93-0.39-10.53-3.16L5.7,42.29c0.01,0.01,0.01,0.01,0.02,0.02L2.75,44.6l2.87,12.2l8.81,0.09l-2.2-9.36
		c4.54,2.42,9.93,3.27,15.33,2.05l-1.05-4.37l3.77-0.91L28.84,38.35z"/>
	<g>
		<g>
			<g>
				<path class="st1" d="M1.46,34.61l10.65-3.83c-0.03-0.1-0.06-0.2-0.08-0.31c-1.41-5.87,2.2-11.77,8.07-13.18
					c5.87-1.41,11.77,2.2,13.18,8.07c0.28,1.17,0.36,2.33,0.26,3.47l3.4-0.82l-0.69-2.89l-1.36-5.65l-2.83,0.68l-0.79-3.3
					l-4.11,0.99l-0.61-2.53l-3.98,0.96l-0.17-0.7l-4.47,1.07L16.8,11.9l4.48-1.08L20.1,5.89C20,5.88,19.9,5.87,19.81,5.87
					c-0.78,0.1-1.56,0.24-2.35,0.43C5.52,9.17-1.83,21.17,1.04,33.11C1.16,33.61,1.3,34.11,1.46,34.61z"/>
			</g>
			<path class="st2" d="M1.57,20.86l20.9-5.02l-0.06-0.27l-4.47,1.07L16.8,11.9l4.48-1.08L20.1,5.89C20,5.88,19.9,5.87,19.81,5.87
				c-0.78,0.1-1.56,0.24-2.35,0.43C9.73,8.16,3.93,13.84,1.57,20.86"/>
			<path class="st2" d="M30.91,6.75l-1.6,0.38l0.38,1.6l1.6-0.38L30.91,6.75z M24.09,15.25l2.79-0.67l-0.64-2.67l1.48-0.36
				l-0.5-2.08l-2.08,0.5l0.47,1.95l-2.2,0.53L24.09,15.25z M20.94,11.66l-2.81,0.68l0.68,2.81l2.81-0.68L20.94,11.66z M30.07,13.97
				l3.68-0.88l-0.88-3.68l-3.68,0.88L30.07,13.97z M35.68,12.07L40.17,11l-1.08-4.48l-4.48,1.08L35.68,12.07z M43,1.14l-2.81,0.68
				l0.68,2.81l2.81-0.68L43,1.14z M47.91,4.25L45.19,4.9l0.66,2.73l2.73-0.66L47.91,4.25z M22.19,9.36l3.15-0.76l-0.76-3.15
				L21.44,6.2L22.19,9.36z"/>
			<path class="st0" d="M50.27,30.17l1.56-0.37l-0.37-1.56l-1.56,0.37L50.27,30.17z M39.89,43.35l1.56-0.37l-0.37-1.56l-1.56,0.37
				L39.89,43.35z M49.16,24.07l1.56-0.37l-0.37-1.56l-1.56,0.37L49.16,24.07z M43.55,32.02l4.54-1.09l-1.09-4.54l-4.54,1.09
				L43.55,32.02z M38.21,31.11l1.56-0.37l-0.37-1.56l-1.56,0.37L38.21,31.11z M49.58,33.83l1.91-0.46l-0.46-1.91l-1.91,0.46
				L49.58,33.83z M49.05,37.68l1.56-0.37l-0.37-1.56l-1.56,0.37L49.05,37.68z M46.11,43.02l2.61-0.63l-0.63-2.61l-2.61,0.63
				L46.11,43.02z M52.82,24.78l3.74-0.9l-0.9-3.75l-3.74,0.9L52.82,24.78z M36.66,47.63L39.28,47l-0.63-2.61l-2.61,0.63L36.66,47.63
				z M31.51,43.6l4.54-1.09l-1.09-4.54l-4.54,1.09L31.51,43.6z M28.66,49.61l3.24-0.78l-0.78-3.24l-3.24,0.78L28.66,49.61z
				 M32.45,46.67l1.49-0.36l-0.36-1.49l-1.49,0.36L32.45,46.67z M40.85,37.75l2.71-0.65l-0.65-2.71l-2.71,0.65L40.85,37.75z
				 M42.7,26.12l2.71-0.65l-0.65-2.71l-2.71,0.65L42.7,26.12z M37.79,40.9l2.17-0.52l-0.52-2.17l-2.17,0.52L37.79,40.9z M35.3,37.26
				l3.5-0.84l-0.84-3.5l-3.5,0.84L35.3,37.26z M31.75,33.16l2.71-0.65l-0.65-2.71l-2.71,0.65L31.75,33.16z M46.18,35.3l1.49-0.36
				l-0.36-1.49l-1.49,0.36L46.18,35.3z M47.44,20.6l-1.63,0.39l0.39,1.63l1.63-0.39L47.44,20.6z"/>
			
				<rect x="34.63" y="21.36" transform="matrix(0.9723 -0.2336 0.2336 0.9723 -4.5742 9.3696)" class="st3" width="5.26" height="5.26"/>
			<path class="st3" d="M39.52,12.92l-2.75,0.66l0.66,2.75l2.75-0.66L39.52,12.92z M43.4,11.61L41.8,12l0.38,1.6l1.6-0.38
				L43.4,11.61z M43.44,18.77l-2.75,0.66l0.66,2.75l2.75-0.66L43.44,18.77z M29.14,15.04l-1.6,0.38l0.38,1.6l1.6-0.38L29.14,15.04z
				 M35.3,15l-3.27,0.79l0.79,3.27l3.27-0.79L35.3,15z M43.78,8.43l-1.6,0.38l0.38,1.6l1.6-0.38L43.78,8.43z M41.2,16.39l-1.37,0.33
				l0.33,1.37l1.37-0.33L41.2,16.39z M50.85,12.54l-3.08,0.74l0.74,3.08l3.08-0.74L50.85,12.54z M58.08,11.94l-3.73,0.9l0.9,3.73
				l3.73-0.9L58.08,11.94z"/>
			<path class="st3" d="M36.94,28.01l-0.69-2.89l-1.36-5.65l-2.83,0.68l-0.79-3.3l-4.11,0.99l-0.61-2.53l-3.98,0.96l-0.1-0.43
				l-20.9,5.02c-1.28,3.82-1.54,8.04-0.53,12.25c0.12,0.51,0.26,1.01,0.42,1.5l10.65-3.83c-0.03-0.1-0.06-0.2-0.08-0.31
				c-1.41-5.87,2.2-11.77,8.07-13.18c5.87-1.41,11.77,2.2,13.18,8.07c0.28,1.17,0.36,2.33,0.26,3.47L36.94,28.01z"/>
		</g>
	</g>
	<polygon class="st4" points="14.41,56.9 5.61,56.81 4.08,50.28 12.39,48.28 	"/>
	<g>
		<path class="st5" d="M68.98,32.84c-0.35,0-0.62-0.1-0.81-0.3s-0.28-0.48-0.28-0.83V15.13c0-0.37,0.1-0.65,0.29-0.83
			c0.19-0.19,0.47-0.28,0.82-0.28h6.27c1.99,0,3.53,0.49,4.6,1.47c1.08,0.98,1.61,2.36,1.61,4.14c0,1.76-0.54,3.14-1.61,4.13
			c-1.08,0.99-2.61,1.48-4.6,1.48h-5.21v6.48c0,0.35-0.09,0.63-0.26,0.83C69.62,32.74,69.35,32.84,68.98,32.84z M70.06,23.4H75
			c1.43,0,2.51-0.32,3.24-0.97c0.73-0.64,1.1-1.58,1.1-2.82c0-1.25-0.37-2.2-1.1-2.84c-0.73-0.64-1.81-0.97-3.24-0.97h-4.94V23.4z"
			/>
		<path class="st5" d="M86.72,16.71c-0.44,0-0.78-0.12-1.03-0.36c-0.25-0.24-0.37-0.56-0.37-0.97c0-0.42,0.12-0.74,0.37-0.97
			c0.25-0.22,0.59-0.33,1.03-0.33c0.46,0,0.81,0.11,1.04,0.33c0.24,0.22,0.36,0.54,0.36,0.97c0,0.41-0.12,0.73-0.36,0.97
			C87.53,16.59,87.18,16.71,86.72,16.71z M86.72,32.79c-0.35,0-0.62-0.1-0.79-0.3c-0.18-0.2-0.26-0.49-0.26-0.86V20.81
			c0-0.37,0.09-0.65,0.26-0.85c0.18-0.19,0.44-0.29,0.79-0.29c0.33,0,0.6,0.1,0.79,0.29c0.19,0.19,0.29,0.48,0.29,0.85v10.81
			c0,0.37-0.09,0.66-0.28,0.86C87.34,32.69,87.07,32.79,86.72,32.79z"/>
		<path class="st5" d="M97.9,32.84c-0.3,0-0.56-0.08-0.79-0.25c-0.23-0.17-0.42-0.43-0.58-0.78l-4.57-10.68
			c-0.12-0.26-0.17-0.51-0.13-0.74c0.04-0.23,0.14-0.41,0.32-0.56c0.18-0.14,0.42-0.21,0.74-0.21c0.28,0,0.5,0.06,0.66,0.19
			c0.16,0.12,0.3,0.34,0.42,0.66l4.34,10.6h-0.71l4.42-10.6c0.12-0.32,0.26-0.54,0.42-0.66c0.16-0.12,0.39-0.19,0.69-0.19
			c0.28,0,0.5,0.07,0.65,0.21c0.15,0.14,0.24,0.32,0.26,0.54c0.03,0.22-0.01,0.46-0.12,0.73l-4.63,10.71
			c-0.12,0.35-0.3,0.61-0.54,0.78C98.5,32.76,98.22,32.84,97.9,32.84z"/>
		<path class="st5" d="M109.12,16.71c-0.44,0-0.78-0.12-1.03-0.36c-0.25-0.24-0.37-0.56-0.37-0.97c0-0.42,0.12-0.74,0.37-0.97
			c0.25-0.22,0.59-0.33,1.03-0.33c0.46,0,0.81,0.11,1.04,0.33c0.24,0.22,0.36,0.54,0.36,0.97c0,0.41-0.12,0.73-0.36,0.97
			C109.92,16.59,109.57,16.71,109.12,16.71z M109.12,32.79c-0.35,0-0.62-0.1-0.79-0.3c-0.18-0.2-0.26-0.49-0.26-0.86V20.81
			c0-0.37,0.09-0.65,0.26-0.85c0.18-0.19,0.44-0.29,0.79-0.29c0.33,0,0.6,0.1,0.79,0.29c0.19,0.19,0.29,0.48,0.29,0.85v10.81
			c0,0.37-0.09,0.66-0.28,0.86C109.74,32.69,109.47,32.79,109.12,32.79z"/>
		<path class="st5" d="M120.41,32.89c-1.15,0-2.15-0.27-3-0.82c-0.86-0.55-1.52-1.32-1.98-2.31c-0.47-1-0.7-2.17-0.7-3.53
			c0-1.38,0.23-2.56,0.7-3.56c0.47-1,1.13-1.76,1.98-2.3c0.85-0.54,1.85-0.81,3-0.81c1.16,0,2.16,0.29,2.99,0.87
			c0.83,0.58,1.38,1.37,1.67,2.35h-0.29v-7.88c0-0.35,0.09-0.62,0.28-0.81c0.19-0.19,0.45-0.28,0.81-0.28
			c0.33,0,0.59,0.09,0.78,0.28c0.19,0.19,0.28,0.45,0.28,0.81v16.82c0,0.35-0.09,0.63-0.26,0.82c-0.18,0.19-0.44,0.29-0.79,0.29
			c-0.34,0-0.6-0.1-0.78-0.29c-0.19-0.19-0.28-0.47-0.28-0.82v-2.51l0.29,0.37c-0.28,1-0.84,1.81-1.68,2.41
			C122.57,32.59,121.57,32.89,120.41,32.89z M120.86,31.18c0.79,0,1.49-0.19,2.09-0.58c0.6-0.39,1.06-0.95,1.39-1.69
			c0.33-0.74,0.49-1.63,0.49-2.67c0-1.6-0.36-2.83-1.07-3.68c-0.71-0.85-1.68-1.27-2.9-1.27c-0.81,0-1.51,0.19-2.1,0.57
			c-0.59,0.38-1.05,0.93-1.38,1.67c-0.33,0.73-0.49,1.64-0.49,2.71c0,1.59,0.36,2.81,1.08,3.66
			C118.7,30.75,119.66,31.18,120.86,31.18z"/>
		<path class="st5" d="M137.59,32.89c-1.25,0-2.34-0.27-3.25-0.82c-0.92-0.55-1.63-1.32-2.13-2.31c-0.5-1-0.75-2.17-0.75-3.53
			c0-1.02,0.14-1.94,0.42-2.76c0.28-0.82,0.7-1.52,1.24-2.1c0.55-0.58,1.19-1.03,1.94-1.34c0.75-0.31,1.59-0.46,2.53-0.46
			c1.25,0,2.34,0.27,3.25,0.82c0.92,0.55,1.63,1.32,2.13,2.31c0.5,1,0.75,2.17,0.75,3.53c0,1.02-0.14,1.94-0.42,2.75
			c-0.28,0.81-0.7,1.51-1.24,2.1c-0.55,0.59-1.19,1.04-1.94,1.35C139.37,32.74,138.53,32.89,137.59,32.89z M137.59,31.18
			c0.79,0,1.49-0.19,2.09-0.58c0.6-0.39,1.06-0.95,1.39-1.69c0.33-0.74,0.49-1.63,0.49-2.67c0-1.6-0.36-2.83-1.07-3.68
			c-0.71-0.85-1.68-1.27-2.9-1.27c-0.81,0-1.51,0.19-2.1,0.57c-0.59,0.38-1.05,0.93-1.38,1.67c-0.33,0.73-0.49,1.64-0.49,2.71
			c0,1.59,0.36,2.81,1.08,3.66C135.43,30.75,136.39,31.18,137.59,31.18z"/>
		<path class="st5" d="M149.36,32.84c-0.35,0-0.62-0.1-0.81-0.29c-0.19-0.19-0.28-0.47-0.28-0.82V20.7c0-0.35,0.09-0.62,0.26-0.81
			c0.18-0.19,0.43-0.28,0.77-0.28c0.33,0,0.59,0.09,0.78,0.28c0.19,0.19,0.28,0.45,0.28,0.81v2.14h-0.26
			c0.28-1.04,0.82-1.84,1.61-2.41c0.79-0.56,1.77-0.86,2.94-0.9c0.26-0.02,0.48,0.04,0.63,0.17c0.16,0.13,0.25,0.36,0.26,0.67
			c0.02,0.3-0.05,0.54-0.21,0.71c-0.16,0.18-0.41,0.28-0.74,0.32l-0.42,0.05c-1.2,0.11-2.12,0.49-2.76,1.15
			c-0.64,0.66-0.97,1.56-0.97,2.71v6.4c0,0.35-0.09,0.63-0.28,0.82C149.98,32.74,149.71,32.84,149.36,32.84z"/>
		<path class="st5" d="M160.12,16.71c-0.44,0-0.78-0.12-1.03-0.36c-0.25-0.24-0.37-0.56-0.37-0.97c0-0.42,0.12-0.74,0.37-0.97
			c0.25-0.22,0.59-0.33,1.03-0.33c0.46,0,0.81,0.11,1.04,0.33c0.24,0.22,0.36,0.54,0.36,0.97c0,0.41-0.12,0.73-0.36,0.97
			C160.93,16.59,160.58,16.71,160.12,16.71z M160.12,32.79c-0.35,0-0.62-0.1-0.79-0.3c-0.18-0.2-0.26-0.49-0.26-0.86V20.81
			c0-0.37,0.09-0.65,0.26-0.85c0.18-0.19,0.44-0.29,0.79-0.29c0.33,0,0.6,0.1,0.79,0.29c0.19,0.19,0.29,0.48,0.29,0.85v10.81
			c0,0.37-0.09,0.66-0.28,0.86S160.48,32.79,160.12,32.79z"/>
	</g>
	<g>
		<path class="st6" d="M116.49,52.46c-0.13,0-0.24-0.04-0.32-0.12c-0.08-0.08-0.12-0.19-0.12-0.32V38.6c0-0.15,0.04-0.26,0.11-0.33
			c0.07-0.07,0.18-0.11,0.31-0.11s0.24,0.04,0.31,0.11c0.07,0.07,0.11,0.18,0.11,0.33v13.08h7.24c0.15,0,0.26,0.03,0.33,0.1
			c0.07,0.07,0.11,0.16,0.11,0.28c0,0.13-0.04,0.23-0.11,0.3c-0.07,0.07-0.18,0.1-0.33,0.1H116.49z"/>
		<path class="st6" d="M128.37,52.62c-0.63,0-1.2-0.13-1.71-0.38c-0.51-0.25-0.91-0.6-1.21-1.04c-0.3-0.44-0.44-0.92-0.44-1.46
			c0-0.72,0.18-1.29,0.53-1.7c0.36-0.41,0.97-0.7,1.83-0.87c0.87-0.17,2.06-0.25,3.57-0.25h0.83v0.74h-0.78
			c-1.33,0-2.36,0.06-3.09,0.17c-0.73,0.11-1.24,0.32-1.53,0.6c-0.29,0.29-0.43,0.69-0.43,1.22c0,0.64,0.22,1.17,0.67,1.58
			c0.45,0.41,1.06,0.61,1.82,0.61c0.62,0,1.16-0.15,1.62-0.45c0.46-0.3,0.83-0.71,1.1-1.23c0.27-0.52,0.4-1.1,0.4-1.76v-2.29
			c0-0.97-0.19-1.67-0.56-2.11c-0.38-0.44-0.98-0.66-1.81-0.66c-0.54,0-1.05,0.07-1.54,0.22c-0.49,0.15-1,0.38-1.54,0.68
			c-0.12,0.07-0.22,0.09-0.31,0.08c-0.09-0.01-0.16-0.05-0.21-0.11c-0.05-0.06-0.09-0.13-0.11-0.22c-0.02-0.09-0.01-0.17,0.02-0.25
			c0.03-0.08,0.1-0.15,0.19-0.2c0.55-0.34,1.12-0.58,1.71-0.74c0.59-0.16,1.17-0.24,1.75-0.24c0.74,0,1.35,0.13,1.83,0.38
			c0.48,0.26,0.84,0.64,1.08,1.17c0.23,0.52,0.35,1.19,0.35,2.01v6.02c0,0.13-0.03,0.24-0.1,0.32c-0.07,0.08-0.17,0.12-0.3,0.12
			c-0.13,0-0.24-0.04-0.31-0.12c-0.07-0.08-0.11-0.19-0.11-0.32v-2.11h0.22c-0.13,0.54-0.36,1-0.68,1.39
			c-0.32,0.39-0.71,0.69-1.18,0.9C129.46,52.52,128.94,52.62,128.37,52.62z"/>
		<path class="st6" d="M139.09,52.62c-0.94,0-1.73-0.24-2.38-0.73c-0.65-0.49-1.09-1.14-1.32-1.96h0.22v2.21
			c0,0.13-0.04,0.24-0.11,0.32c-0.07,0.08-0.18,0.12-0.31,0.12c-0.13,0-0.24-0.04-0.31-0.12c-0.07-0.08-0.11-0.19-0.11-0.32V38.6
			c0-0.15,0.04-0.26,0.11-0.33c0.07-0.07,0.18-0.11,0.31-0.11c0.13,0,0.24,0.04,0.31,0.11c0.07,0.07,0.11,0.18,0.11,0.33v6.66h-0.22
			c0.23-0.83,0.67-1.49,1.32-1.97c0.65-0.48,1.45-0.72,2.38-0.72c0.89,0,1.65,0.2,2.3,0.61c0.65,0.41,1.15,0.99,1.5,1.74
			c0.35,0.75,0.52,1.64,0.52,2.68c0,1.02-0.18,1.91-0.53,2.67c-0.36,0.76-0.86,1.34-1.5,1.75
			C140.74,52.42,139.98,52.62,139.09,52.62z M139.07,51.84c0.71,0,1.33-0.17,1.85-0.5c0.52-0.34,0.93-0.82,1.21-1.46
			c0.28-0.64,0.42-1.4,0.42-2.28c0-1.34-0.31-2.38-0.94-3.13c-0.62-0.74-1.47-1.12-2.55-1.12c-0.71,0-1.33,0.17-1.85,0.5
			c-0.52,0.34-0.93,0.82-1.21,1.45c-0.28,0.63-0.42,1.4-0.42,2.29c0,1.34,0.32,2.38,0.95,3.13
			C137.17,51.47,138.01,51.84,139.07,51.84z"/>
	</g>
	<path class="st4" d="M27.55,49.59c-4.91,1.11-10.06,0.44-14.3-1.54l16.94-4.06l0.08,0.33l-3.75,0.98L27.55,49.59z"/>
</g>
</svg>
