<?xml version="1.0" encoding="utf-8"?>
<!-- Generator: Adobe Illustrator 24.0.1, SVG Export Plug-In . SVG Version: 6.00 Build 0)  -->
<svg version="1.1" id="Layer_1" xmlns="http://www.w3.org/2000/svg" xmlns:xlink="http://www.w3.org/1999/xlink" x="0px" y="0px"
	 viewBox="0 0 107.18 51.03" style="enable-background:new 0 0 107.18 51.03;" xml:space="preserve">
<style type="text/css">
	.st0{fill:#002F4C;}
	.st1{fill:url(#SVGID_1_);}
	.st2{fill:#00547D;}
</style>
<g>
	<g>
		<path class="st0" d="M45.08,27.95c-0.23,0-0.41-0.07-0.53-0.2c-0.12-0.13-0.18-0.32-0.18-0.55V16.24c0-0.24,0.06-0.43,0.19-0.55
			c0.13-0.12,0.31-0.18,0.54-0.18h4.14c1.32,0,2.33,0.32,3.04,0.97c0.71,0.65,1.07,1.56,1.07,2.74c0,1.17-0.36,2.07-1.07,2.73
			c-0.71,0.65-1.72,0.98-3.04,0.98H45.8v4.28c0,0.23-0.06,0.42-0.17,0.55C45.5,27.89,45.32,27.95,45.08,27.95z M45.8,21.71h3.27
			c0.94,0,1.66-0.21,2.14-0.64c0.48-0.43,0.73-1.05,0.73-1.86c0-0.83-0.24-1.45-0.73-1.88c-0.48-0.43-1.2-0.64-2.14-0.64H45.8V21.71
			z"/>
		<path class="st0" d="M56.81,17.29c-0.29,0-0.52-0.08-0.68-0.24c-0.16-0.16-0.24-0.37-0.24-0.64c0-0.28,0.08-0.49,0.24-0.64
			c0.16-0.15,0.39-0.22,0.68-0.22c0.3,0,0.53,0.07,0.69,0.22c0.16,0.15,0.24,0.36,0.24,0.64c0,0.27-0.08,0.48-0.24,0.64
			C57.34,17.21,57.11,17.29,56.81,17.29z M56.81,27.92c-0.23,0-0.41-0.07-0.52-0.2c-0.12-0.13-0.17-0.32-0.17-0.57V20
			c0-0.24,0.06-0.43,0.17-0.56c0.12-0.13,0.29-0.19,0.52-0.19c0.22,0,0.4,0.06,0.52,0.19c0.13,0.13,0.19,0.31,0.19,0.56v7.15
			c0,0.24-0.06,0.43-0.18,0.57C57.22,27.85,57.04,27.92,56.81,27.92z"/>
		<path class="st0" d="M64.2,27.95c-0.2,0-0.37-0.06-0.52-0.17c-0.15-0.11-0.28-0.28-0.38-0.52l-3.02-7.06
			c-0.08-0.17-0.11-0.34-0.09-0.49c0.02-0.15,0.09-0.27,0.21-0.37c0.12-0.09,0.28-0.14,0.49-0.14c0.19,0,0.33,0.04,0.44,0.12
			c0.1,0.08,0.2,0.23,0.28,0.44l2.87,7.01h-0.47l2.92-7.01c0.08-0.21,0.17-0.36,0.28-0.44c0.1-0.08,0.26-0.12,0.45-0.12
			c0.19,0,0.33,0.05,0.43,0.14c0.1,0.09,0.16,0.21,0.17,0.36c0.02,0.15-0.01,0.31-0.08,0.48l-3.06,7.08
			c-0.08,0.23-0.2,0.41-0.36,0.52C64.59,27.9,64.41,27.95,64.2,27.95z"/>
		<path class="st0" d="M71.61,17.29c-0.29,0-0.52-0.08-0.68-0.24c-0.16-0.16-0.24-0.37-0.24-0.64c0-0.28,0.08-0.49,0.24-0.64
			c0.16-0.15,0.39-0.22,0.68-0.22c0.3,0,0.53,0.07,0.69,0.22c0.16,0.15,0.24,0.36,0.24,0.64c0,0.27-0.08,0.48-0.24,0.64
			C72.14,17.21,71.91,17.29,71.61,17.29z M71.61,27.92c-0.23,0-0.41-0.07-0.52-0.2c-0.12-0.13-0.17-0.32-0.17-0.57V20
			c0-0.24,0.06-0.43,0.17-0.56c0.12-0.13,0.29-0.19,0.52-0.19c0.22,0,0.4,0.06,0.52,0.19c0.13,0.13,0.19,0.31,0.19,0.56v7.15
			c0,0.24-0.06,0.43-0.18,0.57C72.02,27.85,71.84,27.92,71.61,27.92z"/>
		<path class="st0" d="M79.07,27.99c-0.76,0-1.42-0.18-1.98-0.54c-0.57-0.36-1-0.87-1.31-1.53c-0.31-0.66-0.46-1.44-0.46-2.33
			c0-0.91,0.15-1.69,0.46-2.35c0.31-0.66,0.75-1.17,1.31-1.52c0.56-0.36,1.23-0.53,1.98-0.53c0.77,0,1.43,0.19,1.98,0.58
			c0.55,0.38,0.91,0.9,1.1,1.56h-0.19V16.1c0-0.23,0.06-0.41,0.18-0.53c0.12-0.12,0.3-0.18,0.53-0.18c0.22,0,0.39,0.06,0.52,0.18
			c0.12,0.12,0.18,0.3,0.18,0.53v11.12c0,0.23-0.06,0.41-0.17,0.54c-0.12,0.13-0.29,0.19-0.52,0.19c-0.22,0-0.39-0.06-0.52-0.19
			c-0.12-0.13-0.18-0.31-0.18-0.54v-1.66l0.19,0.24c-0.19,0.66-0.56,1.19-1.11,1.59C80.5,27.79,79.84,27.99,79.07,27.99z
			 M79.37,26.85c0.52,0,0.98-0.13,1.38-0.38c0.4-0.26,0.7-0.63,0.92-1.12c0.22-0.49,0.32-1.08,0.32-1.77c0-1.06-0.24-1.87-0.71-2.43
			s-1.11-0.84-1.91-0.84c-0.54,0-1,0.13-1.39,0.38c-0.39,0.25-0.69,0.62-0.91,1.1c-0.22,0.48-0.32,1.08-0.32,1.79
			c0,1.05,0.24,1.86,0.72,2.42C77.94,26.57,78.58,26.85,79.37,26.85z"/>
		<path class="st0" d="M90.43,27.99c-0.83,0-1.54-0.18-2.15-0.54c-0.61-0.36-1.07-0.87-1.41-1.53c-0.33-0.66-0.5-1.44-0.5-2.33
			c0-0.68,0.09-1.28,0.28-1.83c0.19-0.54,0.46-1.01,0.82-1.39c0.36-0.38,0.79-0.68,1.28-0.88c0.5-0.2,1.05-0.31,1.67-0.31
			c0.83,0,1.54,0.18,2.15,0.54c0.61,0.36,1.07,0.87,1.41,1.53c0.33,0.66,0.5,1.44,0.5,2.33c0,0.68-0.09,1.28-0.28,1.82
			c-0.19,0.54-0.46,1-0.82,1.39c-0.36,0.39-0.79,0.69-1.28,0.89C91.61,27.89,91.05,27.99,90.43,27.99z M90.43,26.85
			c0.52,0,0.98-0.13,1.38-0.38c0.4-0.26,0.7-0.63,0.92-1.12c0.22-0.49,0.32-1.08,0.32-1.77c0-1.06-0.24-1.87-0.71-2.43
			c-0.47-0.56-1.11-0.84-1.91-0.84c-0.54,0-1,0.13-1.39,0.38c-0.39,0.25-0.69,0.62-0.91,1.1c-0.22,0.48-0.32,1.08-0.32,1.79
			c0,1.05,0.24,1.86,0.72,2.42C89.01,26.57,89.64,26.85,90.43,26.85z"/>
		<path class="st0" d="M98.21,27.95c-0.23,0-0.41-0.06-0.53-0.19c-0.12-0.13-0.18-0.31-0.18-0.54v-7.29c0-0.23,0.06-0.41,0.17-0.53
			c0.12-0.12,0.29-0.18,0.51-0.18c0.22,0,0.39,0.06,0.52,0.18c0.12,0.12,0.18,0.3,0.18,0.53v1.42H98.7
			c0.19-0.69,0.54-1.22,1.07-1.59c0.52-0.37,1.17-0.57,1.94-0.59c0.17-0.01,0.31,0.03,0.42,0.11c0.1,0.09,0.16,0.24,0.17,0.45
			c0.01,0.2-0.04,0.36-0.14,0.47c-0.1,0.12-0.27,0.19-0.49,0.21l-0.28,0.03c-0.79,0.07-1.4,0.32-1.83,0.76
			c-0.43,0.44-0.64,1.03-0.64,1.79v4.23c0,0.23-0.06,0.41-0.18,0.54C98.62,27.89,98.45,27.95,98.21,27.95z"/>
		<path class="st0" d="M105.33,17.29c-0.29,0-0.52-0.08-0.68-0.24c-0.16-0.16-0.24-0.37-0.24-0.64c0-0.28,0.08-0.49,0.24-0.64
			c0.16-0.15,0.39-0.22,0.68-0.22c0.3,0,0.53,0.07,0.69,0.22c0.16,0.15,0.24,0.36,0.24,0.64c0,0.27-0.08,0.48-0.24,0.64
			C105.86,17.21,105.63,17.29,105.33,17.29z M105.33,27.92c-0.23,0-0.41-0.07-0.52-0.2c-0.12-0.13-0.17-0.32-0.17-0.57V20
			c0-0.24,0.06-0.43,0.17-0.56c0.12-0.13,0.29-0.19,0.52-0.19c0.22,0,0.4,0.06,0.52,0.19c0.13,0.13,0.19,0.31,0.19,0.56v7.15
			c0,0.24-0.06,0.43-0.18,0.57C105.74,27.85,105.56,27.92,105.33,27.92z"/>
	</g>
	<g>
		<g>
			
				<linearGradient id="SVGID_1_" gradientUnits="userSpaceOnUse" x1="6.4193" y1="62.3815" x2="48.9017" y2="62.3815" gradientTransform="matrix(0.8828 -0.4698 0.4698 0.8828 -29.9295 -17.7706)">
				<stop  offset="0" style="stop-color:#255572"/>
				<stop  offset="0.2154" style="stop-color:#477E92"/>
				<stop  offset="0.9343" style="stop-color:#F6DF4A"/>
			</linearGradient>
			<path class="st1" d="M16.72,30.33l1.88-1c0.25-0.13,0.35-0.45,0.21-0.7l-1-1.88c-0.13-0.25-0.45-0.35-0.7-0.21l-1.88,1
				c-0.25,0.13-0.35,0.45-0.21,0.7l1,1.88C16.16,30.37,16.47,30.46,16.72,30.33z M18.09,32.31l0.39,0.74
				c0.05,0.1,0.18,0.14,0.27,0.08l0.74-0.39c0.1-0.05,0.14-0.18,0.08-0.27l-0.39-0.74c-0.05-0.1-0.17-0.14-0.27-0.08l-0.74,0.39
				C18.08,32.09,18.04,32.21,18.09,32.31z M6.18,16.27C6.46,16.8,7.13,17,7.66,16.72l3.98-2.12c0.53-0.28,0.73-0.95,0.45-1.48
				L9.97,9.15C9.69,8.61,9.02,8.41,8.49,8.69l-3.98,2.12c-0.53,0.28-0.73,0.95-0.45,1.48L6.18,16.27z M11.78,19.49l-1.88,1
				c-0.25,0.13-0.35,0.45-0.21,0.7l1,1.88c0.13,0.25,0.45,0.35,0.7,0.21l1.88-1c0.25-0.13,0.35-0.45,0.21-0.7l-1-1.88
				C12.34,19.46,12.03,19.36,11.78,19.49z M9.8,18.45l-0.6-1.13c-0.08-0.15-0.27-0.21-0.42-0.13l-1.13,0.6
				c-0.15,0.08-0.21,0.27-0.13,0.42l0.6,1.13c0.08,0.15,0.27,0.21,0.42,0.13l1.13-0.6C9.82,18.79,9.88,18.6,9.8,18.45z M15.65,12.02
				l-0.81-1.52c-0.11-0.2-0.36-0.28-0.57-0.17l-1.52,0.81c-0.2,0.11-0.28,0.36-0.17,0.57l0.81,1.52c0.11,0.2,0.36,0.28,0.57,0.17
				l1.52-0.81C15.68,12.48,15.76,12.23,15.65,12.02z M9.52,6.84C9.59,6.98,9.76,7.03,9.9,6.96l1.04-0.55
				c0.14-0.07,0.19-0.25,0.12-0.39l-0.55-1.04c-0.07-0.14-0.25-0.19-0.39-0.12L9.08,5.41C8.94,5.49,8.89,5.66,8.96,5.8L9.52,6.84z
				 M14.1,15.86l-1.37,0.73c-0.18,0.1-0.25,0.33-0.15,0.51l0.73,1.37c0.1,0.18,0.33,0.25,0.51,0.15l1.37-0.73
				c0.18-0.1,0.25-0.33,0.16-0.51l-0.73-1.37C14.51,15.83,14.28,15.76,14.1,15.86z M22.37,31.29l1.48-0.79
				c0.2-0.1,0.27-0.35,0.17-0.55l-0.79-1.48c-0.1-0.2-0.35-0.27-0.55-0.17l-1.48,0.79c-0.2,0.1-0.27,0.35-0.17,0.55l0.79,1.48
				C21.93,31.32,22.18,31.39,22.37,31.29z M5.35,29.57l-0.79-1.48c-0.1-0.2-0.35-0.27-0.55-0.17l-1.48,0.79
				c-0.2,0.1-0.27,0.35-0.17,0.55l0.79,1.48c0.1,0.2,0.35,0.27,0.55,0.17l1.48-0.79C5.38,30.01,5.45,29.76,5.35,29.57z M25.18,37.8
				l-2.21-4.15c-0.29-0.55-0.99-0.77-1.54-0.47l-4.15,2.21c-0.55,0.29-0.76,0.99-0.47,1.54l2.21,4.15c0.29,0.55,0.99,0.76,1.54,0.47
				l4.15-2.21C25.26,39.05,25.47,38.36,25.18,37.8z M29.87,39.42c-0.39-0.73-1.31-1.01-2.04-0.62l-5.5,2.93
				c-0.73,0.39-1.01,1.31-0.62,2.04l2.93,5.5c0.39,0.73,1.31,1.01,2.04,0.62l5.5-2.93c0.73-0.39,1.01-1.31,0.62-2.04L29.87,39.42z
				 M9.87,26.93c0.06,0.12,0.21,0.17,0.33,0.1l0.9-0.48c0.12-0.06,0.17-0.21,0.1-0.33l-0.48-0.9c-0.06-0.12-0.21-0.17-0.33-0.1
				l-0.9,0.48c-0.12,0.06-0.17,0.21-0.1,0.33L9.87,26.93z M13.02,28.77c-0.36-0.68-1.21-0.94-1.89-0.58l-5.08,2.71
				c-0.68,0.36-0.94,1.21-0.58,1.89l2.71,5.08c0.36,0.68,1.21,0.94,1.89,0.58l5.08-2.71c0.68-0.36,0.94-1.21,0.58-1.89L13.02,28.77z
				 M36.43,18.33c-0.63-1.03,0.32-1.43,0.32-1.43l5.52-2.87c-0.27-0.67-0.58-1.34-0.93-1.99C35.79,1.63,22.87-2.31,12.46,3.22
				L13,4.24l1.7-0.9c0.39-0.21,0.89-0.06,1.09,0.33l1.57,2.95c0.21,0.39,0.06,0.89-0.33,1.09l0,0c0.03-0.15,0.02-0.32-0.06-0.47
				l-1.33-2.49c-0.18-0.33-0.59-0.46-0.93-0.28l-2.49,1.33c-0.33,0.18-0.46,0.59-0.28,0.93l1.33,2.49c0.18,0.33,0.59,0.46,0.93,0.28
				l1.26-0.67l3.13,5.88c4.07-2.16,9.12-0.62,11.28,3.44c1.94,3.64,0.9,8.07-2.25,10.51c0.25-0.11,0.56-0.01,0.69,0.24l1.04,1.95
				c0.14,0.26,0.04,0.59-0.22,0.72l-0.03,0.01c-0.01-0.03-0.02-0.06-0.03-0.08l-0.79-1.48c-0.1-0.2-0.35-0.27-0.55-0.17l-1.48,0.79
				c-0.2,0.1-0.27,0.35-0.17,0.55l0.79,1.48c0.1,0.2,0.35,0.27,0.55,0.17l0.63-0.34l0.65,1.22c0.06-0.07,0.13-0.14,0.22-0.18
				l2.68-1.43c0.36-0.19,0.8-0.05,0.99,0.3l1.43,2.68c0.19,0.36,0.05,0.8-0.3,0.99l-0.35,0.19c0.02-0.13,0.01-0.27-0.06-0.4
				l-1.2-2.25c-0.16-0.3-0.54-0.42-0.84-0.26l-2.25,1.2c-0.3,0.16-0.42,0.54-0.26,0.84l1.2,2.25c0.16,0.3,0.54,0.42,0.84,0.26
				l0.1-0.06l1.63,3.06c4.74-2.52,8.14-6.58,9.92-11.24C41.11,27.13,36.96,19.19,36.43,18.33z M26.14,37.15
				c0.11,0.21,0.37,0.28,0.57,0.17l1.54-0.82c0.21-0.11,0.28-0.37,0.18-0.57l-0.82-1.54c-0.11-0.21-0.37-0.28-0.57-0.17l-1.54,0.82
				c-0.21,0.11-0.28,0.37-0.17,0.57L26.14,37.15z M2.2,19.01c0.08,0.14,0.26,0.2,0.4,0.12l1.08-0.57c0.14-0.08,0.2-0.26,0.12-0.4
				l-0.57-1.08c-0.08-0.14-0.26-0.2-0.4-0.12l-1.08,0.57c-0.14,0.08-0.2,0.26-0.12,0.4L2.2,19.01z M4.49,27.13l3.55-1.89
				c0.47-0.25,0.66-0.85,0.4-1.32l-1.89-3.55c-0.25-0.47-0.85-0.65-1.32-0.4l-3.55,1.89c-0.47,0.25-0.66,0.85-0.4,1.32l1.89,3.55
				C3.42,27.2,4.02,27.38,4.49,27.13z M18.27,42.66c-0.1-0.2-0.35-0.27-0.55-0.17l-1.48,0.79c-0.2,0.1-0.27,0.35-0.17,0.55
				l0.79,1.48c0.1,0.2,0.35,0.27,0.55,0.17l1.48-0.79c0.2-0.1,0.27-0.35,0.17-0.55L18.27,42.66z"/>
		</g>
	</g>
	<g>
		<path class="st2" d="M73.49,40.48c-0.09,0-0.16-0.03-0.21-0.08c-0.05-0.05-0.08-0.12-0.08-0.21v-8.91c0-0.1,0.02-0.17,0.07-0.22
			c0.05-0.05,0.12-0.07,0.21-0.07c0.09,0,0.16,0.02,0.21,0.07c0.05,0.05,0.07,0.12,0.07,0.22v8.68h4.81c0.1,0,0.17,0.02,0.22,0.07
			c0.05,0.04,0.07,0.11,0.07,0.19c0,0.09-0.02,0.16-0.07,0.2c-0.05,0.04-0.12,0.07-0.22,0.07H73.49z"/>
		<path class="st2" d="M81.36,40.59c-0.42,0-0.8-0.08-1.13-0.25c-0.34-0.17-0.61-0.4-0.8-0.69c-0.2-0.29-0.29-0.61-0.29-0.97
			c0-0.48,0.12-0.86,0.35-1.13c0.24-0.27,0.64-0.46,1.22-0.57c0.57-0.11,1.36-0.17,2.37-0.17h0.55v0.49H83.1
			c-0.88,0-1.56,0.04-2.05,0.11c-0.49,0.08-0.82,0.21-1.01,0.4c-0.19,0.19-0.29,0.46-0.29,0.81c0,0.43,0.15,0.78,0.45,1.05
			c0.3,0.27,0.7,0.41,1.21,0.41c0.41,0,0.77-0.1,1.07-0.3c0.31-0.2,0.55-0.47,0.73-0.81c0.18-0.34,0.27-0.73,0.27-1.17v-1.52
			c0-0.64-0.12-1.11-0.37-1.4c-0.25-0.29-0.65-0.44-1.2-0.44c-0.36,0-0.7,0.05-1.02,0.15c-0.33,0.1-0.67,0.25-1.02,0.45
			c-0.08,0.04-0.15,0.06-0.21,0.05c-0.06-0.01-0.1-0.03-0.14-0.07c-0.04-0.04-0.06-0.09-0.07-0.15c-0.01-0.06-0.01-0.11,0.01-0.17
			c0.02-0.05,0.06-0.1,0.13-0.13c0.36-0.22,0.74-0.39,1.14-0.49c0.39-0.11,0.78-0.16,1.16-0.16c0.49,0,0.89,0.08,1.22,0.25
			c0.32,0.17,0.56,0.43,0.71,0.77c0.16,0.35,0.23,0.79,0.23,1.34v3.99c0,0.09-0.02,0.16-0.07,0.21c-0.04,0.05-0.11,0.08-0.2,0.08
			c-0.09,0-0.16-0.03-0.21-0.08c-0.05-0.05-0.07-0.12-0.07-0.21v-1.4h0.15c-0.09,0.36-0.24,0.66-0.45,0.92
			c-0.21,0.26-0.47,0.46-0.78,0.59C82.09,40.52,81.75,40.59,81.36,40.59z"/>
		<path class="st2" d="M88.48,40.59c-0.62,0-1.15-0.16-1.58-0.49c-0.43-0.32-0.72-0.76-0.87-1.3h0.15v1.47
			c0,0.09-0.02,0.16-0.07,0.21c-0.05,0.05-0.12,0.08-0.21,0.08c-0.09,0-0.16-0.03-0.21-0.08c-0.05-0.05-0.07-0.12-0.07-0.21v-8.99
			c0-0.1,0.02-0.17,0.07-0.22c0.05-0.05,0.12-0.07,0.21-0.07c0.09,0,0.16,0.02,0.21,0.07c0.05,0.05,0.07,0.12,0.07,0.22v4.42h-0.15
			c0.15-0.55,0.44-0.99,0.87-1.31c0.43-0.32,0.96-0.48,1.58-0.48c0.59,0,1.1,0.14,1.53,0.41c0.43,0.27,0.76,0.66,0.99,1.16
			c0.23,0.5,0.35,1.09,0.35,1.78c0,0.68-0.12,1.27-0.35,1.77c-0.24,0.5-0.57,0.89-0.99,1.16C89.58,40.46,89.07,40.59,88.48,40.59z
			 M88.47,40.07c0.47,0,0.88-0.11,1.23-0.33c0.35-0.22,0.61-0.55,0.8-0.97c0.19-0.42,0.28-0.93,0.28-1.52
			c0-0.89-0.21-1.58-0.62-2.08c-0.41-0.49-0.98-0.74-1.69-0.74c-0.47,0-0.88,0.11-1.23,0.33c-0.35,0.22-0.61,0.54-0.8,0.96
			c-0.19,0.42-0.28,0.93-0.28,1.52c0,0.89,0.21,1.58,0.63,2.08C87.2,39.82,87.76,40.07,88.47,40.07z"/>
	</g>
</g>
</svg>
