<?xml version="1.0" encoding="utf-8"?>
<!-- Generator: Adobe Illustrator 24.0.1, SVG Export Plug-In . SVG Version: 6.00 Build 0)  -->
<svg version="1.1" id="Layer_1" xmlns="http://www.w3.org/2000/svg" xmlns:xlink="http://www.w3.org/1999/xlink" x="0px" y="0px"
	 viewBox="0 0 144.47 58.19" style="enable-background:new 0 0 144.47 58.19;" xml:space="preserve">
<style type="text/css">
	.st0{fill:#002F4C;}
	.st1{fill-rule:evenodd;clip-rule:evenodd;fill:#E65A25;}
	.st2{fill-rule:evenodd;clip-rule:evenodd;fill:#F5B334;}
	.st3{fill-rule:evenodd;clip-rule:evenodd;fill:#F5DE48;}
	.st4{fill-rule:evenodd;clip-rule:evenodd;fill:#CFD1D2;}
	.st5{fill-rule:evenodd;clip-rule:evenodd;fill:#245470;}
	.st6{fill-rule:evenodd;clip-rule:evenodd;fill:#3F7B91;}
	.st7{fill-rule:evenodd;clip-rule:evenodd;fill:#002F4C;}
</style>
<g>
	<g>
		<path class="st0" d="M64.07,22.74c0,0.57-0.45,1.02-1.02,1.02c-0.57,0-1.02-0.45-1.02-1.02V4.39c0-0.57,0.45-1.02,1.02-1.02h5.96
			c3.2,0,5.72,1.86,5.72,5.84c0,3.92-2.46,5.87-5.72,5.87h-4.94V22.74z M64.07,13.22h4.64c2.43,0,3.95-1.41,3.95-4.01
			c0-2.63-1.56-3.98-3.95-3.98h-4.64V13.22z"/>
		<path class="st0" d="M77.67,5.73c0-0.87,0.42-1.2,1.14-1.2c0.72,0,1.14,0.33,1.14,1.2c0,0.72-0.42,1.14-1.14,1.14
			C78.09,6.87,77.67,6.45,77.67,5.73z M79.76,22.8c0,0.54-0.42,0.96-0.96,0.96c-0.54,0-0.96-0.42-0.96-0.96V10.64
			c0-0.54,0.42-0.96,0.96-0.96c0.54,0,0.96,0.42,0.96,0.96V22.8z"/>
		<path class="st0" d="M87.37,23.16l-5.09-12.1c-0.03-0.09-0.09-0.21-0.09-0.42c0-0.54,0.42-0.96,0.96-0.96
			c0.54,0,0.78,0.33,0.9,0.63l4.22,10.33l4.22-10.33c0.12-0.3,0.36-0.63,0.9-0.63c0.54,0,0.96,0.42,0.96,0.96
			c0,0.21-0.06,0.33-0.09,0.42l-5.09,12.1c-0.18,0.39-0.51,0.6-0.9,0.6C87.88,23.76,87.55,23.55,87.37,23.16z"/>
		<path class="st0" d="M96.56,5.73c0-0.87,0.42-1.2,1.14-1.2c0.72,0,1.14,0.33,1.14,1.2c0,0.72-0.42,1.14-1.14,1.14
			C96.98,6.87,96.56,6.45,96.56,5.73z M98.66,22.8c0,0.54-0.42,0.96-0.96,0.96c-0.54,0-0.96-0.42-0.96-0.96V10.64
			c0-0.54,0.42-0.96,0.96-0.96c0.54,0,0.96,0.42,0.96,0.96V22.8z"/>
		<path class="st0" d="M111.74,11.45V3.16c0-0.54,0.42-0.96,0.96-0.96c0.54,0,0.96,0.42,0.96,0.96v14.85c0,3.95-2.46,5.9-5.87,5.9
			c-3.86,0-6.14-2.31-6.14-7.22c0-4.91,2.16-7.19,6.02-7.19C109.59,9.51,111.06,10.49,111.74,11.45z M111.74,13.88
			c0,0-1.14-2.64-3.95-2.64c-2.73,0-4.22,1.77-4.22,5.45c0,3.74,1.47,5.48,4.22,5.48c2.31,0,3.95-1.32,3.95-4.16V13.88z"/>
		<path class="st0" d="M129.23,16.69c0,4.91-2.4,7.22-6.29,7.22c-3.86,0-6.29-2.31-6.29-7.22c0-4.91,2.43-7.19,6.29-7.19
			C126.84,9.51,129.23,11.78,129.23,16.69z M127.29,16.69c0-3.77-1.59-5.45-4.34-5.45c-2.76,0-4.34,1.68-4.34,5.45
			c0,3.83,1.59,5.48,4.34,5.48C125.7,22.17,127.29,20.53,127.29,16.69z"/>
		<path class="st0" d="M134.14,11.96c0.6-1.38,2.1-2.4,4.16-2.4c0.51,0,0.93,0.42,0.93,0.93s-0.42,0.93-0.93,0.93
			c-2.75,0-4.16,1.92-4.16,4.67v6.71c0,0.54-0.42,0.96-0.96,0.96c-0.54,0-0.96-0.42-0.96-0.96V10.64c0-0.54,0.42-0.96,0.96-0.96
			c0.54,0,0.96,0.42,0.96,0.96V11.96z"/>
		<path class="st0" d="M141.27,5.73c0-0.87,0.42-1.2,1.14-1.2c0.72,0,1.14,0.33,1.14,1.2c0,0.72-0.42,1.14-1.14,1.14
			C141.69,6.87,141.27,6.45,141.27,5.73z M143.37,22.8c0,0.54-0.42,0.96-0.96,0.96c-0.54,0-0.96-0.42-0.96-0.96V10.64
			c0-0.54,0.42-0.96,0.96-0.96c0.54,0,0.96,0.42,0.96,0.96V22.8z"/>
	</g>
	<g>
		<polygon class="st1" points="13.79,23.61 16.9,18.12 20,12.64 13.79,12.64 7.58,12.64 10.68,18.12 		"/>
		<polygon class="st2" points="13.79,1.66 16.9,7.15 20,12.64 13.79,12.64 7.58,12.64 10.68,7.15 		"/>
		<polygon class="st3" points="20,12.64 23.11,7.15 26.21,1.66 20,1.66 13.79,1.66 16.9,7.15 		"/>
		<polygon class="st4" points="32.43,12.64 35.53,7.15 38.64,1.66 32.43,1.66 26.21,1.66 29.32,7.15 		"/>
		<polygon class="st5" points="38.64,23.61 41.75,18.12 44.85,12.64 38.64,12.64 32.43,12.64 35.53,18.12 		"/>
		<polygon class="st6" points="38.64,1.66 41.75,7.15 44.85,12.64 38.64,12.64 32.43,12.64 35.53,7.15 		"/>
		<polygon class="st7" points="44.85,12.64 47.96,18.12 51.07,23.61 44.85,23.61 38.64,23.61 41.75,18.12 		"/>
		<polygon class="st6" points="20,34.58 23.11,40.07 26.21,45.56 20,45.56 13.79,45.56 16.9,40.07 		"/>
		<polygon class="st5" points="13.79,45.56 10.68,40.07 7.58,34.58 13.79,34.58 20,34.58 16.9,40.07 		"/>
		<polygon class="st4" points="32.43,34.58 35.53,40.07 38.64,45.56 32.43,45.56 26.21,45.56 29.32,40.07 		"/>
		<polygon class="st2" points="38.64,23.61 41.75,29.1 44.85,34.58 38.64,34.58 32.43,34.58 35.53,29.1 		"/>
		<polygon class="st1" points="38.64,45.56 41.75,40.07 44.85,34.58 38.64,34.58 32.43,34.58 35.53,40.07 		"/>
		<polygon class="st3" points="44.85,34.58 47.96,29.1 51.07,23.61 44.85,23.61 38.64,23.61 41.75,29.1 		"/>
		<polygon class="st7" points="7.58,34.58 4.47,40.07 1.36,45.56 7.58,45.56 13.79,45.56 10.68,40.07 		"/>
		<polygon class="st4" points="7.58,56.53 4.47,51.05 1.36,45.56 7.58,45.56 13.79,45.56 10.68,51.05 		"/>
	</g>
	<g>
		<path class="st0" d="M86.02,44.32c0.19,0,0.33,0.14,0.33,0.33c0,0.19-0.14,0.33-0.33,0.33h-7.77c-0.19,0-0.33-0.14-0.33-0.33
			V29.28c0-0.21,0.17-0.38,0.38-0.38c0.21,0,0.38,0.17,0.38,0.38v15.03H86.02z"/>
		<path class="st0" d="M91.56,36.27c-0.07,0.12-0.19,0.17-0.28,0.17c-0.19,0-0.33-0.14-0.33-0.33c0-0.07,0.02-0.14,0.07-0.21
			c0.61-0.99,1.79-1.96,3.78-1.96c2.9,0,4.13,1.56,4.13,3.89v6.99c0,0.19-0.14,0.33-0.33,0.33c-0.19,0-0.33-0.14-0.33-0.33v-1.39
			c-0.78,1.25-2.31,1.84-3.89,1.84c-2.64,0-4.11-1.18-4.11-3.26c0-2.08,1.68-3.28,4.37-3.28h3.63v-1.09c0-2.01-1.3-3.09-3.47-3.09
			C92.88,34.54,92.13,35.39,91.56,36.27z M98.26,41.32v-2.01h-3.63c-2.12,0-3.63,0.87-3.63,2.69c0,1.63,1.09,2.64,3.38,2.64
			C96.42,44.65,98.26,43.54,98.26,41.32z"/>
		<path class="st0" d="M113.75,39.6c0,3.87-1.82,5.69-4.84,5.69c-2.64,0-4.56-1.51-4.56-4.58V28.53c0-0.19,0.17-0.35,0.35-0.35
			c0.19,0,0.35,0.17,0.35,0.35v7.65c0,0,1.04-2.24,3.85-2.24C111.93,33.93,113.75,35.72,113.75,39.6z M105.06,40.7
			c0,2.76,1.63,3.97,3.85,3.97c2.67,0,4.08-1.53,4.08-5.07c0-3.49-1.42-5.05-4.08-5.05c-2.83,0-3.85,2.76-3.85,2.76V40.7z"/>
	</g>
</g>
</svg>
