<?xml version="1.0" encoding="utf-8"?>
<!-- Generator: Adobe Illustrator 24.0.1, SVG Export Plug-In . SVG Version: 6.00 Build 0)  -->
<svg version="1.1" id="Layer_1" xmlns="http://www.w3.org/2000/svg" xmlns:xlink="http://www.w3.org/1999/xlink" x="0px" y="0px"
	 viewBox="0 0 162.5 61" style="enable-background:new 0 0 162.5 61;" xml:space="preserve">
<style type="text/css">
	.st0{fill:#FFFFFF;}
	.st1{fill-rule:evenodd;clip-rule:evenodd;fill:#F5B334;}
	.st2{fill-rule:evenodd;clip-rule:evenodd;fill:#F5DE48;}
	.st3{fill-rule:evenodd;clip-rule:evenodd;fill:#245470;}
	.st4{fill-rule:evenodd;clip-rule:evenodd;fill:#3F7B91;}
</style>
<g>
	<path class="st0" d="M79.4,23.6h-6.8v7.8c0,0.5-0.3,0.9-0.9,0.9c-0.5,0-0.9-0.4-0.9-0.9V13.7c0-0.5,0.4-0.9,0.9-0.9h7.7
		c3.8,0,5.9,2.3,5.9,5.4S83.2,23.6,79.4,23.6z M79.8,14.4h-7.2v7.7h7.2c2.4,0,3.8-1.6,3.8-3.8S82.2,14.4,79.8,14.4z"/>
	<path class="st0" d="M89.4,14.6c0.6,0,1.1,0.5,1.1,1.1c0,0.6-0.5,1.1-1.1,1.1c-0.6,0-1.1-0.5-1.1-1.1
		C88.3,15.1,88.8,14.6,89.4,14.6z M89.4,32.3c-0.5,0-0.9-0.4-0.9-0.9V20.2c0-0.5,0.4-0.9,0.9-0.9c0.5,0,0.9,0.4,0.9,0.9v11.2
		C90.2,31.9,89.9,32.3,89.4,32.3z"/>
	<path class="st0" d="M98.9,29.6l4.3-9.8c0.1-0.3,0.3-0.5,0.7-0.5c0.5,0,0.8,0.3,0.8,0.8c0,0.1-0.1,0.3-0.1,0.4l-5,11.3
		c-0.1,0.3-0.3,0.5-0.7,0.5s-0.6-0.2-0.7-0.5l-5-11.3C93,20.4,93,20.2,93,20.1c0-0.4,0.3-0.8,0.8-0.8c0.4,0,0.6,0.2,0.7,0.5
		L98.9,29.6z"/>
	<path class="st0" d="M108.3,14.6c0.6,0,1.1,0.5,1.1,1.1c0,0.6-0.5,1.1-1.1,1.1s-1.1-0.5-1.1-1.1C107.2,15.1,107.7,14.6,108.3,14.6z
		 M108.3,32.3c-0.5,0-0.9-0.4-0.9-0.9V20.2c0-0.5,0.4-0.9,0.9-0.9s0.9,0.4,0.9,0.9v11.2C109.2,31.9,108.8,32.3,108.3,32.3z"/>
	<path class="st0" d="M124.5,29.7c-1.1,1.6-2.9,2.7-5.2,2.7c-3.5,0-6.3-2.8-6.3-6.6s2.8-6.6,6.3-6.6c2.3,0,4.1,1,5.2,2.7v-8.4
		c0-0.5,0.4-0.9,0.9-0.9s0.9,0.4,0.9,0.9v17.9c0,0.5-0.4,0.9-0.9,0.9s-0.9-0.4-0.9-0.9V29.7z M119.6,30.9c3,0,4.9-2.3,4.9-5.1
		s-1.9-5.1-4.9-5.1c-2.9,0-4.8,2.1-4.8,5.1S116.7,30.9,119.6,30.9z"/>
	<path class="st0" d="M136.6,32.4c-3.9,0-6.6-2.9-6.6-6.6s2.7-6.6,6.6-6.6s6.6,2.9,6.6,6.6S140.4,32.4,136.6,32.4z M136.6,20.7
		c-2.7,0-4.8,2.2-4.8,5.1s2.1,5.1,4.8,5.1s4.8-2.2,4.8-5.1S139.3,20.7,136.6,20.7z"/>
	<path class="st0" d="M152.8,20.8c-2.5,0-4.1,2.4-4.1,5.6v5c0,0.5-0.4,0.9-0.9,0.9c-0.5,0-0.9-0.4-0.9-0.9V20.2
		c0-0.5,0.4-0.9,0.9-0.9c0.5,0,0.9,0.4,0.9,0.9v2c0.5-1.6,2.1-2.9,4.1-2.9c0.5,0,0.9,0.3,0.9,0.7C153.7,20.6,153.3,20.8,152.8,20.8z
		"/>
	<path class="st0" d="M157.3,14.6c0.6,0,1.1,0.5,1.1,1.1c0,0.6-0.5,1.1-1.1,1.1s-1.1-0.5-1.1-1.1C156.2,15.1,156.7,14.6,157.3,14.6z
		 M157.3,32.3c-0.5,0-0.9-0.4-0.9-0.9V20.2c0-0.5,0.4-0.9,0.9-0.9s0.9,0.4,0.9,0.9v11.2C158.2,31.9,157.8,32.3,157.3,32.3z"/>
</g>
<g>
	<path class="st0" d="M130.8,51.1c-0.1,0-0.2,0-0.3-0.1s-0.1-0.2-0.1-0.3V38.1c0-0.1,0-0.2,0.1-0.3s0.2-0.1,0.3-0.1
		c0.1,0,0.2,0,0.3,0.1s0.1,0.2,0.1,0.3v12.2h6.8c0.1,0,0.2,0,0.3,0.1c0.1,0.1,0.1,0.2,0.1,0.3c0,0.1,0,0.2-0.1,0.3
		c-0.1,0.1-0.2,0.1-0.3,0.1H130.8z"/>
	<path class="st0" d="M143,51.2c-0.6,0-1.1-0.1-1.6-0.4c-0.5-0.2-0.9-0.6-1.1-1c-0.3-0.4-0.4-0.9-0.4-1.4c0-0.7,0.2-1.2,0.5-1.6
		c0.3-0.4,0.9-0.7,1.7-0.8c0.8-0.2,1.9-0.2,3.3-0.2h0.8v0.7h-0.7c-1.2,0-2.2,0.1-2.9,0.2s-1.2,0.3-1.4,0.6c-0.3,0.3-0.4,0.7-0.4,1.1
		c0,0.6,0.2,1.1,0.6,1.5s1,0.6,1.7,0.6c0.6,0,1.1-0.1,1.5-0.4c0.4-0.3,0.8-0.7,1-1.1c0.3-0.5,0.4-1,0.4-1.6v-2.1
		c0-0.9-0.2-1.6-0.5-2c-0.4-0.4-0.9-0.6-1.7-0.6c-0.5,0-1,0.1-1.4,0.2c-0.5,0.1-0.9,0.4-1.4,0.6c-0.1,0.1-0.2,0.1-0.3,0.1
		c-0.1,0-0.1,0-0.2-0.1c-0.1-0.1-0.1-0.1-0.1-0.2c0-0.1,0-0.2,0-0.2s0.1-0.1,0.2-0.2c0.5-0.3,1-0.5,1.6-0.7s1.1-0.2,1.6-0.2
		c0.7,0,1.3,0.1,1.7,0.4c0.5,0.2,0.8,0.6,1,1.1c0.2,0.5,0.3,1.1,0.3,1.9v5.6c0,0.1,0,0.2-0.1,0.3s-0.2,0.1-0.3,0.1
		c-0.1,0-0.2,0-0.3-0.1c-0.1-0.1-0.1-0.2-0.1-0.3v-2h0.2c-0.1,0.5-0.3,0.9-0.6,1.3s-0.7,0.6-1.1,0.8C144.1,51.1,143.6,51.2,143,51.2
		z"/>
	<path class="st0" d="M154.2,51.2c-0.9,0-1.6-0.2-2.2-0.7c-0.6-0.5-1-1.1-1.2-1.8h0.2v2.1c0,0.1,0,0.2-0.1,0.3
		c-0.1,0.1-0.2,0.1-0.3,0.1c-0.1,0-0.2,0-0.3-0.1c-0.1-0.1-0.1-0.2-0.1-0.3V38.1c0-0.1,0-0.2,0.1-0.3c0.1-0.1,0.2-0.1,0.3-0.1
		c0.1,0,0.2,0,0.3,0.1c0.1,0.1,0.1,0.2,0.1,0.3v6.2h-0.2c0.2-0.8,0.6-1.4,1.2-1.8s1.4-0.7,2.2-0.7c0.8,0,1.5,0.2,2.2,0.6
		c0.6,0.4,1.1,0.9,1.4,1.6c0.3,0.7,0.5,1.5,0.5,2.5c0,1-0.2,1.8-0.5,2.5c-0.3,0.7-0.8,1.3-1.4,1.6C155.7,51,155,51.2,154.2,51.2z
		 M154.2,50.5c0.7,0,1.2-0.2,1.7-0.5c0.5-0.3,0.9-0.8,1.1-1.4s0.4-1.3,0.4-2.1c0-1.3-0.3-2.2-0.9-2.9c-0.6-0.7-1.4-1-2.4-1
		c-0.7,0-1.2,0.2-1.7,0.5c-0.5,0.3-0.9,0.8-1.1,1.4c-0.3,0.6-0.4,1.3-0.4,2.1c0,1.3,0.3,2.2,0.9,2.9
		C152.4,50.1,153.2,50.5,154.2,50.5z"/>
</g>
<g>
	<g>
		<g>
			<g>
				<path class="st1" d="M2.2,36.4l11.1-4c0-0.1-0.1-0.2-0.1-0.3c-1.5-6.1,2.3-12.3,8.4-13.8s12.3,2.3,13.8,8.4
					c0.3,1.2,0.4,2.4,0.3,3.6l3.6-0.9l-0.7-3l-1.4-5.9l-2.9,0.7l-0.8-3.4l-4.3,1l-0.6-2.6l-4.2,1l-0.2-0.7l-4.7,1.1l-1.2-5l4.7-1.1
					l-1.2-5.1c-0.1,0-0.2,0-0.3,0c-0.8,0.1-1.6,0.3-2.5,0.5c-12.5,3-20.1,15.5-17.1,28C1.9,35.4,2.1,35.9,2.2,36.4z"/>
				<path class="st1" d="M30.8,40.3l5.3-1.3l-0.7-3l-2.2,0.5c-1.5,1.9-3.7,3.3-6.2,3.9c-4.1,1-8.3-0.4-11-3.3l-9.4,7.2c0,0,0,0,0,0
					l-3.1,2.4l3,12.8l9.2,0.1l-2.3-9.8c4.7,2.5,10.4,3.4,16,2.1l-1.1-4.6l3.9-0.9L30.8,40.3z"/>
			</g>
			<path class="st2" d="M29.5,52.1c-5.1,1.2-10.5,0.5-14.9-1.6l17.7-4.3l0.1,0.3l-3.9,1L29.5,52.1z"/>
			<path class="st3" d="M2.3,22.1l21.8-5.2l-0.1-0.3l-4.7,1.1l-1.2-5l4.7-1.1l-1.2-5.2c-0.1,0-0.2,0-0.3,0c-0.8,0.1-1.6,0.3-2.5,0.5
				C10.9,8.8,4.8,14.7,2.3,22.1"/>
			<path class="st3" d="M33,7.3l-1.7,0.4l0.4,1.7L33.4,9L33,7.3z M25.9,16.2l2.9-0.7l-0.7-2.8l1.5-0.4l-0.5-2.2L27,10.7l0.5,2
				l-2.3,0.6L25.9,16.2z M22.6,12.4l-2.9,0.7l0.7,2.9l2.9-0.7L22.6,12.4z M32.1,14.9l3.8-0.9L35,10.1L31.2,11L32.1,14.9z M38,12.9
				l4.7-1.1l-1.1-4.7l-4.7,1.1L38,12.9z M45.6,1.5l-2.9,0.7l0.7,2.9l2.9-0.7L45.6,1.5z M50.8,4.7l-2.8,0.7l0.7,2.8l2.8-0.7L50.8,4.7
				z M23.9,10.1l3.3-0.8L26.4,6l-3.3,0.8L23.9,10.1z"/>
			<path class="st1" d="M53.2,31.8l1.6-0.4l-0.4-1.6l-1.6,0.4L53.2,31.8z M42.4,45.6l1.6-0.4l-0.4-1.6L42,43.9L42.4,45.6z
				 M52.1,25.4l1.6-0.4l-0.4-1.6l-1.6,0.4L52.1,25.4z M46.2,33.7l4.7-1.1l-1.1-4.7L45.1,29L46.2,33.7z M40.6,32.8l1.6-0.4l-0.4-1.6
				l-1.6,0.4L40.6,32.8z M52.5,35.6l2-0.5l-0.5-2l-2,0.5L52.5,35.6z M51.9,39.6l1.6-0.4l-0.4-1.6L51.6,38L51.9,39.6z M48.9,45.2
				l2.7-0.7L51,41.8l-2.7,0.7L48.9,45.2z M55.9,26.2l3.9-0.9l-0.9-3.9l-3.9,0.9L55.9,26.2z M39,50l2.7-0.7l-0.7-2.7l-2.7,0.7L39,50z
				 M33.6,45.8l4.7-1.1l-1.1-4.7l-4.7,1.1L33.6,45.8z M30.6,52.1l3.4-0.8l-0.8-3.4l-3.4,0.8L30.6,52.1z M34.6,49l1.6-0.4l-0.4-1.6
				l-1.6,0.4L34.6,49z M43.4,39.7l2.8-0.7l-0.7-2.8l-2.8,0.7L43.4,39.7z M45.3,27.6l2.8-0.7l-0.7-2.8l-2.8,0.7L45.3,27.6z M40.2,43
				l2.3-0.5l-0.5-2.3l-2.3,0.5L40.2,43z M37.6,39.2l3.7-0.9l-0.9-3.7l-3.7,0.9L37.6,39.2z M33.9,34.9l2.8-0.7L36,31.4l-2.8,0.7
				L33.9,34.9z M49,37.2l1.6-0.4l-0.4-1.6l-1.6,0.4L49,37.2z M50.3,21.8l-1.7,0.4l0.4,1.7l1.7-0.4L50.3,21.8z"/>
			
				<rect x="36.9" y="22.6" transform="matrix(0.9723 -0.2336 0.2336 0.9723 -4.8229 9.9591)" class="st4" width="5.5" height="5.5"/>
			<path class="st4" d="M42,13.8l-2.9,0.7l0.7,2.9l2.9-0.7L42,13.8z M46,12.4l-1.7,0.4l0.4,1.7l1.7-0.4L46,12.4z M46.1,19.9
				l-2.9,0.7l0.7,2.9l2.9-0.7L46.1,19.9z M31.2,16l-1.7,0.4l0.4,1.7l1.7-0.4L31.2,16z M37.6,15.9l-3.4,0.8l0.8,3.4l3.4-0.8
				L37.6,15.9z M46.4,9.1l-1.7,0.4l0.4,1.7l1.7-0.4L46.4,9.1z M43.7,17.4l-1.4,0.3l0.3,1.4l1.4-0.3L43.7,17.4z M53.8,13.4l-3.2,0.8
				l0.8,3.2l3.2-0.8L53.8,13.4z M61.4,12.7l-3.9,0.9l0.9,3.9l3.9-0.9L61.4,12.7z"/>
			<path class="st4" d="M39.3,29.5l-0.7-3l-1.4-5.9l-2.9,0.7l-0.8-3.4l-4.3,1l-0.6-2.6l-4.2,1l-0.1-0.5L2.3,22.1
				c-1.3,4-1.6,8.4-0.6,12.8c0.1,0.5,0.3,1.1,0.4,1.6l11.1-4c0-0.1-0.1-0.2-0.1-0.3c-1.5-6.1,2.3-12.3,8.4-13.8
				c6.1-1.5,12.3,2.3,13.8,8.4c0.3,1.2,0.4,2.4,0.3,3.6L39.3,29.5z"/>
		</g>
	</g>
	<polygon class="st2" points="15.8,59.7 6.6,59.6 5,52.8 13.6,50.7 	"/>
</g>
</svg>